<svg width="106" height="166" viewBox="0 0 106 166" fill="none" xmlns="http://www.w3.org/2000/svg">
<g clip-path="url(#clip0_26_1103)">
<path d="M0.842165 135.191C-0.439105 134.223 0.180317 132.84 0.171832 131.669C0.137891 99.3574 0.188802 67.0542 0.0700089 34.7509C0.0615237 31.4502 0.910047 30.2962 4.27868 30.6016C7.91885 30.9241 11.6099 30.7035 15.2755 30.7289C15.4537 30.9241 15.6319 31.1192 15.8186 31.3144C17.2781 36.2528 16.3107 41.3015 16.5144 46.2993C16.718 56.1167 16.7011 65.9426 16.5314 75.76C16.8029 94.0202 16.6162 112.272 16.6247 130.532C16.6247 132.076 16.5738 133.638 15.5895 134.961C10.685 135.912 5.7636 135.513 0.842165 135.191Z" fill="#010101"/>
<path d="M97.5483 30.8222C105.041 30.381 105.041 30.381 105.041 37.7123C105.041 68.7512 105.049 99.7902 104.998 130.821C104.998 132.263 105.737 133.918 104.345 135.182C101.774 135.657 99.2029 135.572 96.6234 135.233C93.9421 132.908 93.2209 129.701 92.0244 126.502C89.4619 119.705 89.4619 112.824 89.5892 105.823C89.6231 103.838 89.7334 101.912 90.9553 100.181C92.3469 98.2035 91.999 95.8531 91.999 93.6299C92.0329 78.1274 92.0669 62.6164 91.982 47.1139C91.9566 43.1089 92.6184 39.282 93.6791 35.4552C94.2815 33.2405 95.3931 31.6368 97.5483 30.8222Z" fill="#020102"/>
<path d="M30.498 1.14097C45.2114 0.750647 59.9248 0.47912 74.6297 1.28522C75.4104 4.89992 75.1813 8.52312 74.723 12.1463L74.74 12.1039C71.906 16.3804 65.9918 17.9502 61.9104 15.0907C60.417 14.047 60.2642 14.887 59.9248 15.6762C59.4666 16.7538 59.7297 17.9247 60.103 18.9939C61.6728 23.4995 59.3393 26.953 56.5986 29.855C54.7488 31.8151 51.3887 31.7132 49.5304 30.0756C47.0697 27.9119 45.1351 24.8911 45.7036 21.1407C45.8478 20.1988 45.9412 18.7987 47.1461 18.9515C48.4273 19.1212 47.6127 20.5891 47.9606 21.2764C47.8673 19.0448 47.7315 16.5926 45.6866 15.0058C44.1508 13.8009 44.0405 16.5926 42.7083 16.3974C39.6197 16.8047 36.531 16.635 33.4509 16.5586C31.0581 16.4992 29.8871 15.3962 30.0907 12.8506C30.4047 8.96435 29.675 5.0272 30.498 1.14097Z" fill="#010101"/>
<path d="M30.498 1.14087C30.549 4.94225 30.7271 8.75212 30.6083 12.5535C30.5405 14.7681 31.2532 15.5912 33.4933 15.4809C37.0062 15.3027 40.5361 15.3536 44.0574 15.3027C45.0247 15.4639 45.449 15.8373 44.6259 16.7113C42.6828 17.8398 40.5361 17.5258 38.4487 17.5513C31.8217 17.6362 31.8217 17.6107 31.8132 24.4243C31.8132 26.6729 31.8472 28.9215 31.7793 31.1701C32.0678 54.7421 31.8387 78.3055 31.9066 101.869C31.932 110.193 31.8981 118.517 31.9151 126.85C31.932 133.264 35.0037 135.369 41.3337 133.476C42.8356 133.027 43.3192 132.085 43.4635 130.719C43.6247 129.166 43.5738 127.622 43.5738 126.069C43.5738 96.8542 43.5738 67.6481 43.5823 38.4335C43.5823 36.1764 43.438 33.9193 43.8538 31.6707C43.9896 31.1277 44.2271 30.627 44.5496 30.1688C45.5169 29.2609 45.9751 30.067 46.4757 30.7373C46.6963 31.2465 46.8406 31.781 46.9 32.3411C47.1206 62.0478 46.9339 91.7631 47.0018 121.47C47.0103 124.991 46.9594 128.513 47.0442 132.017C47.1291 132.984 47.5449 133.672 48.614 133.807C52.1014 134.13 55.6313 133.468 59.1018 134.249C59.5769 134.435 59.9588 134.741 60.2642 135.14C60.4509 135.674 60.3067 136.09 59.8315 136.395C57.1417 137.643 54.2652 137.185 51.482 137.125C48.1813 137.049 46.8491 138.44 47.0612 141.665C47.18 143.489 47.197 145.347 46.9594 147.163C46.7897 148.495 46.9 150.108 44.9993 150.455C42.9374 148.02 43.8368 145.084 43.718 142.352C43.5144 137.524 43.3277 137.235 38.7457 137.151C31.7623 137.023 31.7793 137.023 31.7793 144.134C31.7793 146.247 31.9151 148.351 32.0593 150.464C31.8811 153.553 31.7793 156.641 31.8048 159.738C31.8217 162.123 32.7551 163.412 35.2837 163.429C46.6794 163.489 58.075 163.455 69.4707 163.446C72.169 163.446 73.2042 162.055 73.323 159.535C73.4672 156.438 73.2381 153.349 73.1193 150.252C73.4248 146.73 73.306 143.201 73.3824 139.671C73.4163 137.982 73.3824 136.26 74.6127 134.86C79.5257 132.772 84.6847 134.342 89.6995 133.824C92.0923 133.799 94.5445 133.315 96.7168 134.826C99.2623 134.944 101.808 135.055 104.345 135.174C99.6102 136.455 94.7567 135.309 89.9965 135.912C87.663 137.736 84.9138 137.117 82.3004 137.176C76.9886 137.303 76.9207 137.38 76.7765 142.564C76.7086 145.169 77.3874 147.918 75.5631 150.26C75.4952 154.477 75.3425 158.703 75.3849 162.92C75.4104 164.88 74.8419 165.652 72.7545 165.636C59.3563 165.559 45.9666 165.559 32.5684 165.644C30.2095 165.661 29.7259 164.651 29.7598 162.589C29.8277 158.508 29.7174 154.418 29.675 150.328C27.6046 147.587 28.4361 144.38 28.4192 141.376C28.4022 138.322 27.2143 137.151 24.1765 137.142C21.1643 137.125 17.9738 137.94 15.2161 135.912C10.439 135.284 5.57692 136.463 0.833679 135.174C5.63632 135.106 10.4474 135.046 15.2501 134.978C17.592 133.146 20.3582 133.782 22.9801 133.689C27.8761 133.519 28.2749 133.247 28.2919 128.351C28.3428 111.763 28.3173 95.1827 28.3089 78.594C28.3089 77.6097 28.3852 76.6255 28.4192 75.6412C28.241 65.8153 28.224 55.9809 28.4192 46.155C28.2919 41.0978 28.2495 36.0406 28.4276 30.9919C28.3173 28.353 28.4022 25.7056 28.3767 23.0582C28.3258 17.8143 28.1476 17.6956 23.0226 17.5343C20.443 17.458 17.6853 18.1877 15.4028 16.2446C18.6272 14.4796 22.1401 15.3536 25.4239 15.5658C29.3865 15.8203 29.972 14.293 29.9041 10.8649C29.8447 7.66601 28.9452 4.29737 30.498 1.14087Z" fill="#78663D"/>
<path d="M44.9484 16.3634C44.6514 16.007 44.3544 15.6591 44.0659 15.3028C43.5398 14.5476 41.7664 13.3172 44.1677 13.2493C45.8902 13.2069 48.317 13.6481 48.334 16.4483C48.351 18.9005 48.3425 21.3612 47.6297 23.8304C47.5533 22.4982 47.477 21.1745 47.3667 19.0957C45.8054 26.1893 48.7073 30.2877 54.2652 29.8464C54.8252 29.804 55.8689 29.838 55.8858 29.7192C56.4289 25.9602 61.4267 23.5674 59.0508 18.8496C58.2108 17.178 57.7611 15.0737 59.84 13.5039C61.6558 12.1378 61.8934 12.0444 62.6061 14.5136C63.0219 15.9476 63.8704 15.2603 64.5153 15.3537C68.4525 15.9391 71.7702 14.4967 74.757 12.0784C74.8079 15.0482 76.1995 15.9307 79.2032 15.761C82.6567 15.5658 87.1709 14.1827 89.3601 16.338C91.5577 18.4932 89.8437 23.0073 90.0474 26.4778C90.1322 27.8779 89.988 29.2864 89.954 30.6865C89.7843 30.8562 89.6146 31.0174 89.4534 31.1956C85.6011 32.5278 81.6385 31.9168 77.7268 31.7217C75.4188 31.6114 74.2903 30.101 73.9594 27.8609C73.603 25.485 73.4757 23.0922 73.3824 20.6909C73.306 18.6375 72.2793 17.5938 70.2174 17.5513C69.3689 17.5344 68.5288 17.5174 67.6803 17.5089C61.6643 17.4835 61.6134 17.6107 61.4522 23.6183C61.3843 26.2063 62.2158 29.0403 59.9672 31.238C55.2155 32.0187 50.4638 32.7823 45.8139 30.7289C45.6017 30.4404 45.3981 30.1434 45.186 29.8549C42.6319 25.4087 43.0392 20.8945 44.9484 16.3634Z" fill="#0C0A0A"/>
<path d="M96.7168 134.843C94.4682 134.885 92.2196 134.919 89.9625 134.962C89.5977 134.58 89.3092 134.147 89.0801 133.672C88.2146 129.302 88.7491 124.89 88.6813 120.494C88.537 115.496 88.537 110.507 88.6813 105.509C88.554 103.626 88.6049 101.742 88.6728 99.8497C88.3758 78.3821 88.5794 56.9229 88.5625 35.4553C88.5625 33.7498 88.7067 32.0527 89.954 30.6951L89.9371 30.7036C92.4741 30.746 95.0197 30.7799 97.5568 30.8223C94.2815 34.6662 93.4415 39.4179 93.3906 44.1357C93.2039 61.3692 93.3312 78.6027 93.2972 95.8362C93.2887 97.9575 94.0948 100.401 91.3202 101.742C90.8704 101.963 90.8535 103.269 90.811 104.084C90.7347 105.492 91.0401 106.96 90.7432 108.309C89.0885 115.946 93.4669 122.675 93.9251 129.998C94.0439 131.881 97.2768 132.331 96.7168 134.843Z" fill="#070604"/>
<path d="M15.2246 135.929C19.1703 135.895 23.1159 135.929 27.053 135.81C29.0555 135.751 29.8616 136.591 29.8277 138.525C29.7513 142.471 29.7259 146.408 29.6835 150.354C25.7293 150.345 21.7752 150.243 17.8296 150.371C15.8356 150.439 15.1058 149.862 15.1822 147.783C15.3264 143.829 15.2246 139.874 15.2246 135.929Z" fill="#020203"/>
<path d="M15.4113 16.2785C19.1787 16.2785 22.9547 16.4058 26.7136 16.2446C29.1319 16.1428 29.9295 17.144 29.8532 19.4096C29.7174 23.1685 29.7089 26.936 29.6495 30.7034C24.8469 32.8417 20.0442 32.8247 15.2416 30.6949L15.284 30.7204C15.318 25.9008 15.3604 21.0896 15.4113 16.2785Z" fill="#020103"/>
<path d="M75.5631 150.277C75.5376 146.34 75.5631 142.403 75.4528 138.474C75.3934 136.463 76.2165 135.742 78.185 135.801C82.1222 135.92 86.0593 135.895 89.9965 135.929C90.005 139.722 89.8777 143.532 90.0813 147.316C90.2171 149.794 89.3092 150.43 86.9588 150.311C83.1659 150.125 79.3645 150.269 75.5631 150.277Z" fill="#070604"/>
<path d="M74.7231 12.1462C74.6976 8.52306 74.6637 4.90835 74.6297 1.28516C75.3934 4.89986 75.317 8.51457 74.7231 12.1462Z" fill="#0C0A0A"/>
<path d="M29.675 75.5311C29.7174 94.3683 29.7259 113.206 29.8447 132.043C29.8617 134.486 28.9622 135.225 26.6458 135.123C22.8529 134.962 19.06 135.03 15.2586 135.004C15.3349 115.233 15.4113 95.4629 15.4877 75.6923C20.197 73.554 24.9317 73.7577 29.675 75.5311Z" fill="#FABB04"/>
<path d="M29.675 75.5311C24.9402 75.582 20.2139 75.6329 15.4792 75.6838C15.4707 65.7561 15.4622 55.8199 15.4537 45.8922C20.1885 43.9745 24.9148 44 29.6495 45.8837C30.1926 55.7605 30.1332 65.6458 29.675 75.5311Z" fill="#FCFCFC"/>
<path d="M29.658 45.8751C24.9232 45.8836 20.1885 45.8836 15.4622 45.8921C15.3858 40.8264 15.3095 35.7607 15.2331 30.6951C20.0357 30.6951 24.8384 30.6951 29.641 30.7036C29.6495 35.7523 29.6495 40.8179 29.658 45.8751Z" fill="#FBBD04"/>
<path d="M44.9144 30.8053C44.906 63.974 44.8211 97.1428 44.9738 130.303C44.9908 134.24 43.8877 135.258 40.0694 135.165C30.5829 134.936 30.5744 135.114 30.5744 125.653C30.5574 94.0372 30.5405 62.4297 30.5235 30.8137C35.3177 28.5482 40.1203 28.5567 44.9144 30.8053Z" fill="#010101"/>
<path d="M73.7133 150.43C75.2237 154.69 74.1545 159.077 74.2988 163.395C74.3497 164.974 73.0854 164.728 72.1945 164.728C59.0593 164.77 45.9242 164.77 32.789 164.77C31.7708 164.77 30.6253 164.702 30.6932 163.328C30.9138 159.009 29.7938 154.605 31.372 150.362C35.8268 148.173 40.3154 148.453 44.8211 150.159C46.62 146.561 45.3557 142.742 45.5593 139.034C45.6866 136.752 46.2042 135.691 48.6989 135.835C52.4918 136.056 56.3101 135.988 60.1115 136.048C62.4364 138.695 61.4012 141.911 61.4522 144.872C61.5031 147.918 62.6825 149.072 65.7117 149.081C68.41 149.098 71.3459 148.266 73.7133 150.43Z" fill="#020202"/>
<path d="M89.8437 100.274C89.8352 101.971 89.8268 103.668 89.8268 105.374C87.4848 107.257 84.7102 106.485 82.1052 106.553C76.6747 106.697 76.7086 106.621 76.6916 111.856C76.6831 114.512 76.9886 117.193 76.2843 119.824C76.1061 120.291 75.8346 120.681 75.4782 121.012C75.0794 121.283 74.6382 121.478 74.163 121.597C71.2526 122.081 68.3082 121.894 65.3808 121.852C62.4789 121.801 61.4437 123.099 61.4267 125.899C61.4097 128.801 61.9867 131.78 60.7055 134.58C60.5358 134.741 60.366 134.911 60.1879 135.072C59.8909 135.021 59.6024 134.962 59.3054 134.911C57.5574 134.58 55.8095 134.164 54.0276 134.512C51.1171 135.08 49.7001 134.198 50.5317 130.829C50.2432 132.883 49.6237 134.486 47.5024 134.902C46.8067 134.978 46.0854 135.114 45.7799 134.215C46.4588 133.349 46.2212 132.323 46.2212 131.364C46.2466 98.6447 46.1957 65.9342 46.2636 33.2151C46.2636 32.6466 46.2212 32.0951 45.9666 31.5775C45.9412 31.2975 45.8818 31.0175 45.7799 30.7544C50.5826 30.7205 55.3852 30.6865 60.1794 30.6526C60.7055 31.5605 60.5527 32.2733 59.5345 32.6296C58.4569 33.0115 57.3114 32.9945 56.1913 33.1642C50.7523 33.9873 50.5147 34.1824 50.5062 39.4687C50.4808 64.6274 50.4892 89.7946 50.4977 114.953C50.4977 116.082 50.4638 117.227 50.7353 118.33C51.4141 121.105 53.0772 121.869 55.2919 120.078C57.9732 117.915 60.7564 116.973 64.2523 117.092C68.5034 117.236 67.7567 113.511 68.1979 110.923C68.724 107.834 66.7724 107.401 64.3456 107.512C63.0728 107.571 61.8 107.503 60.5358 107.393C58.0411 107.172 56.7004 105.849 56.4968 103.337C56.4034 102.209 56.3695 101.08 56.3695 99.9515C56.361 83.9823 56.3356 68.0046 56.378 52.0354C56.4034 43.8386 58.109 42.201 66.4245 42.1501C68.5458 42.1416 70.6841 41.9634 72.763 42.4216C74.6552 42.8459 76.3862 43.5586 75.6395 46.1127C72.5424 48.1406 69.0634 47.1818 65.7542 47.2497C62.691 47.3176 61.5031 48.514 61.5116 51.5602C61.5625 67.6312 61.537 83.7022 61.5285 99.7733C61.5285 102.811 62.8013 104.203 65.839 104.041C69.2331 103.855 73.0854 105.043 75.054 100.817C79.899 97.9659 84.8374 98.229 89.8437 100.274Z" fill="#FABB04"/>
<path d="M73.7133 150.43C70.0731 150.405 66.433 150.294 62.8013 150.396C60.8327 150.456 60.0775 149.845 60.1369 147.791C60.2557 143.88 60.1369 139.959 60.12 136.048C60.1454 135.725 60.1709 135.403 60.2048 135.08L60.2557 135.038C63.2765 133.01 66.5603 134.164 69.7592 134.249C71.1338 134.351 72.5339 134.274 73.9 134.503C74.2818 134.631 74.5788 134.86 74.7824 135.208C74.757 138.848 74.7994 142.488 74.6806 146.12C74.6297 147.588 75.1643 149.251 73.7133 150.43Z" fill="#FABE06"/>
<path d="M44.8211 150.159C40.3409 150.226 35.8522 150.294 31.372 150.362C29.6156 146.154 30.9647 141.75 30.6083 137.456C30.5235 136.446 31.2278 135.963 32.2036 135.886C32.6278 135.852 33.0521 135.861 33.4764 135.835C44.9993 135.08 44.9993 135.08 44.8975 146.357C44.8805 147.621 44.8466 148.886 44.8211 150.159Z" fill="#FCBF07"/>
<path d="M44.9144 30.8053C40.1118 30.8053 35.3177 30.8138 30.515 30.8138C30.5235 27.3009 30.7187 23.7795 30.498 20.2921C30.3114 17.2798 31.092 15.9052 34.4097 16.2022C37.8972 16.5161 41.427 16.3295 44.9399 16.3719C45.0078 20.8776 45.0842 25.3832 45.152 29.8889C45.0757 30.1859 44.9993 30.4913 44.9144 30.8053Z" fill="#FCBE06"/>
<path d="M45.9751 31.5774C46.5691 31.6877 46.9679 31.9423 46.9679 32.655C46.8576 64.9074 46.7642 97.1682 46.6285 129.421C46.62 131.033 47.2733 132.832 45.7884 134.223C45.729 118.025 45.6527 101.827 45.6272 85.6283C45.6017 69.2858 45.6017 52.9432 45.6272 36.6006C45.6272 34.9206 45.8478 33.249 45.9751 31.5774Z" fill="#FEBF01"/>
<path d="M47.5109 134.911C48.334 133.629 49.7171 132.645 49.2589 130.736C49.0468 129.862 49.0637 128.436 50.4468 128.513C52.1693 128.615 52.373 130.541 51.9572 131.381C50.4468 134.469 51.8129 134.41 54.1803 133.858C56.0131 133.426 57.7187 134.011 59.3224 134.911C55.3767 134.911 51.4481 134.911 47.5109 134.911Z" fill="#FEBF01"/>
<path d="M89.8268 134.198C89.9371 134.436 89.988 134.69 89.9625 134.953C84.8968 135.038 79.8396 135.123 74.774 135.208L74.6636 135.072C74.5024 134.054 75.2152 133.697 75.9534 133.349C80.6203 133.01 85.3296 131.839 89.8268 134.198Z" fill="#FABE06"/>
<path d="M89.8437 100.274C85.0581 100.673 80.1706 99.3914 75.4698 101.131C73.9339 99.5357 74.1376 97.4907 74.1291 95.5561C74.0867 80.9361 74.0867 66.316 74.1291 51.696C74.1376 49.7528 73.9339 47.7164 75.4358 46.1042C75.4273 45.9599 75.4697 45.7902 75.4019 45.6884C74.18 43.6095 65.245 42.3368 60.96 43.635C57.8459 44.5769 57.6593 47.063 57.6677 49.7444C57.6932 67.1306 57.7526 84.5168 57.6253 101.895C57.5999 105.085 58.3041 106.816 61.8255 106.231C62.2413 106.163 62.691 106.146 63.0898 106.231C65.2875 106.723 68.9191 104.864 69.4792 107.215C70.2853 110.592 69.8949 114.58 68.1385 117.906C67.307 119.484 65.3638 119.179 63.8959 118.585C60.2727 117.117 58.075 119.417 55.7077 121.428C54.9185 122.089 55.4107 124.72 53.4082 123.354C51.9063 122.327 49.3862 122.174 49.2334 119.612C49.1655 118.483 49.208 117.355 49.208 116.218C49.208 90.9147 49.208 65.6202 49.208 40.3173C49.208 31.7557 49.3268 31.6199 58.1175 31.6369C59.0339 31.6369 60.1624 32.3836 60.1963 30.6526C60.2048 26.7239 60.3066 22.7868 60.1879 18.8581C60.12 16.7538 60.6291 15.7271 62.9625 15.9392C65.0499 16.1259 67.1712 15.9732 69.284 15.9732C75.0031 15.9732 75.0031 15.9732 75.02 21.8958C75.054 30.7714 75.054 30.7714 84.0568 30.7714C86.0254 30.7714 87.9855 30.729 89.954 30.7035C89.9116 53.8852 89.8777 77.0753 89.8437 100.274Z" fill="#FEBF01"/>
<path d="M75.4697 120.664C75.351 116.345 75.317 112.017 75.0794 107.698C74.9691 105.637 76.0892 105.382 77.6504 105.382C81.7064 105.382 85.7623 105.382 89.8183 105.374C89.8183 110.439 89.8268 115.505 89.8268 120.571C85.0581 122.794 80.2724 122.709 75.4697 120.664Z" fill="#FDFCF8"/>
<path d="M75.4698 120.664C80.2554 120.63 85.0411 120.604 89.8353 120.571C89.8353 125.119 89.8353 129.658 89.8268 134.206C85.0326 134.198 80.2385 134.198 75.4443 134.198C73.3485 129.65 73.6454 125.127 75.5376 120.604L75.4698 120.664Z" fill="#FEBF01"/>
<path d="M75.4358 46.0958C75.4443 64.4409 75.4528 82.7775 75.4698 101.123C75.7498 104.084 74.7061 105.399 71.4393 105.442C60.2303 105.594 60.2303 105.705 60.2303 94.6059C60.2303 79.7907 60.3321 64.984 60.1539 50.1772C60.1115 46.8171 61.0958 45.6461 64.439 45.9092C68.0876 46.1977 71.7702 46.0534 75.4358 46.0958Z" fill="#D48003"/>
<path d="M70.4295 135.123C67.0354 135.589 63.6413 135.411 60.2557 135.029C60.2303 131.219 60.3491 127.401 60.1369 123.608C59.9927 121.131 60.96 120.392 63.268 120.511C67.0609 120.715 70.8538 120.766 74.6552 120.884C75.4273 125.814 73.1872 133.366 70.4295 135.123Z" fill="#FCFCFC"/>
<path d="M70.4295 135.123C70.7944 134.707 71.5156 134.257 71.4817 133.884C70.9641 129.158 74.7825 125.5 74.6552 120.893C74.9522 120.8 75.2491 120.698 75.5461 120.604C74.8843 125.127 75.1134 129.658 75.4528 134.198C75.1897 134.495 74.9352 134.792 74.6721 135.08C73.2636 135.691 71.8466 135.394 70.4295 135.123Z" fill="#FDFCF8"/>
</g>
<defs>
<clipPath id="clip0_26_1103">
<rect width="105.166" height="164.893" fill="white" transform="translate(0.0275879 0.767578)"/>
</clipPath>
</defs>
</svg>
