<svg width="106" height="165" viewBox="0 0 106 165" fill="none" xmlns="http://www.w3.org/2000/svg">
<g clip-path="url(#clip0_57_104)">
<path d="M89.918 30.0379C93.5836 30.0209 97.2747 30.2415 100.915 29.9106C104.292 29.6136 105.132 30.7676 105.124 34.0684C105.005 63.5545 105.098 93.0407 104.996 122.518C104.979 126.506 105.904 130.588 104.351 134.508C99.4554 134.898 94.5594 135.11 89.6635 134.364C88.6283 133.057 88.5689 131.496 88.5689 129.951C88.5773 111.691 88.3737 93.4225 88.6537 75.1623C88.501 65.3364 88.4501 55.502 88.6707 45.6762C88.8743 40.6614 87.89 35.5872 89.358 30.6234C89.5531 30.4282 89.7398 30.233 89.918 30.0379Z" fill="#010101"/>
<path d="M0.84851 134.516C-0.543068 133.244 0.195147 131.589 0.195147 130.146C0.144236 98.6832 0.152721 67.2115 0.161206 35.7482C0.161206 29.9359 0.161207 29.9274 5.9651 29.9868C6.80514 29.9953 7.64518 30.0886 8.4937 30.148C12.4393 34.0936 13.6782 39.3629 13.8139 44.4371C14.2552 60.9663 14.0006 77.5125 13.9582 94.0587C13.9582 95.0515 13.9752 96.1037 13.5509 96.9861C12.363 99.4554 11.9217 101.628 14.4334 103.715C15.6383 104.725 15.4176 106.566 15.6128 108.11C16.5038 115.297 14.5097 122.077 12.7533 128.882C12.1339 131.266 10.2162 132.896 8.51916 134.601C5.95662 134.864 3.40256 134.991 0.84851 134.516Z" fill="#020102"/>
<path d="M34.7894 0.373506C48.0943 0.118949 61.3991 -0.0762111 74.6955 0.466844C75.544 3.81002 74.8482 7.2126 75.0773 10.5728C74.4918 12.9062 72.9984 13.6868 70.665 13.3559C68.0006 12.9826 65.3193 13.305 62.6465 13.3898C58.7093 13.5171 56.9189 15.7148 58.4887 19.1513C60.2451 22.9951 58.0305 25.7528 56.6135 28.6039C55.3576 31.1409 50.8774 30.7931 49.0277 28.256C47.5258 26.1941 46.55 23.9285 46.3548 21.2641C45.7439 13.0589 45.5996 12.9995 37.2162 13.4747C36.8598 13.602 36.5119 13.7547 36.181 13.9584C32.8463 16.3342 32.2693 12.4989 30.462 11.4213L30.4789 11.4637C29.9104 10.4285 30.2329 9.29997 30.1395 8.22234C29.8086 4.48884 29.4353 0.729886 34.7894 0.373506Z" fill="#010101"/>
<path d="M30.462 11.4212C31.9045 11.3278 32.9227 12.1339 33.5337 13.2624C34.5095 15.0613 34.9592 13.2285 35.7568 13.1946C37.1484 14.2722 38.5739 13.7546 39.8891 13.9752C38.4636 13.7291 36.8599 14.3401 35.7568 13.1946C38.1751 11.3363 41.111 12.38 43.8262 12.083C45.2687 11.9218 46.3209 13.6019 46.8215 15.5535C47.8143 19.4227 46.8894 23.6314 49.435 27.28C50.8096 29.2571 52.3115 29.2147 54.1188 29.1553C55.8922 29.0959 56.2401 27.8486 56.6474 26.3552C57.4111 23.5805 58.3699 21.281 57.1056 17.9802C55.6716 14.2383 57.8438 12.1509 62.0525 12.3291C65.3278 12.4733 68.6201 11.0987 71.9208 12.4988C72.4893 12.7448 73.5754 11.769 74.424 11.3533C75.4931 15.4092 74.967 15.9098 69.7995 15.6892C67.237 14.4334 64.666 13.1012 62.0186 15.5195C61.6282 16.0626 61.6198 16.699 61.5519 17.3269C60.9494 21.6628 62.7907 26.2533 60.1264 30.3602C55.188 31.8536 50.2241 31.5227 45.2518 30.5808C43.2238 28.7225 43.7923 26.2364 43.7499 23.9454C43.6226 17.0129 43.665 17.0129 36.6053 16.8008C34.8743 17.0638 32.6172 15.9183 31.7772 18.6081C31.5057 22.2483 31.7857 25.9309 30.6062 29.4692C25.88 32.6088 20.8228 31.2681 15.8165 30.5638C15.6383 30.3941 15.4601 30.2159 15.2904 30.0377C15.2565 25.9648 15.3244 21.8834 15.1462 17.8105C15.0443 15.5789 15.825 14.8492 18.0311 14.9849C20.6955 15.1547 23.4023 14.7558 26.0327 15.0783C29.028 15.4432 30.4111 14.3825 30.462 11.4212Z" fill="#0A0908"/>
<path d="M68.7134 14.6626C70.9026 14.0517 75.2385 17.1488 74.4154 11.3533C74.5088 7.72167 74.5936 4.09848 74.687 0.466797C76.2483 3.6233 75.3403 6.99194 75.2809 10.2163C75.2131 13.6444 75.7985 15.1717 79.7611 14.9171C83.0449 14.705 86.5578 13.831 89.7822 15.596C87.033 17.7427 83.8001 16.7924 80.7709 16.8518C77.8689 16.9112 76.7065 18.0736 76.7743 20.9332C76.8507 24.0388 76.8592 27.1444 76.7404 30.2584C76.9101 35.3156 76.8931 40.3643 76.7574 45.4131C76.944 55.2474 76.9525 65.0733 76.7659 74.8992C76.995 92.0648 76.7998 109.23 76.8677 126.396C76.8931 132.904 76.9271 132.913 83.4607 133.023C85.6838 133.065 88.0088 132.718 89.9349 134.313C94.7376 134.372 99.5487 134.44 104.351 134.508C99.6081 135.798 94.746 134.627 89.9689 135.246C87.2112 137.274 84.0122 136.468 81.0085 136.477C77.9623 136.493 76.7743 137.664 76.7659 140.711C76.7489 143.714 77.5804 146.913 75.51 149.663C75.4676 153.6 75.3064 157.545 75.4337 161.483C75.51 163.901 74.984 165.021 72.2178 164.995C59.1166 164.86 46.0154 164.86 32.9227 164.987C30.1226 165.012 29.6728 163.867 29.7577 161.466C29.8934 157.528 29.7322 153.583 29.6898 149.646C27.6364 146.896 28.4594 143.689 28.451 140.685C28.4425 137.597 27.2036 136.485 24.1829 136.477C21.1706 136.468 17.9717 137.274 15.214 135.238C10.4453 134.644 5.59175 135.781 0.856995 134.508C3.40256 134.389 5.94813 134.27 8.4937 134.152C10.6574 132.65 13.1097 133.15 15.4855 133.159C20.5258 133.71 25.7187 132.047 30.6486 134.236C32.9906 139.141 31.5481 144.325 31.8026 149.391C31.9469 152.632 31.862 155.882 31.8705 159.124C31.8705 161.576 32.9312 162.73 35.4258 162.73C46.8639 162.738 58.302 162.772 69.7401 162.713C72.2008 162.696 73.3208 161.55 73.3378 159.098C73.3633 156.128 73.2784 153.167 73.1257 150.214C73.4227 146.981 73.4057 143.74 73.4396 140.499C73.4651 137.97 72.7014 136.723 69.8334 136.561C61.5518 136.12 61.5858 135.993 61.433 144.173C61.3991 146.099 61.7894 148.169 60.2027 149.781C57.3432 148.653 58.1917 146.073 58.1577 144.028C58.0474 136.112 58.3953 136.493 50.4786 136.477C48.807 136.477 47.1015 136.587 45.5148 135.832C45.0311 135.569 44.8105 135.17 44.8444 134.618C45.099 134.186 45.4638 133.863 45.922 133.642C49.4264 132.785 53.0072 133.286 56.5456 133.125C57.5723 132.998 58.0559 132.361 58.1323 131.351C58.2171 110.147 58.1917 88.9508 58.1323 67.7547C57.9626 66.397 57.9796 65.0479 58.1238 63.6902C58.2681 54.8656 58.1238 46.0494 58.2002 37.2248C58.2171 35.4259 57.9286 33.5592 59.0657 31.93C59.5324 31.4973 60.016 31.4803 60.5166 31.8876C61.9846 34.0429 61.5943 36.5121 61.5943 38.8794C61.6282 66.5583 61.6112 94.2456 61.6112 121.924C61.6112 123.333 61.6027 124.75 61.6112 126.158C61.6367 132.616 64.632 134.686 70.9959 132.777C72.4893 132.327 72.9899 131.402 73.1427 130.028C73.3208 128.339 73.2699 126.642 73.2699 124.945C73.2784 95.145 73.2699 65.3449 73.2784 35.5447C73.2784 33.8477 73.1766 32.1506 73.3972 30.4706C73.3124 28.2305 73.3463 25.9819 73.3463 23.7333C73.3463 16.9536 73.3463 16.9791 66.7109 16.8857C64.4962 16.8518 62.1713 17.2421 60.2366 15.6723C60.5336 15.3159 60.8391 14.9681 61.1361 14.6117C63.6731 13.9668 66.2017 13.3134 68.7134 14.6626Z" fill="#78663D"/>
<path d="M15.2225 134.279C12.9739 134.237 10.7338 134.203 8.48522 134.16C8.4937 133.88 8.39188 133.456 8.53613 133.337C12.5751 129.901 12.1423 124.563 13.7545 120.185C15.511 115.408 14.7219 109.909 13.9497 104.733C13.8903 104.352 13.5933 103.749 13.3048 103.69C8.22218 102.553 9.97862 100.287 12.2102 97.767C13.1182 96.7488 12.7278 95.3233 12.7278 94.0675C12.7448 77.6655 12.8042 61.2636 12.7024 44.8701C12.6515 39.6262 9.85982 35.0612 8.48522 30.1397C10.7508 30.1058 13.0078 30.0634 15.2734 30.0294L15.2479 30.0125C16.8262 31.8792 16.631 34.1108 16.5292 36.317C16.7498 59.0065 16.7583 81.7045 16.5462 104.394C16.6565 109.485 16.7159 114.585 16.5292 119.676C16.4528 124.114 17.0044 128.568 16.1304 132.989C15.8928 133.464 15.5958 133.897 15.2225 134.279Z" fill="#050402"/>
<path d="M15.2056 135.238C19.1427 135.204 23.0883 135.238 27.0255 135.119C29.0365 135.059 29.7747 135.857 29.7238 137.834C29.6305 141.771 29.6814 145.717 29.6729 149.654C29.5286 149.654 29.3929 149.654 29.2486 149.654C24.6411 149.391 18.3027 151.64 15.8929 148.772C13.5934 145.997 15.2734 139.879 15.2056 135.238Z" fill="#050402"/>
<path d="M75.5525 30.0124C75.6458 25.337 73.3463 19.2956 76.4265 16.3682C79.252 13.6868 85.2171 15.8421 89.7822 15.596C89.8246 20.4071 89.8671 25.2267 89.918 30.0379L89.9604 30.0039C85.1578 32.1422 80.3551 32.1592 75.5525 30.0124Z" fill="#020102"/>
<path d="M75.5101 149.671C75.4591 145.87 75.4676 142.068 75.3404 138.267C75.264 135.933 76.1719 135.009 78.5647 135.119C82.3576 135.297 86.1675 135.221 89.9689 135.255C89.9689 139.209 89.8586 143.163 90.0113 147.108C90.0877 149.187 89.3579 149.764 87.3639 149.696C83.4183 149.561 79.4642 149.663 75.5101 149.671Z" fill="#020203"/>
<path d="M34.7895 0.373377C33.9919 1.451 33.941 3.57231 31.599 2.38438C30.0547 1.60374 30.6657 3.09714 30.6402 3.60625C30.5299 6.2197 30.5214 8.84164 30.479 11.4636C29.6559 9.1471 30.4196 6.72881 30.0887 4.39538C29.5202 0.466715 31.1663 -0.687276 34.7895 0.373377Z" fill="#0A0908"/>
<path d="M89.935 134.313C86.1166 134.338 82.2983 134.262 78.4884 134.44C76.0616 134.55 75.3319 133.634 75.3489 131.267C75.4592 112.472 75.4676 93.677 75.5101 74.8822C80.2618 73.0494 84.9966 72.8797 89.7144 75.001C89.7822 94.7716 89.8586 114.542 89.935 134.313Z" fill="#FABB04"/>
<path d="M89.7059 75.001C84.9711 74.9586 80.2363 74.9247 75.5016 74.8823C75.0604 64.9885 74.984 55.0862 75.527 45.1924C80.2618 43.3172 84.9966 43.2833 89.7228 45.2094C89.7228 55.1456 89.7143 65.0733 89.7059 75.001Z" fill="#FBFBFB"/>
<path d="M89.7313 45.218C84.9966 45.2095 80.2618 45.2095 75.5355 45.201C75.544 40.1438 75.544 35.0781 75.5525 30.0209C80.3551 30.0209 85.1578 30.0209 89.9604 30.0125C89.884 35.0781 89.8077 40.1438 89.7313 45.218Z" fill="#FCBD04"/>
<path d="M15.3413 35.986C15.3074 33.992 15.2734 32.0064 15.2395 30.0124C19.1766 30.0294 23.1138 30.0463 27.0425 30.0633C28.434 30.0718 29.9444 30.3179 30.3856 28.4087C31.1408 24.9891 31.3869 21.5696 30.4705 18.1416C29.9614 12.9486 33.7118 16.0372 35.6041 15.5026C37.055 16.2069 38.1666 16.9027 37.4284 18.9731C36.3677 21.926 36.495 25.0655 36.5714 28.1881C36.6647 31.8537 35.655 32.5834 32.0487 32.4477C29.3844 32.3458 25.4557 30.5639 24.4629 33.4998C23.6738 35.8333 27.7807 37.1145 29.8596 38.6843C32.9227 41.0008 36.4695 41.6287 40.2455 41.6456C45.8118 41.6796 46.9997 42.7148 48.5355 48.1284C49.2228 50.5466 49.3841 53.194 51.3951 55.0693C52.1078 55.7311 52.846 56.656 53.9067 56.359C55.1625 56.0027 54.8231 54.7299 54.8146 53.8219C54.7552 48.1793 54.9673 42.5366 54.9843 36.8854C54.9928 34.1023 53.8473 32.7616 51.0217 32.5834C49.3416 32.4731 47.6531 32.227 45.9815 31.9979C44.7596 31.8282 44.2166 31.1579 44.9972 29.9445C50.0883 29.9869 55.1795 30.0294 60.2706 30.0718C60.3724 30.1991 60.4743 30.3263 60.5676 30.4536C60.6694 30.9627 60.61 31.4125 60.0755 31.6585C59.8803 31.684 59.6766 31.7179 59.4815 31.7434C58.2766 34.4417 58.9469 37.2842 58.9978 40.0334C59.1421 48.0181 58.3275 56.0281 59.4391 63.9957C59.4306 65.1073 59.4306 66.2189 59.4221 67.3304C58.7857 68.0432 58.9469 68.9172 58.9469 69.7487C58.9384 90.1981 58.9384 110.656 58.9469 131.105C58.9469 131.937 58.7942 132.811 59.3966 133.541C59.0912 134.44 58.3699 134.304 57.6741 134.228C55.4171 133.532 54.7467 131.827 54.7637 129.671C54.8655 111.191 54.314 92.7098 55.0692 74.2374C55.188 71.3694 55.2134 68.5693 53.2958 66.1934C52.5915 65.3194 51.709 64.3861 50.4871 64.6321C49.121 64.9037 49.0531 66.2358 48.9174 67.3389C48.6543 69.4433 48.7731 71.5646 48.7646 73.6774C48.7477 82.0014 48.8156 90.3254 48.7392 98.6494C48.6798 104.971 47.2712 106.473 41.1364 106.744C38.6672 106.855 36.6902 106.948 36.8599 110.351C37.1059 115.153 38.0223 116.613 41.5777 116.689C46.7452 116.791 48.7052 118.445 49.5198 123.46C49.7404 124.852 49.9101 126.252 50.258 127.626C51.6751 133.269 51.4545 133.583 45.8627 134.228C45.5657 134.287 45.2687 134.347 44.9802 134.398C44.8105 134.236 44.6493 134.075 44.4796 133.923C43.3086 131.513 43.8008 128.925 43.7414 126.413C43.6226 121.381 43.5293 121.246 38.4466 121.186C37.5981 121.178 36.7496 121.22 35.901 121.144C33.9919 121.11 32.0572 121.305 30.2074 120.635C29.7492 120.423 29.3929 120.1 29.1298 119.676C28.154 114.644 27.9843 109.629 29.4353 104.648C29.7917 104.284 30.199 104.021 30.6741 103.842C33.5846 103.079 36.5544 103.401 39.4988 103.401C42.2819 103.401 43.6311 102.332 43.6311 99.4216C43.6311 83.096 43.6565 66.7704 43.6141 50.4533C43.6056 47.8229 42.3753 46.618 39.7533 46.618C36.792 46.618 33.8391 46.4992 30.9457 47.2544C30.0547 47.4326 29.342 47.0677 28.6631 46.5162C24.2678 42.9693 19.8724 39.3886 15.3413 35.986Z" fill="#FABB04"/>
<path d="M45.0057 29.9529C47.3646 31.7433 50.275 31.2851 52.9054 31.6076C55.2643 31.8961 56.0619 32.6003 56.028 34.9338C55.9262 41.968 56.0025 49.0023 55.9771 56.0365C55.9771 56.9784 56.2656 58.1409 55.0607 58.6076C53.9406 59.0403 53.3382 57.9797 52.4897 57.5554C48.6713 55.6292 48.1028 51.9721 47.4834 48.3659C46.7791 44.2336 44.7426 42.2395 40.254 42.7062C32.9991 43.4614 27.8146 39.3631 22.9017 34.7471C20.7719 32.7446 22.0022 31.7773 23.8944 31.3275C26.6437 30.6657 29.4523 30.6912 32.2354 31.5227C34.467 32.1846 35.8756 31.4888 35.6041 28.8753C35.1968 25.006 34.9592 21.1792 36.809 17.5221C37.2672 16.6142 35.8247 16.3002 35.5871 15.5026C44.9378 14.671 44.9293 14.671 44.9548 23.6569C44.9802 25.7612 44.9972 27.8571 45.0057 29.9529Z" fill="#FEBF01"/>
<path d="M60.2451 15.6892C63.758 15.6553 67.2879 15.8335 70.7753 15.5195C74.093 15.2225 74.8737 16.5887 74.687 19.6094C74.4664 23.1053 74.653 26.6267 74.67 30.1396C69.8334 32.0572 65.0053 32.21 60.2112 30.0038L60.2791 30.0887C60.2706 25.286 60.2621 20.4834 60.2451 15.6892Z" fill="#FCBE06"/>
<path d="M34.8489 12.8638C37.8951 13.4153 40.3303 12.3971 42.4092 14.2553C40.0843 14.3487 37.6235 15.6639 34.8489 12.8638Z" fill="#010101"/>
<path d="M68.7134 14.6626C66.1933 14.6456 63.6647 14.6371 61.1446 14.6202C63.6817 12.9146 66.2103 11.6928 68.7134 14.6626Z" fill="#010101"/>
<path d="M30.4789 18.1416C31.9045 21.5781 32.0317 24.9977 30.3941 28.4087C30.0038 24.9892 29.9953 21.5611 30.4789 18.1416Z" fill="#FEBF01"/>
<path d="M60.2112 29.9954C65.0308 30.0378 69.8504 30.0887 74.67 30.1311C74.6531 63.3253 74.5767 96.5111 74.704 129.705C74.7209 133.303 74.0082 134.542 70.1219 134.466C60.3215 134.27 60.313 134.491 60.313 124.877C60.313 95.4929 60.313 66.117 60.3045 36.7326C60.3045 35.0441 60.1688 33.3555 60.0924 31.667C60.1348 31.1154 60.1688 30.5554 60.2112 29.9954Z" fill="#010101"/>
<path d="M45.082 135.365C48.8919 135.305 52.7018 135.373 56.4947 135.153C58.9978 135.009 59.5069 136.078 59.6342 138.36C59.8294 142.068 58.5735 145.887 60.3809 149.484C64.8866 147.77 69.3752 147.499 73.83 149.688C75.4082 153.939 74.2882 158.334 74.5088 162.662C74.5767 164.036 73.4227 164.104 72.4045 164.104C59.2608 164.113 46.1257 164.087 32.9821 164.13C31.0899 164.138 30.5553 163.349 30.6062 161.584C30.725 157.63 30.6911 153.676 30.7165 149.722C33.296 147.558 36.4016 148.407 39.2781 148.432C42.5959 148.458 43.7244 147.108 43.7329 143.893C43.7498 141.016 42.808 137.902 45.082 135.365Z" fill="#020102"/>
<path d="M45.8796 134.228C50.0968 133.498 51.098 131.368 48.8919 127.635C48.4252 126.854 48.4337 125.743 48.3743 124.775C48.0349 118.802 46.6857 117.622 40.6612 118.25C38.0987 118.522 36.1471 118.191 36.2998 114.89C36.3337 114.092 35.7992 113.278 35.6889 112.455C34.7809 105.582 34.7894 105.582 41.5946 105.539C46.8215 105.514 47.5003 104.869 47.5088 99.7184C47.5258 89.4174 47.5173 79.1163 47.5088 68.8237C47.5088 67.2709 47.6021 65.7775 48.1197 64.2587C48.9088 61.9252 50.1816 61.9337 51.9805 62.9944C55.994 65.3787 57.0716 69.3498 56.5116 73.4142C56.0789 76.5198 56.0364 79.5745 56.028 82.6462C55.9686 98.1656 56.0449 113.685 55.9431 129.205C55.9261 131.224 56.3843 132.811 57.6911 134.236C53.7539 134.228 49.8168 134.228 45.8796 134.228Z" fill="#FEBF01"/>
<path d="M45.082 135.365C45.0651 139.268 44.9548 143.171 45.0566 147.066C45.116 149.069 44.4287 149.756 42.4262 149.705C38.523 149.595 34.6197 149.697 30.7165 149.705C30.6147 144.648 30.5129 139.591 30.4026 134.542C30.5384 134.381 30.6741 134.211 30.8099 134.05C32.456 133.43 34.2209 133.524 35.9265 133.235C38.9642 133.371 42.1377 132.344 44.9378 134.355L44.9887 134.398C45.0226 134.72 45.0481 135.043 45.082 135.365Z" fill="#FABF06"/>
<path d="M73.8215 149.68C69.3413 149.612 64.8526 149.544 60.3724 149.476C60.347 145.827 60.4403 142.17 60.2621 138.521C60.1433 136.035 60.8646 134.907 63.5459 135.102C66.4394 135.306 69.3583 135.161 72.2602 135.17C73.4312 135.17 74.704 135.246 74.5767 136.841C74.2458 141.118 75.5779 145.496 73.8215 149.68Z" fill="#FCBF06"/>
<path d="M59.4136 133.541C58.1068 132.446 58.565 130.936 58.565 129.587C58.5396 110.147 58.5396 90.7072 58.565 71.276C58.565 69.9269 58.1153 68.4165 59.439 67.3389C59.4305 89.4005 59.422 111.471 59.4136 133.541Z" fill="#FEBF01"/>
<path d="M59.4475 64.0041C59.2014 63.6731 58.7347 63.3422 58.7347 63.0113C58.7008 52.9054 58.7008 42.808 58.7347 32.7021C58.7347 32.3881 59.2269 32.0657 59.4899 31.7517C59.4814 42.5025 59.4645 53.2533 59.4475 64.0041Z" fill="#FEBF01"/>
<path d="M15.2225 134.279C15.2056 134.016 15.248 133.761 15.3668 133.524C19.8639 131.165 24.5817 132.336 29.2486 132.667C29.9953 133.006 30.6996 133.379 30.5384 134.398L30.4196 134.542C25.3454 134.457 20.2882 134.372 15.2225 134.279Z" fill="#FABF06"/>
<path d="M15.3413 35.9858C21.3658 38.0732 25.7527 42.2819 29.7153 47.0421C31.0984 48.3573 31.039 50.1137 31.0475 51.7938C31.1069 67.8988 31.1153 84.0038 31.0475 100.109C31.039 101.653 31.0135 103.24 29.8765 104.504L29.6813 104.691C24.9126 106.795 20.1439 106.77 15.3753 104.682C15.3668 81.7806 15.3583 58.8875 15.3413 35.9858Z" fill="#FEBF01"/>
<path d="M15.3752 104.682C20.1439 104.682 24.9126 104.691 29.6813 104.691C30.3602 109.79 30.1395 114.882 29.7238 119.981C24.9211 122.026 20.1355 122.111 15.3583 119.888C15.3668 114.822 15.3668 109.748 15.3752 104.682Z" fill="#FCFBF8"/>
<path d="M15.3583 119.888C20.1439 119.922 24.9381 119.947 29.7238 119.981L29.6559 119.922C31.7433 124.428 31.7602 128.959 29.7747 133.498C24.972 133.507 20.1694 133.507 15.3668 133.515C15.3583 128.976 15.3583 124.436 15.3583 119.888Z" fill="#FDBE01"/>
<path d="M29.8765 104.504C29.8256 85.353 29.7747 66.2018 29.7153 47.0422C31.4547 45.5827 42.7062 44.4711 44.2165 45.6251C45.1414 46.3294 44.9632 47.3901 44.9632 48.3489C44.9717 66.117 44.9463 83.8766 45.0141 101.645C45.0226 104.122 43.9874 104.827 41.7134 104.725C37.7678 104.564 33.8221 104.572 29.8765 104.504Z" fill="#D68402"/>
<path d="M44.9378 134.355C41.5607 134.796 38.1835 134.839 34.7979 134.44C32.9142 133.362 32.4984 131.513 32.8633 129.68C33.5082 126.404 34.0258 123.053 35.638 120.041C45.0141 119.387 45.0226 119.387 45.0141 128.449C45.0057 130.409 44.9632 132.387 44.9378 134.355Z" fill="#FDFDFD"/>
<path d="M35.638 120.041C35.5786 122.764 35.7568 125.369 34.2379 128.025C33.2282 129.79 33.627 132.378 34.8064 134.448C33.3809 134.745 31.9554 135.076 30.5383 134.406C30.2838 134.109 30.0377 133.812 29.7832 133.515C30.0717 128.984 30.3432 124.453 29.6644 119.939C31.6499 119.964 33.6439 119.998 35.638 120.041Z" fill="#FCFBF8"/>
</g>
<defs>
<clipPath id="clip0_57_104">
<rect width="105.259" height="165.004" fill="white"/>
</clipPath>
</defs>
</svg>
