<svg width="149" height="166" viewBox="0 0 149 166" fill="none" xmlns="http://www.w3.org/2000/svg">
<g clip-path="url(#clip0_26_1200)">
<path d="M43.5219 151.001C43.3947 150.899 43.3098 150.78 43.2674 150.619C42.8346 150.347 42.5971 149.949 42.5461 149.44C42.5631 148.956 42.5971 148.481 42.6395 147.997C42.648 147.429 42.6904 148.133 42.648 147.573C42.3595 144.094 44.0735 139.902 41.8588 137.314C39.6866 134.769 35.4864 136.483 32.1857 136.296C29.0886 136.118 27.4509 134.845 27.4 131.705C27.3915 131.281 27.3576 130.865 27.3576 130.441C27.3321 121.192 28.0109 121.99 18.4905 121.922C16.6662 121.913 14.791 122.032 13.3145 120.624L13.3909 120.683C11.9145 119.071 11.9569 117.06 11.9569 115.083C11.9229 93.9122 11.9314 72.7415 11.9569 51.5624C11.9569 49.5853 11.9314 47.5828 13.3485 45.9452L13.2636 46.0385C18.3548 43.8324 23.4798 44.1124 28.6219 45.8094C30.6159 48.4229 29.9625 51.503 29.9116 54.3965C29.8522 57.8754 31.3032 59.1652 34.6973 59.1143C40.9 59.0124 47.1112 58.9955 53.3224 59.1312C58.5153 59.2415 59.5845 60.2428 59.5845 65.3848C59.5845 68.7111 60.3906 72.1645 58.6426 75.338C56.3855 77.7563 53.4157 76.8738 50.7004 76.9587C45.4481 77.1369 45.2105 77.2896 45.1511 82.4147C45.0663 89.5508 47.527 91.3496 54.6376 89.5762C57.1577 88.9483 56.8183 87.0731 57.0135 85.2997C57.3698 82.0329 56.0546 78.52 58.4475 75.5501C62.9022 73.4628 67.5521 74.2095 72.0917 74.8883C74.7306 75.2871 74.773 77.8666 74.8324 79.9794C74.9937 86.0379 74.7985 92.0963 74.9427 98.1463C74.9937 100.115 74.1027 102.873 76.801 103.611C79.8981 104.459 83.3686 104.799 86.3045 103.331C88.2476 102.355 87.6282 99.7331 87.3821 97.8663C86.1602 88.6004 86.873 79.2921 86.6354 70.0093C86.5505 66.7679 87.0936 63.5436 86.8984 60.3022C86.8984 55.4996 85.6511 50.6205 87.8064 45.9622C92.5751 43.9087 97.488 44.8336 102.384 45.2494C102.91 45.4785 103.343 45.8264 103.699 46.2761C104.819 48.2107 104.633 50.366 104.633 52.4618C104.658 73.03 104.658 93.5897 104.633 114.158C104.633 116.254 104.819 118.401 103.716 120.352C102.265 122.066 100.22 121.829 98.2941 121.964C95.6637 122.151 92.9739 121.549 90.4283 122.601C88.307 124.366 89.2573 126.775 89.2149 128.888C89.0707 135.94 88.8416 136.152 81.9091 136.321C79.686 136.372 77.081 135.269 75.35 137.747C74.527 140.802 75.1294 143.924 74.824 146.996C74.5948 149.295 73.8566 151.357 71.2347 151.425C62.0113 151.697 52.7454 152.418 43.5219 151.001Z" fill="#FEBF01"/>
<path d="M58.3287 75.7281C58.3372 71.7825 58.2268 67.8284 58.3881 63.8827C58.4899 61.3202 57.5989 60.3953 55.0025 60.4377C47.527 60.565 40.0515 60.3359 32.5845 60.548C29.3601 60.6414 28.3758 59.5383 28.554 56.4242C28.7576 52.9198 28.5031 49.3815 28.4522 45.8601C28.6388 45.7074 28.8255 45.5631 29.0122 45.4104C32.1687 44.2649 35.4525 44.8164 38.6684 44.8079C41.5703 44.7995 42.7413 43.6115 42.6564 40.735C42.5631 37.3494 42.7243 33.9553 41.9776 30.6122C41.6806 28.6521 41.7485 26.675 41.7485 24.7064C41.7231 17.7146 41.7231 17.7146 34.9179 17.6213C33.5094 17.6043 32.0923 17.6807 30.7177 17.3073C29.9286 17.0952 29.0207 16.934 28.9952 15.8139C33.8318 14.906 38.8126 16.5267 43.6068 14.9315C47.0094 13.5653 50.5732 14.2017 54.0691 14.1508C59.279 14.0744 64.4974 14.0914 69.7158 14.1678C73.1863 14.2187 74.9852 15.8563 74.8918 19.3438C74.7985 22.9755 75.6046 26.675 74.0942 30.1964C73.7718 30.6546 73.3221 30.8752 72.762 30.8582C70.6747 28.2702 71.4893 25.1816 71.5147 22.3136C71.5402 18.8941 70.2759 17.4855 66.7884 17.5873C61.1542 17.757 55.5116 17.7401 49.8774 17.5958C46.4578 17.5025 44.8371 18.7753 45.185 22.2797C45.2699 23.1197 45.2699 23.9767 45.185 24.8167C44.8456 28.3127 46.4578 29.5854 49.8774 29.5261C52.7708 29.4751 55.8255 28.8387 58.5408 30.5697C60.3397 33.565 59.6184 36.8743 59.576 40.0392C59.5251 43.4333 60.713 44.8504 64.2174 44.7825C67.3739 44.7231 70.7001 44.0019 73.6784 45.8771C75.1379 47.6675 74.8918 49.8227 74.9003 51.8931C74.9343 59.5129 74.6882 59.0971 82.3334 59.165C84.3613 59.1819 86.6015 58.7407 88.1203 60.7517C88.1118 68.7448 88.29 76.7464 88.0185 84.731C87.8233 90.3821 88.9349 95.923 88.8925 101.549C88.8755 104.357 88.2136 105.486 85.1335 105.511C73.5681 105.596 73.5766 105.706 73.5766 94.2005C73.5766 89.4148 73.339 84.6122 73.653 79.8435C73.8821 76.3221 72.4905 75.4651 69.3001 75.6518C65.6514 75.8724 61.9773 75.7027 58.3202 75.7027L58.3287 75.7281Z" fill="#D58101"/>
<path d="M118.659 30.6123C122.757 30.6462 126.855 30.7311 130.945 30.6717C132.736 30.6462 133.457 31.1893 133.364 33.09C133.211 36.1956 133.44 39.3097 133.262 42.4153C133.117 44.876 133.669 46.0385 136.469 45.7754C139.414 45.4954 142.4 45.8009 145.37 45.6821C147.398 45.6057 148.382 46.0045 148.374 48.4143C148.281 71.5875 148.281 94.7691 148.365 117.942C148.374 120.42 147.322 120.624 145.336 120.59C141.246 120.522 137.148 120.666 133.05 120.725C132.854 120.53 132.659 120.335 132.456 120.148C131.7 118.884 131.624 117.467 131.633 116.059C131.641 102.686 131.463 89.3131 131.709 75.9404C131.531 68.1764 131.7 60.4124 131.616 52.6484C131.599 50.8411 131.879 48.9404 130.555 47.3961C128.442 45.6736 125.947 46.4712 123.631 46.3863C118.099 46.1827 117.276 45.5633 117.411 39.9206C117.496 36.815 116.342 33.4549 118.659 30.6123Z" fill="#020202"/>
<path d="M43.5219 151.001C48.1973 149.652 52.9745 150.644 57.7008 150.39C59.9493 150.262 62.2149 150.364 64.4635 150.364C73.5681 150.364 73.5597 150.364 73.4748 141.031C73.4578 139.342 73.5597 137.653 73.6021 135.965C77.7683 135.023 81.994 135.736 86.1942 135.541C88.8415 135.413 88.8925 137.399 89.164 139.257C89.6052 142.261 88.2561 145.468 90.1992 148.285C92.6429 149.753 95.3243 148.913 97.8953 149.117C99.5329 149.244 101.213 149.024 102.749 149.838C102.927 150.008 103.097 150.178 103.266 150.347C103.3 154.429 103.207 158.51 103.411 162.583C103.521 164.764 102.936 165.485 100.653 165.476C82.6388 165.392 64.6162 165.392 46.6021 165.485C44.1923 165.493 43.4031 164.798 43.5135 162.388C43.6916 158.595 43.5389 154.794 43.5219 151.001Z" fill="#010101"/>
<path d="M73.6191 30.782C73.6191 26.8533 73.4833 22.9246 73.653 19.0045C73.7718 16.4419 72.9233 15.5849 70.3183 15.6443C62.8852 15.797 55.4522 15.7207 48.0191 15.6698C46.5257 15.6613 44.905 16.1534 43.5983 14.9316C42.4443 10.672 43.505 6.37844 43.3607 2.11037C43.3013 0.243623 44.625 0.939412 45.3548 0.939412C63.9544 0.896986 82.554 0.947897 101.145 0.880015C103.088 0.87153 103.487 1.55883 103.445 3.29831C103.343 7.3797 103.411 11.4611 103.402 15.551C100.322 17.6553 96.8431 16.5777 93.5593 16.6031C90.2246 16.6201 89.181 17.9184 89.1131 21.1343C89.0452 24.5114 90.3774 28.2449 87.3906 31.1638C83.0122 32.5469 78.6169 32.4026 74.2045 31.3335C74.0094 31.1468 73.8142 30.9602 73.6191 30.782Z" fill="#010101"/>
<path d="M13.3485 45.9537C13.4333 58.4779 13.5691 71.0021 13.5776 83.5263C13.5861 95.9147 13.4588 108.303 13.3909 120.692C9.86104 120.649 6.3227 120.488 2.80133 120.607C0.739416 120.675 0.128479 119.945 0.128479 117.942C0.17939 94.7692 0.187876 71.596 0.136964 48.4229C0.128479 46.4458 0.705474 45.5888 2.76739 45.6821C6.29724 45.8519 9.8271 45.8688 13.3485 45.9537Z" fill="#020202"/>
<path d="M13.3145 120.632C17.5571 120.615 21.7998 120.683 26.0339 120.539C28.0958 120.471 28.7407 121.226 28.6558 123.229C28.5201 126.334 28.7407 129.448 28.5795 132.554C28.4692 134.726 29.0971 135.575 31.3881 135.447C34.6294 135.269 37.8878 135.439 41.1376 135.405C42.6225 135.388 43.7001 135.761 43.5813 137.492C43.3098 141.54 44.1923 145.63 43.1062 149.643C42.5207 149.117 42.1643 148.379 41.4685 147.946C41.6637 148.829 42.7158 148.913 43.1316 149.592C43.1741 149.932 43.225 150.28 43.2674 150.619C39.5424 150.534 35.8089 150.517 32.0839 150.314C30.9978 150.254 29.5637 151.154 28.8255 149.516C33.7215 148.854 37.0392 145.986 39.7036 142.006C40.9424 140.148 41.6043 139.257 38.6599 138.29C35.3676 137.212 32.0329 137.374 28.7492 136.78C27.4594 134.022 25.0326 135.515 23.2253 135.524C13.5861 135.583 13.603 135.676 13.5776 126.02C13.5776 124.23 13.4079 122.431 13.3145 120.632Z" fill="#060506"/>
<path d="M28.4522 45.8602C23.395 45.9196 18.3293 45.979 13.2721 46.0384C13.9849 42.008 13.6455 37.9266 13.5267 33.8876C13.4503 31.2063 14.3752 30.519 16.8698 30.6462C20.7815 30.8414 24.7102 30.7481 28.6304 30.7735C28.8086 30.9687 28.9867 31.1638 29.1734 31.359C30.0644 36.2719 31.0232 41.1934 28.4522 45.9366V45.8602Z" fill="#040304"/>
<path d="M118.413 136.72C118.421 138.264 118.455 139.809 118.438 141.353C118.37 150.347 118.37 150.356 109.164 150.373C107.195 150.381 105.235 150.356 103.266 150.356L103.3 150.398C101.043 145.68 101.578 140.878 102.851 136.05C107.348 133.631 112.108 134.981 116.792 135.091C117.59 135.379 118.15 135.905 118.413 136.72Z" fill="#030202"/>
<path d="M118.345 27.1333C118.073 28.0667 117.7 29 118.438 29.891C118.158 30.6122 117.734 31.2062 116.987 31.5032C112.524 32.165 108.061 32.4026 103.614 31.325C103.148 31.0535 102.808 30.6716 102.571 30.1795C101.951 25.4787 101.026 20.7609 103.19 16.1789C107.356 15.5764 111.548 16.1025 115.723 15.8988C117.547 15.8055 118.15 16.5861 118.15 18.3596C118.158 21.287 117.836 24.2229 118.345 27.1333Z" fill="#030203"/>
<path d="M28.9867 15.814C32.7881 15.8903 36.5895 16.06 40.3909 15.9922C42.6055 15.9497 43.4371 16.7728 43.3437 18.9535C43.174 22.8906 43.1486 26.8448 43.0553 30.7904C38.2187 32.8523 33.3991 32.8862 28.5879 30.7225L28.6219 30.7819C28.817 25.7926 28.2316 20.7863 28.9867 15.814Z" fill="#010102"/>
<path d="M133.058 120.725C133.287 125.562 133.89 130.416 132.761 135.227C128.586 135.846 124.395 135.346 120.211 135.498C118.693 135.558 117.683 134.785 117.623 133.351C117.437 129.066 116.554 124.731 118.285 120.539C123.207 118.714 128.12 118.468 132.999 120.709L133.058 120.725Z" fill="#020102"/>
<path d="M28.7576 136.788C33.45 134.115 37.6502 137.764 42.1304 137.942C43.2759 137.984 42.9704 139.427 42.3764 140.343C40.4248 143.398 37.8199 145.935 35.6646 148.845C34.3409 150.636 31.1674 149.278 28.834 149.524C28.8086 145.273 28.7831 141.03 28.7576 136.788Z" fill="#040303"/>
<path d="M118.557 120.59C118.599 124.247 118.828 127.912 118.608 131.553C118.438 134.446 119.575 135.133 122.231 135.023C125.735 134.879 129.248 135.133 132.753 135.218C129.392 136.304 125.947 135.43 122.562 135.702C121.128 135.821 119.473 135.082 118.404 136.712C118.158 136.432 117.912 136.16 117.666 135.88C117.318 135.481 117.038 135.031 116.826 134.539C115.986 129.847 116.512 125.121 116.452 120.403C116.198 98.0019 116.359 75.6009 116.393 53.2084C116.402 49.8483 115.672 47.43 112.167 46.5136C111.022 45.0202 112.363 44.4941 113.288 44.2904C116.156 43.654 116.359 41.6346 116.452 39.2587C116.563 36.4161 115.68 33.3954 117.674 30.8074C117.92 30.4934 118.175 30.188 118.421 29.874C118.693 30.0522 118.769 30.2898 118.642 30.5868C118.65 34.3797 118.811 38.1811 118.616 41.9655C118.48 44.6298 119.533 45.2408 122.01 45.2832C125.328 45.3426 128.714 44.5704 131.98 45.7584C129.978 48.0409 127.271 47.1754 124.819 47.3027C120.33 47.5403 119.957 47.7694 119.889 52.1817C119.77 60.0984 119.974 68.0151 119.796 75.9318C120.076 89.2197 119.881 102.508 119.889 115.795C119.906 117.518 119.872 119.24 118.557 120.59Z" fill="#715A17"/>
<path d="M118.345 27.1332C117.293 24.8761 117.827 22.4748 117.912 20.1753C118.014 17.3922 117.318 16.077 114.238 16.2891C110.632 16.5437 106.991 16.3994 103.368 16.4249C100.568 18.3425 97.3692 17.5789 94.3485 17.5789C91.2938 17.5789 89.9955 18.7244 90.1228 21.813C90.2416 24.7574 90.2416 27.7102 90.0889 30.6546C90.2246 33.7432 90.1992 36.8318 90.1313 39.912C90.0634 42.797 91.3447 44.0019 94.1703 43.8831C95.8504 43.8152 97.5474 43.7643 99.2105 43.9934C100.534 44.1716 102.138 44.0188 102.503 45.911C97.6916 46.2504 92.889 46.242 88.0864 45.8941C87.9082 45.7244 87.7215 45.5547 87.5433 45.3849C86.1772 40.5314 86.7033 35.6269 87.1106 30.7225C88.7737 26.9805 87.7979 23.0349 87.8403 19.191C87.8742 16.2636 88.7567 15.22 91.7011 15.3981C95.5958 15.6357 99.5075 15.5085 103.411 15.5339C107.484 15.5424 111.557 15.6357 115.629 15.5254C117.7 15.4745 118.794 15.9497 118.616 18.3086C118.396 21.2445 118.421 24.1973 118.345 27.1332Z" fill="#715A17"/>
<path d="M111.718 45.8773C112.549 45.9622 113.406 46.2167 114.221 46.1149C116.979 45.7585 117.81 46.8446 117.793 49.6278C117.683 73.2846 117.708 96.9414 117.691 120.59C113.203 123.008 108.544 122.058 103.894 121.252C103.699 121.073 103.496 120.895 103.3 120.726C103.3 95.8129 103.309 70.9002 103.309 45.9791C103.496 45.8094 103.674 45.6482 103.86 45.4785C106.533 44.6469 109.172 44.2736 111.718 45.8773Z" fill="black"/>
<path d="M42.9789 105.469C46.9075 105.452 50.8362 105.528 54.7649 105.384C57.3613 105.291 58.8717 106.012 58.4305 108.922C58.4135 109.058 58.422 109.202 58.4305 109.347C58.5832 120.836 58.5832 120.708 47.1791 120.674C44.0226 120.666 43.471 119.453 43.5389 116.712C43.6322 112.953 44.2008 109.134 43.0553 105.409L42.9789 105.469Z" fill="#FCFBFA"/>
<path d="M58.2947 75.6943C58.3117 79.7757 58.2693 83.8656 58.3711 87.947C58.4305 90.0768 57.6498 90.8404 55.4522 90.9847C43.7765 91.7399 43.9038 91.7993 43.768 80.1915C43.7256 76.7719 44.5571 75.304 48.1973 75.6349C51.549 75.9319 54.9515 75.7198 58.3287 75.7367C58.3287 75.7282 58.2947 75.6943 58.2947 75.6943Z" fill="#D48103"/>
<path d="M43.0553 105.401C39.2454 105.41 35.427 105.274 31.6341 105.477C29.1395 105.605 28.2994 104.629 28.6049 102.321C28.6219 102.185 28.6134 102.041 28.6134 101.897C28.4691 89.8646 28.9698 89.4488 41.0273 90.7131C42.5546 90.8743 43.3862 91.2562 43.4371 92.8853C43.5644 97.094 44.2432 101.311 42.9874 105.469C42.9789 105.469 43.0553 105.401 43.0553 105.401Z" fill="#FDFDFC"/>
<path d="M102.503 45.9197C99.236 44.579 95.8249 45.3767 92.4987 45.3767C89.8089 45.3767 88.6294 44.6639 88.8076 41.8129C89.0282 38.1557 88.9603 34.4816 89.0113 30.8245C93.7715 28.5759 98.5402 28.6862 103.309 30.7906L103.233 30.7142C105.405 35.8308 105.405 40.9474 103.233 46.0724L103.309 45.9876C103.046 45.9706 102.774 45.9537 102.503 45.9197Z" fill="#030203"/>
<path d="M88.8925 120.709C93.6951 120.717 98.4977 120.717 103.3 120.725L103.233 120.641C105.464 125.494 105.277 130.373 103.402 135.269C99.1935 137.17 94.8152 136.194 90.4877 136.007C89.2573 135.956 88.4088 135.125 88.4682 133.742C88.6634 129.397 87.9336 125.027 88.8925 120.709Z" fill="#030203"/>
<path d="M88.1033 60.7433C84.3189 60.7348 80.5345 60.5991 76.7586 60.7603C74.1282 60.8791 73.2966 59.8269 73.4239 57.3153C73.6106 53.5394 73.5597 49.755 73.6106 45.979C73.8057 45.8008 74.0094 45.6311 74.2045 45.453C78.8799 44.5111 83.5553 43.8917 88.1288 45.9536L88.0864 45.9027C88.4597 50.8496 88.4258 55.7964 88.1033 60.7433Z" fill="#FDFDFC"/>
<path d="M88.8925 120.708C88.8755 124.213 89.0707 127.743 88.7737 131.23C88.4852 134.565 89.8768 135.329 92.8805 135.125C96.3764 134.896 99.8978 135.049 103.402 135.04C108.154 133.071 112.889 133.021 117.623 135.091C117.649 135.354 117.657 135.617 117.666 135.889C112.889 135.906 108.112 135.923 103.334 135.948C101.841 137.255 99.9996 137.221 98.1838 137.229C89.6731 137.272 90.1737 136.618 90.1313 145.087C90.1228 146.877 90.2925 148.752 88.9179 150.237C86.7542 146.894 88.1373 143.203 88.0779 139.698C88.0355 136.729 87.1869 135.668 84.2001 135.863C80.6788 136.092 77.1319 135.948 73.6021 135.965C77.0895 133.937 80.8654 135.295 84.4971 135.167C87.1869 135.065 88.0015 134.336 88.1033 131.595C88.2391 127.98 86.8815 124.204 88.8925 120.708Z" fill="#7D6205"/>
<path d="M58.5323 30.8328C54.714 30.7989 50.8956 30.6462 47.0857 30.7904C44.625 30.8838 44.0141 29.9164 43.9377 27.583C43.5559 16.4079 43.488 16.4079 54.7479 16.4079C59.6948 16.4079 64.6502 16.5013 69.5886 16.3655C71.9644 16.2976 72.9148 17.0953 72.8045 19.5135C72.6432 23.1792 72.6942 26.8617 72.6602 30.5359C68.0018 33.0814 63.284 32.6826 58.5323 30.8328Z" fill="#F9BC05"/>
<path d="M58.5323 30.8329C63.2416 30.7311 67.9509 30.6377 72.6602 30.5359C72.9827 30.6207 73.2966 30.6971 73.619 30.782L73.5257 30.748C75.7404 35.8476 75.6979 40.9473 73.5597 46.0554L73.6106 45.979C69.5292 45.9366 65.4393 45.7923 61.3664 45.9026C59.2026 45.962 58.3287 45.3596 58.422 43.0771C58.5917 39.0041 58.5069 34.9143 58.5323 30.8329Z" fill="#FBFAF7"/>
<path d="M28.5879 30.7227C33.4075 30.7481 38.2356 30.7651 43.0553 30.7905C44.6505 35.1689 43.5983 39.6915 43.7595 44.1463C43.8359 46.2591 42.037 45.9791 40.6794 45.9791C36.598 45.9961 32.5251 45.9536 28.4437 45.9367C28.4946 40.871 28.5455 35.7968 28.5879 30.7227Z" fill="#FDBD03"/>
<path d="M118.557 120.59C118.616 105.656 118.676 90.7133 118.735 75.7792C123.461 73.5137 128.213 73.7682 132.99 75.5926C132.99 90.6284 132.999 105.673 132.999 120.709C128.188 120.666 123.376 120.632 118.557 120.59Z" fill="#FDBE06"/>
<path d="M132.99 75.5925C128.238 75.6519 123.487 75.7198 118.735 75.7792C118.659 66.6152 118.633 57.4426 118.48 48.2786C118.447 46.293 119.329 45.9621 121.018 45.9706C124.683 45.9876 128.34 45.8603 132.006 45.7839C133.126 45.9621 133.194 46.7937 133.194 47.6761C133.117 56.9844 133.058 66.2842 132.99 75.5925Z" fill="#FBFBFB"/>
<path d="M131.259 35.9155C131.361 38.7665 131.302 41.7534 127.806 41.6091C124.59 41.4733 123.733 38.6138 123.665 35.7713C123.614 33.2172 124.446 31.5711 127.534 31.5456C130.988 31.5117 131.539 33.3784 131.259 35.9155Z" fill="#020202"/>
<path d="M88.9179 150.246C88.8925 146.461 88.9858 142.677 88.7906 138.901C88.6634 136.406 89.6986 135.778 91.9896 135.872C95.7655 136.024 99.5584 135.939 103.343 135.956C103.334 140.776 103.317 145.587 103.309 150.407C98.5147 150.347 93.7121 150.296 88.9179 150.246Z" fill="#FBBF05"/>
<path d="M73.5597 46.0638C73.5512 40.9641 73.5342 35.856 73.5257 30.7564C78.0568 30.7479 82.5795 30.7394 87.1106 30.731C89.0537 33.9808 87.6366 37.5276 87.9761 40.9217C88.1373 42.5933 88.0864 44.2819 88.1288 45.9619C83.2668 45.9874 78.4132 46.0213 73.5597 46.0638Z" fill="#FCBE04"/>
<path d="M43.1401 149.592C41.9182 149.499 40.6964 149.414 39.4405 149.321C39.5339 147.394 40.4842 145.612 41.9437 145.791C43.9801 146.045 42.631 148.336 43.1146 149.643L43.1401 149.592Z" fill="#040303"/>
<path d="M103.233 46.0724C103.233 40.9558 103.233 35.8392 103.233 30.7141C108.052 30.7481 112.863 30.7905 117.683 30.8244C117.742 34.2949 117.632 37.7908 117.92 41.2443C118.192 44.5535 116.979 45.8602 113.703 45.4275C113.075 45.3426 112.38 45.716 111.718 45.8772C108.892 45.9366 106.067 46.0045 103.233 46.0724Z" fill="#FCBD06"/>
<path d="M103.317 30.7905C98.5487 30.799 93.78 30.816 89.0197 30.8244C88.9349 26.9297 88.9094 23.0265 88.7482 19.1318C88.6634 16.9766 89.4779 16.1705 91.6756 16.2638C95.5703 16.4335 99.4735 16.3826 103.377 16.425C103.351 21.2107 103.334 26.0048 103.317 30.7905Z" fill="#FABE06"/>
<path d="M117.632 135.099C112.889 135.082 108.145 135.065 103.411 135.048C103.351 130.246 103.3 125.443 103.241 120.641C108.061 120.624 112.88 120.607 117.7 120.598C117.674 125.426 117.657 130.263 117.632 135.099Z" fill="#FDBE02"/>
</g>
<defs>
<clipPath id="clip0_26_1200">
<rect width="148.237" height="164.673" fill="white" transform="translate(0.136963 0.812012)"/>
</clipPath>
</defs>
</svg>
