<svg width="164" height="165" viewBox="0 0 164 165" fill="none" xmlns="http://www.w3.org/2000/svg">
<g clip-path="url(#clip0_26_1133)">
<path d="M60.0007 150.822C59.831 150.712 59.7716 150.559 59.8225 150.364C58.0321 147.614 59.3983 144.611 59.2201 141.743C58.8976 136.677 58.6091 136.219 53.5774 136.092C53.2974 136.083 53.0174 136.091 52.7289 136.083C44.0485 135.981 43.9551 135.879 43.8363 127.36C43.76 121.87 43.6157 121.726 38.0834 121.658C36.9548 121.641 35.8263 121.684 34.6978 121.616C30.2515 121.37 28.9957 120.071 28.5884 115.727C28.3169 112.833 29.7848 109.312 27.5193 107.199C25.4573 105.282 22.0887 106.605 19.314 106.351C17.88 106.223 16.5139 106.045 15.3769 105.07L15.4702 105.154C14.1211 103.635 14.2653 101.76 14.2568 99.9359C14.2399 88.3791 14.2399 76.8137 14.2568 65.2568C14.2568 63.4325 14.1211 61.5573 15.4787 60.0384L15.3769 60.1148C20.1116 57.8832 24.9058 58.3414 29.7254 59.7754C31.5837 61.727 31.117 64.2046 31.1509 66.5296C31.1934 69.457 31.3121 72.3844 31.4394 75.3118C31.2018 78.4089 31.2697 81.523 31.1679 84.6286C31.0576 88.116 32.6698 89.4143 36.0215 89.3464C42.6569 89.2276 49.3008 89.4652 55.9363 89.2021C60.3486 89.0239 61.3753 89.9828 61.6723 94.4715C61.7317 95.32 61.7147 96.1685 61.7232 97.017C61.7911 103.271 65.6434 105.757 71.5406 103.457C73.0255 102.88 73.2971 101.743 73.4159 100.462C73.628 98.2134 73.4243 95.9394 73.6365 93.6908C73.9335 90.4325 75.7408 88.9136 78.9737 89.0154C79.9665 89.0494 80.9423 89.1936 81.935 89.2361C87.7813 89.4821 88.7996 88.4894 88.7826 82.5243C88.7741 77.0513 88.5111 76.7882 83.089 76.7119C73.4922 76.5761 73.4668 76.5507 73.5177 66.9454C73.5262 65.8168 73.5516 64.6883 73.594 63.5598C73.6959 60.7087 75.045 59.0287 77.9894 58.9438C85.3376 58.7317 92.6858 58.6638 100.026 58.9777C103.241 59.1135 104.641 61.133 104.964 64.2556C105.278 67.2848 103.7 70.9759 106.118 73.199C108.316 75.2185 111.837 73.8863 114.764 74.1578C117.598 74.4124 119.321 75.7106 119.304 78.638C119.287 82.2612 120.153 85.9693 118.481 89.4737C116.232 91.8665 113.246 90.8822 110.556 91.1283C105.252 91.6204 105.057 91.8241 104.896 97.1358C104.811 99.8511 105.651 102.762 103.589 105.18C101.069 107.072 98.1333 106.274 95.3756 106.325C92.4907 106.376 91.2009 107.53 91.3791 110.407C91.447 111.535 91.3876 112.664 91.3791 113.801C91.3027 120.538 90.2675 121.548 83.369 121.641C82.8005 121.65 83.5133 121.641 82.9448 121.641C76.496 121.709 74.2474 125.069 76.3263 131.416C76.6742 132.477 77.2257 133.156 78.3288 133.3C81.0016 133.639 83.683 133.597 86.3643 133.342C88.1462 133.173 88.6299 131.891 88.7487 130.364C88.9269 128.107 88.7996 125.841 88.9014 123.584C89.0372 120.657 90.539 119.248 93.4495 119.138C95.9781 119.036 98.5321 119.571 101.01 118.782C101.358 118.51 101.689 118.23 101.969 117.891C103.072 115.32 102.317 112.638 102.503 110.016C102.631 108.218 102.334 106.342 103.852 104.925C106.22 103.186 108.96 103.907 111.548 103.831C116.555 103.669 116.665 103.542 116.852 98.6547C116.954 95.7867 116.13 92.7829 117.861 90.1016C120.441 88.1245 123.334 89.6179 126.075 89.3718C128.103 89.1852 130.801 89.9403 131.591 87.3863C132.541 84.2977 132.6 80.9799 131.395 77.8489C131.073 77.0004 130.029 76.941 129.189 76.8137C128.213 76.6694 127.221 76.7034 126.228 76.6949C117.403 76.5676 116.928 76.0925 116.826 67.2593C116.758 61.7439 116.538 61.5148 111.133 61.43C110.148 61.413 109.156 61.4385 108.171 61.396C103.496 61.1754 102.605 60.2675 102.427 55.5073C102.418 55.2273 102.418 54.9388 102.418 54.6588C102.384 46.3687 102.987 46.0887 94.1962 46.0717C89.9196 46.0632 89.105 45.0195 88.8675 40.726C88.3753 31.7232 88.3753 31.7232 79.2198 31.7402C77.667 31.7402 76.1142 31.7317 74.5614 31.6977C69.7842 31.4347 64.8712 32.9111 60.2722 30.5183C58.1679 26.0551 58.9655 21.3967 59.5171 16.8062C59.7801 14.6255 61.7656 13.9891 63.6918 13.9551C75.7069 13.7175 87.722 13.6666 99.737 13.9721C103.386 14.0654 104.76 16.4668 105.023 19.8948C105.694 28.6855 105.736 28.7024 114.255 29.1861C115.706 29.271 117.064 29.4916 118.201 30.4589L118.108 30.374C120.254 33.276 119.219 36.6446 119.423 39.8096C119.711 44.3322 119.771 44.4341 124.378 44.5359C132.863 44.7141 135.197 42.474 134.696 54.6333C134.569 57.7644 136.02 58.7911 139.007 58.8844C142.528 58.9947 146.482 57.7389 149.248 61.2688C150.131 62.9743 150.029 64.8241 150.037 66.6399C150.063 77.4671 150.063 88.3027 150.037 99.1298C150.029 101.226 150.182 103.389 148.62 105.137L148.714 105.07C145.829 107.25 142.46 106.359 139.312 106.325C135.825 106.291 134.45 107.674 134.654 111.086C134.781 113.181 134.79 115.311 134.467 117.407C134.162 119.393 133.059 120.725 131.124 121.353C129.376 121.624 127.62 121.633 125.863 121.59C119.414 121.794 119.44 121.794 119.355 128.497C119.321 130.686 119.728 132.986 118.099 134.87L118.184 134.768C115.443 136.864 112.227 136.032 109.215 136.049C106.169 136.066 104.998 137.237 104.938 140.292C104.879 143.575 105.897 147.071 103.649 150.092L103.725 150.016C102.486 151.136 100.959 151.382 99.3807 151.39C87.3656 151.475 75.3505 151.433 63.3269 151.416C62.1814 151.407 61.1038 151.034 60.0007 150.822Z" fill="#FEBF01"/>
<path d="M60.0007 150.822C60.8662 149.405 62.2747 149.948 63.4542 149.948C76.8778 149.931 90.3014 149.973 103.725 149.999C103.632 153.928 103.403 157.856 103.504 161.785C103.564 164.093 102.978 164.975 100.492 164.95C87.9765 164.84 75.4523 164.84 62.9366 164.958C60.4419 164.984 59.814 164.127 59.9413 161.785C60.1195 158.145 59.9922 154.479 60.0007 150.822Z" fill="#040404"/>
<path d="M148.612 105.112C148.035 90.4071 148.086 75.7022 148.595 60.9973C153.941 60.5222 159.651 58.8082 162.977 65.206C163.028 77.7048 163.028 90.2035 163.19 102.694C163.215 104.959 162.214 105.146 160.415 105.112C156.478 105.027 152.549 105.104 148.612 105.112Z" fill="#010101"/>
<path d="M0.281647 102.541C0.281647 90.6616 0.281647 78.7738 0.281647 66.8945C2.26719 61.1754 8.03715 58.5111 13.6798 60.5899C15.1138 61.116 14.5283 62.1173 14.6302 62.9828C15.4278 69.9916 14.8762 77.0343 14.9865 84.0601C15.0799 89.9658 15.0035 95.88 15.0035 101.786C15.0035 103.211 15.1732 104.688 12.9925 104.654C9.47963 104.611 5.95826 104.611 2.43689 104.654C0.909554 104.679 0.688938 103.576 0.281647 102.541Z" fill="#010101"/>
<path d="M118.192 30.4334C114.094 30.4165 109.996 30.3146 105.906 30.408C104.056 30.4504 103.411 29.7801 103.462 27.9727C103.547 24.7229 103.369 21.473 103.513 18.2317C103.615 15.9576 102.698 15.3467 100.543 15.3637C87.968 15.44 75.4014 15.4316 62.8263 15.3722C60.8407 15.3637 60.0431 15.9746 60.1195 18.0365C60.2722 22.1264 60.2298 26.2163 60.2638 30.3062C60.094 30.4928 59.9328 30.688 59.7631 30.8747C55.0623 32.1475 50.353 32.0796 45.6437 30.9341C45.4655 30.7559 45.2873 30.5692 45.1091 30.391C45.0837 26.1654 45.1261 21.9312 45.0073 17.7056C44.9564 15.9067 45.5249 15.16 47.3917 15.2703C49.6402 15.3976 51.9567 14.9988 54.1544 15.3637C58.4988 16.0934 60.671 14.7018 60.2892 10.1028C62.7245 9.09308 65.2955 10.1198 67.7647 9.61068C76.9033 9.57674 86.0419 9.5428 95.1805 9.6022C96.0205 9.62765 96.869 9.64462 97.7006 9.75493C100.942 10.1877 101.96 8.67731 101.723 5.63111C101.595 3.99346 101.112 2.26247 101.986 0.650281C103.521 0.336327 103.504 1.36304 103.496 2.38975C103.479 5.18988 103.649 7.99849 103.403 10.7816C103.106 14.2606 103.971 15.72 107.917 15.4231C111.209 15.1685 114.713 14.4557 117.972 16.017C116.326 17.5529 114.264 17.1625 112.329 17.171C109.894 17.188 108.137 17.7395 108.282 20.6924C108.417 23.501 108.647 26.1229 112.287 26.6151C114.213 26.8696 116.224 25.7496 118.057 27.0478C118.099 28.1679 118.141 29.3049 118.192 30.4334Z" fill="#050403"/>
<path d="M15.3684 105.078C19.4668 105.078 23.5651 105.146 27.6635 105.036C29.5133 104.985 30.1412 105.664 30.0818 107.479C29.9799 110.729 30.1836 113.988 30.0224 117.229C29.9036 119.494 30.7606 120.241 32.9328 120.165C36.1827 120.054 39.4325 120.207 42.6823 120.105C44.5151 120.046 45.194 120.75 45.1515 122.558C45.0667 125.807 45.2194 129.057 45.0837 132.307C44.9988 134.335 45.7201 135.056 47.748 134.988C50.9894 134.878 54.2477 135.031 57.4976 134.971C59.1607 134.946 60.2468 135.311 60.1619 137.271C59.9668 141.632 60.5607 146.019 59.831 150.372C55.809 149.558 51.7276 150.211 47.6886 149.965C46.6365 149.897 44.863 150.695 45.2109 148.361C48.3335 147.156 52.05 149.388 54.8841 146.715C55.7156 145.934 57.7182 146.223 56.9206 143.83C56.2672 141.887 56.106 139.986 53.6877 139.528C52.0161 139.214 50.3275 139.307 48.6475 139.418C47.3153 139.503 46.1358 139.257 45.2449 138.179C45.6861 134.649 43.1321 134.921 40.9174 134.768C39.6955 133.41 40.3404 131.84 40.4338 130.339C40.578 128.09 40.5356 126.054 37.4809 125.841C34.0444 125.604 32.2625 126.843 31.9316 129.948C31.7534 131.603 32.0588 133.359 30.7351 134.717C28.9363 131.051 30.226 127.165 30.0478 123.398C29.929 120.911 29.4793 119.859 26.781 120.063C23.7094 120.292 20.6123 120.029 17.5321 120.122C15.7078 120.182 15.0714 119.503 15.1393 117.679C15.3005 113.478 15.3005 109.278 15.3684 105.078Z" fill="#050506"/>
<path d="M118.099 134.853C118.15 131.467 118.472 128.064 118.175 124.713C117.845 120.996 118.999 119.41 122.817 120.148C123.776 120.334 124.777 120.292 125.753 120.36C127.026 121.913 129.053 122.507 130.581 124.009C129.096 122.592 128.086 121.234 130.844 120.343C132.753 120.207 133.449 119.24 133.339 117.297C133.177 114.488 133.474 111.637 133.237 108.837C132.999 105.986 133.771 104.79 136.868 105.002C140.797 105.265 144.768 105.061 148.714 105.061C147.865 109.108 148.434 113.207 148.391 117.28C148.366 119.469 147.746 120.292 145.481 120.148C142.528 119.97 139.541 120.284 136.597 120.08C134.06 119.91 133.305 120.648 133.237 123.321C133.143 127.114 134.357 131.034 132.549 134.725C129.715 131.857 126.941 128.922 123.216 126.919C121.765 129.566 122.859 132.248 122.367 134.759C120.933 134.785 119.516 134.819 118.099 134.853Z" fill="#080707"/>
<path d="M162.977 65.206C159.015 60.9464 153.941 60.5051 148.595 60.9973C144.641 59.4954 140.542 60.4203 136.52 60.3863C133.873 60.3694 133.067 59.5124 133.254 56.9838C133.44 54.4721 133.008 51.8926 133.339 49.4149C133.814 45.8342 132.185 45.2657 129.096 45.3166C125.634 45.376 121.179 46.8948 118.931 44.6717C116.699 42.4655 118.464 38.0108 118.218 34.5573C118.116 33.1572 118.133 31.7572 118.091 30.3486C119.228 30.3995 120.365 30.4505 121.493 30.4929C123.572 33.2336 122.673 36.4325 122.707 39.4363C122.74 42.491 123.945 43.645 126.983 43.6365C129.987 43.628 131.268 42.5758 131.302 39.4787C131.345 36.4835 130.428 33.2845 132.515 30.5438C134.34 34.2179 133.042 38.1211 133.211 41.9055C133.322 44.3323 133.678 45.2826 136.419 45.2487C140.288 45.1978 145.464 43.4329 147.679 46.0972C149.579 48.3797 148.442 53.3691 148.239 57.1365C148.086 59.9197 149.189 60.4457 151.616 60.2421C153.856 60.0469 156.164 60.4627 158.37 60.1403C162.647 59.5209 163.953 61.2434 162.977 65.206Z" fill="#050506"/>
<path d="M29.9884 60.2252C25.1179 60.1912 20.2474 60.1573 15.3769 60.1318C15.2835 55.9401 15.2326 51.74 15.0884 47.5482C15.0205 45.707 15.8096 45.0875 17.5915 45.1384C20.6801 45.2318 23.7857 44.9857 26.8574 45.2233C29.5472 45.4354 29.963 44.3408 30.0563 41.9141C30.2091 38.1381 28.9448 34.2434 30.7182 30.5693C32.7377 33.2082 31.8806 36.2883 31.8637 39.1648C31.8467 42.5165 33.2977 43.6281 36.4627 43.6366C39.738 43.645 40.4592 41.8971 40.578 39.097C40.6968 36.212 39.7465 33.1318 41.7575 30.4929C42.8775 30.459 43.9976 30.4251 45.1176 30.3911V30.3996C47.485 35.3465 46.7807 40.3867 45.5758 45.4354C42.8436 47.8707 39.4919 46.8015 36.3863 46.9458C31.5243 47.1749 31.2697 47.3531 31.1424 52.2321C31.0745 54.7183 31.5158 57.2554 30.4806 59.6567C30.3194 59.8433 30.1497 60.0385 29.9884 60.2252Z" fill="#060506"/>
<path d="M103.649 150.084C103.598 146.011 103.649 141.929 103.462 137.865C103.36 135.625 104.226 134.903 106.381 134.929C110.31 134.98 114.247 134.827 118.175 134.751C118.192 138.79 118.031 142.846 118.286 146.876C118.464 149.634 117.395 150.134 114.934 150.024C111.184 149.846 107.416 150.041 103.649 150.084Z" fill="#030303"/>
<path d="M132.532 30.5437C132.532 34.065 132.354 37.5949 132.583 41.1078C132.779 44.1455 131.574 44.977 128.689 44.9007C120.178 44.6716 121.654 45.6983 121.519 37.6882C121.476 35.2954 121.51 32.9025 121.51 30.5012C125.184 30.2382 128.858 30.1194 132.532 30.5437Z" fill="#040302"/>
<path d="M41.749 30.4929C41.749 34.0227 41.6641 37.5611 41.7744 41.0909C41.8593 43.8062 40.7477 45.062 38.0155 44.8414C36.3354 44.7056 34.6299 44.3323 32.9753 44.5105C30.7945 44.7481 30.7012 43.5941 30.7097 42.0158C30.7436 38.1975 30.7182 34.3876 30.7097 30.5693C34.3923 30.1026 38.0749 30.2468 41.749 30.4929Z" fill="#030203"/>
<path d="M45.2364 138.17C47.8753 138.17 50.5142 138.069 53.1361 138.204C55.9108 138.357 57.9048 139.316 57.9303 142.736C57.9642 146.113 56.1654 148.37 53.4162 149.006C50.8366 149.6 47.8329 149.829 45.194 148.353C45.2109 144.959 45.2194 141.565 45.2364 138.17Z" fill="#050404"/>
<path d="M118.057 27.0393C117.115 27.3024 116.19 27.7521 115.24 27.7776C112.787 27.8539 109.868 28.7449 108.248 26.2587C106.5 23.5859 106.856 20.336 107.272 17.2813C107.484 15.771 108.935 16.051 110.004 16.034C112.66 15.9916 115.316 16.017 117.972 16.0085C118.472 19.6826 118.294 23.3568 118.057 27.0393Z" fill="#030202"/>
<path d="M30.7267 134.708C30.7267 133.58 30.7351 132.451 30.7351 131.323C30.7351 125.926 34.1292 123.381 39.4919 124.628C41.2229 125.035 41.5962 126.121 41.7829 127.674C42.0884 130.135 41.0108 132.375 40.9089 134.759C37.5064 135.082 34.1123 135.167 30.7267 134.708Z" fill="#030203"/>
<path d="M67.2046 10.9174C64.8797 10.841 62.4869 11.2823 60.2892 10.1028C59.1182 0.412693 59.1182 0.370267 68.5283 0.404208C79.6779 0.446635 90.8275 0.565428 101.977 0.641795C102.257 1.58366 102.69 2.50006 102.792 3.45889C103.496 10.4762 103.072 10.9089 96.0544 10.9089C95.8084 9.80584 96.6823 9.45795 97.3696 9.03369C98.5915 8.27002 99.9322 7.5318 99.4231 5.78384C98.9564 4.21408 97.4545 3.93406 96.0884 3.56071C92.4991 2.58491 88.8335 2.65279 85.1764 2.74613C79.5591 2.89038 73.8995 2.18611 68.3247 3.3401C66.4325 3.73042 63.9972 3.75587 63.4627 6.02992C62.962 8.13425 65.3464 8.49912 66.6022 9.49189C67.0689 9.87372 67.3574 10.2895 67.2046 10.9174Z" fill="#030202"/>
<path d="M0.281653 102.541C1.99567 103.924 11.7876 104.968 13.561 104.009C14.4605 103.525 14.5877 102.719 14.5623 101.879C14.1635 88.973 15.3854 76.0415 13.9683 63.1355C13.7477 61.0821 13.0265 61.2433 11.55 60.9124C5.97524 59.665 3.03935 63.0506 0.273168 66.8945C0.222256 66.4787 0.128919 66.0629 0.120434 65.6386C0.0101256 60.1911 0.0186105 60.2081 5.32188 60.1826C8.699 60.1657 12.0846 60.0893 15.4617 60.0469C15.4617 75.0827 15.4532 90.127 15.4532 105.163C11.1512 105.137 6.84922 105.027 2.55569 105.129C0.561666 105.171 -0.329284 104.62 0.281653 102.541Z" fill="#050506"/>
<path d="M122.35 134.751C122.231 134.352 122.155 133.936 121.994 133.554C120.891 130.873 120.568 127.284 122.274 125.782C124.005 124.263 126.287 127.352 127.721 128.896C129.41 130.712 132.906 131.204 132.532 134.717C129.138 135.167 125.744 135.107 122.35 134.751Z" fill="#050404"/>
<path d="M118.023 89.9489C118.057 86.1305 118.014 82.3122 118.167 78.5023C118.26 76.084 117.259 75.3712 114.926 75.3034C111.311 75.2015 106.729 76.9495 104.345 74.4464C102.164 72.1638 103.717 67.6921 103.7 64.1962C103.683 61.3791 102.851 60.0554 99.8049 60.1148C92.601 60.2506 85.38 60.2421 78.1761 60.1063C75.5372 60.0554 74.6632 61.0227 74.8159 63.5683C74.9771 66.3854 74.9941 69.2279 74.8159 72.045C74.6462 74.7179 75.7663 75.5325 78.2864 75.3967C81.1035 75.244 83.946 75.49 86.7631 75.3203C89.419 75.1506 90.293 76.2537 90.1233 78.7823C89.9705 81.1751 89.8772 83.6104 90.1487 85.9863C90.5221 89.1937 88.8675 90.3901 86.1182 90.5259C83.8782 90.6362 81.5617 90.704 79.381 90.2628C75.8851 89.5501 74.6038 90.8738 74.8499 94.2169C74.8923 94.777 74.9008 95.354 74.8499 95.914C74.5783 98.8159 76.2414 103.05 74.0607 104.357C70.6751 106.393 66.1016 105.002 62.0372 105.002C60.2044 105.002 60.4165 103.372 60.3995 102.125C60.3656 99.0196 60.408 95.9055 60.3656 92.7999C60.3401 90.9841 59.7801 90.1949 57.5315 90.2798C49.4875 90.5937 41.435 90.5343 33.3825 90.6192C31.7279 90.6362 29.9715 90.441 30.0139 88.3452C30.0988 84.0092 29.1908 79.6223 30.5315 75.3373C32.3134 73.776 34.5111 74.1833 36.5815 74.1494C43.8448 74.0391 43.8363 74.0645 43.8957 66.6145C43.9127 64.6544 43.726 62.6688 44.4303 60.7597C44.634 60.293 44.9564 59.9196 45.3637 59.6311C49.1226 58.282 53.0428 59.2832 56.8612 58.8929C58.8552 59.1051 59.0928 57.705 59.2201 56.2625C59.4067 54.1921 59.288 52.1132 59.271 50.0259C59.3643 48.1082 59.1352 46.0717 61.2735 44.9687C63.31 44.222 65.4397 44.4426 67.5441 44.4171C73.5262 44.3492 73.4668 44.3662 73.5856 38.1974C73.6365 35.584 72.9577 32.8008 74.8583 30.4674C78.9567 30.4504 83.0466 30.5098 87.145 30.3995C89.3172 30.3401 90.2251 31.1462 90.1233 33.3524C90.0045 35.8895 90.3015 38.452 90.0554 40.9721C89.733 44.2729 91.1415 45.2487 94.2047 44.9432C96.1648 44.748 98.1588 44.9856 100.127 44.8923C102.639 44.782 103.776 45.8596 103.674 48.3967C103.581 50.6538 103.895 52.9448 103.606 55.1679C103.063 59.3851 104.854 60.3524 108.825 60.2421C118.133 59.979 118.142 60.1742 118.15 69.4401C118.158 75.3628 118.158 75.3628 124.327 75.3543C133.364 75.3543 133.364 75.3543 133.373 84.5013C133.373 90.5513 133.339 90.6531 127.187 90.5683C124.124 90.5259 121.06 90.1355 117.997 89.9064L118.023 89.9489Z" fill="#D58101"/>
<path d="M103.666 105.044C103.123 109.864 104.115 114.76 102.86 119.537C101.315 117.908 101.824 115.854 101.714 113.937C101.595 111.909 101.519 109.643 98.9819 109.422C96.3345 109.193 96.0375 111.586 95.6981 113.495C95.2908 115.812 95.8338 117.713 98.5491 118.239C100.034 118.527 101.68 118.264 102.877 119.528C99.7795 120.725 96.5381 120.08 93.3901 120.054C90.5221 120.029 89.8772 121.013 89.9111 123.729C90.0893 136.27 89.8263 136.406 77.1409 134.988C75.639 134.819 74.6971 134.522 74.8753 132.799C74.9177 132.384 74.8668 131.951 74.8923 131.535C75.1299 127.903 73.3565 123.279 75.5287 120.903C77.7433 118.476 82.4526 120.038 86.0419 120.148C89.2408 120.241 90.2336 119.231 90.1063 116.075C89.9705 112.596 88.545 108.005 90.6494 105.884C92.9489 103.559 97.5903 105.29 101.197 105.087C102.037 105.036 102.885 105.104 103.734 105.112L103.666 105.044Z" fill="#FBFCFB"/>
<path d="M45.1515 60.0723C45.1515 63.8822 44.9734 67.6921 45.194 71.485C45.3637 74.3445 44.5915 75.5409 41.5199 75.3373C37.8712 75.0997 34.1886 75.3033 30.523 75.3203C29.386 70.3225 30.2939 65.2483 29.9884 60.2166L29.929 60.2505C34.9693 57.8831 40.0519 58.1122 45.1515 60.0723Z" fill="#FAFAF6"/>
<path d="M74.8414 30.4758C74.8583 34.396 74.748 38.3246 74.9517 42.2363C75.0875 44.8837 74.0692 45.6135 71.5576 45.5031C68.0702 45.3419 64.5573 45.5371 61.0614 45.5795C57.7012 40.6157 58.677 35.4566 60.3656 30.2637L60.2722 30.2976C65.1258 30.357 69.9878 30.4164 74.8414 30.4758Z" fill="#FEFEFE"/>
<path d="M103.734 105.112C103.7 104.976 103.623 104.84 103.623 104.705C103.649 99.9783 101.417 93.6992 104.523 90.9839C107.246 88.6081 113.39 90.1439 118.014 89.9487L117.98 89.9063C118.057 94.1235 118.048 98.3491 118.252 102.566C118.354 104.73 117.361 105.154 115.486 105.103C111.54 105.002 107.603 105.052 103.657 105.044C103.666 105.044 103.734 105.112 103.734 105.112Z" fill="#FCFCF8"/>
<path d="M130.835 120.334C129.054 121.692 130.258 122.812 131.421 123.228C132.88 123.754 132.728 124.704 132.227 125.417C131.463 126.503 130.751 125.426 130.343 124.874C129.037 123.126 125.498 123.644 125.744 120.351C127.45 120.343 129.138 120.334 130.835 120.334Z" fill="#050404"/>
<path d="M67.2047 10.9174C65.024 9.50888 60.9935 9.50888 61.5874 5.85175C62.0796 2.831 65.3464 2.58493 68.0702 2.26249C77.8536 1.11699 87.6371 1.05759 97.3866 2.55099C99.177 2.82252 101.01 3.51831 101.12 5.88569C101.23 8.19367 100.195 9.59373 97.8873 10.0689C97.2509 10.2047 96.6654 10.6204 96.0629 10.9089C86.4322 10.9174 76.8184 10.9174 67.2047 10.9174Z" fill="#010102"/>
<path d="M60.3571 30.2637C60.4504 35.3718 59.2964 40.5393 61.0614 45.5795C59.9328 47.1832 60.7559 49.0754 60.2807 50.7725C57.7606 46.6147 53.7725 46.4959 49.5808 46.8523C48.3335 46.9541 47.0607 46.8778 45.8558 46.3941C45.4231 46.1989 45.1176 45.8765 44.9309 45.4353C44.9903 40.4205 45.0497 35.4057 45.1091 30.391C50.2003 30.3485 55.2829 30.3061 60.3571 30.2637Z" fill="#FBBF0D"/>
<path d="M45.1515 60.0722C40.0774 60.1316 35.0032 60.191 29.929 60.2589C29.963 56.1775 30.0818 52.1046 29.9969 48.0232C29.9545 45.9952 30.6842 45.291 32.6867 45.3504C36.7681 45.4776 40.8495 45.4182 44.9309 45.4352L45.16 45.7067C47.4341 49.9578 46.1443 54.4296 45.9831 58.8334C45.7455 59.3086 45.457 59.7498 45.1176 60.1656L45.1515 60.0722Z" fill="#F6BC09"/>
<path d="M45.2619 59.2409C45.2279 54.7267 45.194 50.2211 45.16 45.7069C48.0874 45.6051 51.0403 45.6985 53.9338 45.3506C58.1764 44.8414 60.5692 46.1482 60.2722 50.7726C60.1365 53.3861 59.8734 55.9995 59.9158 58.6045C59.9413 60.3864 59.1098 60.3609 57.8624 60.0555C56.5472 58.7148 58.2612 57.3741 57.803 56.1862C58.0406 55.4989 57.1666 55.745 57.7267 55.8128C57.8709 55.8298 57.8879 55.9571 57.7861 56.2032C56.4708 59.2578 49.9372 61.2519 47.4341 59.1985C45.4825 57.5947 46.7043 55.2019 46.4837 53.1909C45.6352 55.0916 47.8753 57.6626 45.2619 59.2409Z" fill="#FBFBFA"/>
<path d="M45.2619 59.2408C46.891 56.9668 45.3722 54.277 46.3225 51.5872C47.9093 54.277 44.6509 59.2239 50.8876 59.4275C57.2769 59.6396 56.946 55.2698 57.7521 51.1714C59.2964 54.26 58.6346 57.1535 57.8709 60.0554C53.6198 60.0894 49.3687 60.1318 45.1176 60.1657C45.1685 59.8603 45.211 59.5463 45.2619 59.2408Z" fill="#FAFAF6"/>
<path d="M102.877 119.528C102.172 119.52 101.468 119.52 100.764 119.503C98.5576 119.444 95.9357 120.114 94.7986 117.492C93.6022 114.726 94.4423 111.934 95.7744 109.389C96.4702 108.065 97.8194 107.208 99.3297 107.81C100.976 108.464 102.809 109.21 102.826 111.51C102.843 114.191 102.851 116.864 102.868 119.545C102.86 119.537 102.877 119.528 102.877 119.528Z" fill="#FDFDFC"/>
</g>
<defs>
<clipPath id="clip0_26_1133">
<rect width="163.188" height="164.554" fill="white" transform="translate(0.0949707 0.404297)"/>
</clipPath>
</defs>
</svg>
