<svg width="59" height="166" viewBox="0 0 59 166" fill="none" xmlns="http://www.w3.org/2000/svg">
<g clip-path="url(#clip0_29_858)">
<path d="M58.4349 72.138C58.5453 73.3938 58.7659 74.6581 58.7659 75.9139C58.7828 104.178 58.681 132.451 58.8677 160.715C58.8932 164.559 57.824 165.348 54.1669 165.297C37.6292 165.085 21.0915 165.128 4.55374 165.28C1.49057 165.306 0.463857 164.695 0.472342 161.394C0.574165 108.82 0.557194 56.2451 0.489313 3.67064C0.489313 1.30326 0.998426 0.598989 3.47611 0.61596C21.0066 0.734753 38.5286 0.709297 56.0591 0.641415C57.9258 0.63293 58.8507 0.819605 58.8253 3.05971C58.664 17.0434 58.6386 31.027 58.5622 45.0107C57.5695 45.9441 56.2542 45.9101 55.0409 46.2071C47.8114 47.972 45.2404 55.3542 49.8903 61.2769C52.7329 64.9001 56.2373 68.0057 58.4349 72.138Z" fill="#010101"/>
<path d="M58.4349 72.138C54.1075 68.7184 50.9425 64.2467 47.6842 59.9192C45.2065 56.627 46.072 52.7407 47.9981 49.5842C50.2891 45.8337 54.1244 44.4167 58.5622 45.0107C58.5453 46.4023 58.5283 47.7938 58.5198 49.1939C57.7137 50.1018 56.5597 50.2121 55.4991 50.5261C53.0044 51.2728 51.6892 52.868 52.1304 55.5239C52.5377 57.9931 54.1414 59.0792 56.6021 58.9859C57.2979 58.9604 58.0022 58.9519 58.5962 59.4356C59.258 63.6782 58.9695 67.9123 58.4349 72.138Z" fill="#606060"/>
<path d="M58.5877 59.4356C56.2118 60.5471 54.0226 60.6235 52.0625 58.5192C50.4079 56.7373 50.2552 54.5735 51.0783 52.6219C52.4274 49.4145 55.3803 48.9393 58.5113 49.1854C58.9525 52.605 58.8677 56.016 58.5877 59.4356Z" fill="#050505"/>
<path d="M43.8997 75.8375C44.0525 76.0666 44.044 76.2957 43.8828 76.5248C43.3312 89.7533 43.7809 102.99 43.6452 116.227C43.5943 121.276 43.2718 121.726 38.1468 121.802C32.0883 121.895 26.0298 121.895 19.9714 121.785C16.8743 121.726 15.5421 120.504 15.593 117.127C15.8051 104.874 15.6015 92.6128 15.7033 80.3686C16.3143 79.291 16.9761 79.5625 17.6125 80.3432C18.5119 81.4378 19.0804 82.736 19.8781 83.8985C21.8636 86.8089 24.4431 88.4466 28.1087 87.7253C31.5113 87.0465 34.6593 83.6948 35.2278 80.2159C35.5333 78.3491 34.9139 76.1769 36.9419 74.8447C39.3941 74.2762 41.8803 73.4447 43.8997 75.8375Z" fill="#FDBE02"/>
<path d="M16.7894 79.6983C15.89 80.6232 16.1021 81.8026 16.1021 82.9142C16.0852 94.2165 16.153 105.519 16.0342 116.821C16.0088 119.528 16.7555 120.58 19.6065 120.504C26.242 120.326 32.8944 120.309 39.5298 120.512C42.61 120.606 43.3312 119.435 43.2973 116.584C43.17 104.713 43.2209 92.8504 43.2803 80.9796C43.2888 79.4947 42.6779 77.8655 43.8828 76.5248C43.9506 91.06 44.0355 105.587 44.0694 120.113C44.0864 129.006 43.9591 137.898 44.0525 146.783C44.0779 149.277 43.433 150.295 40.7432 150.236C33.4035 150.075 26.0638 150.117 18.7241 150.211C16.5009 150.236 15.3385 149.744 15.3469 147.207C15.4148 122.939 15.3979 98.6713 15.4148 74.4035C15.4148 74.115 15.4912 73.7417 15.5421 73.7586C16.6367 73.9623 16.8234 74.8702 17.061 75.7442C17.1882 77.0679 17.604 78.4255 16.7894 79.6983Z" fill="#D48100"/>
<path d="M15.6015 45.8083C15.5336 36.7715 15.4912 27.7347 15.3724 18.698C15.3469 16.5852 16.0427 15.6603 18.3083 15.6857C25.9365 15.7791 33.5732 15.7536 41.2014 15.7027C43.0258 15.6942 44.0694 16.0421 44.027 18.2567C43.8658 27.4378 43.8658 36.6188 43.8064 45.7913C39.8947 47.7514 19.5302 47.7599 15.6015 45.8083Z" fill="#FCBE02"/>
<path d="M15.6015 45.8083C25.0031 45.8083 34.3963 45.8083 43.7979 45.7998C43.8913 54.2765 43.9931 62.7618 44.0864 71.2385C45.1895 72.6386 45.2319 74.0556 44.1458 75.4981L43.8997 75.829C41.4305 75.7527 38.9613 75.6678 36.4921 75.583C35.2109 76.6012 33.709 76.737 32.1647 76.6945C28.9657 76.7964 25.7753 76.7794 22.5764 76.703C20.472 76.4569 18.2913 77.1952 16.2294 76.2872C15.9579 75.6508 15.6779 75.0229 15.4063 74.395C15.4742 64.8661 15.5336 55.3372 15.6015 45.8083Z" fill="#FDFDFD"/>
<path d="M44.1458 75.5066C44.1289 74.0896 44.1034 72.6725 44.0864 71.247C46.2332 71.0518 47.0223 69.3463 47.9811 67.7935C48.4733 66.9959 48.4224 65.1546 50.0091 65.9607C51.2225 66.5801 52.1304 67.802 51.3752 69.4821C49.9412 72.6895 48.1848 75.4557 44.1458 75.5066Z" fill="#5D5D5E"/>
<path d="M32.1562 75.5915C33.6072 75.5915 35.0497 75.5915 36.5006 75.5915C36.2376 78.8498 37.1625 82.1675 34.4048 85.1119C31.5368 88.1751 28.2615 89.923 24.3583 88.8878C19.946 87.7169 17.7907 84.0258 16.7979 79.6983C16.2888 78.6122 15.9579 77.5006 16.2379 76.2873C18.0283 74.8363 20.0817 75.5236 22.0588 75.583C23.0176 76.6945 22.3897 77.9843 22.4576 79.1892C22.6018 81.8281 24.0104 83.3215 26.5899 83.5421C29.1439 83.7627 30.3319 82.1421 30.8919 79.8935C31.2483 78.451 30.9683 76.8049 32.1562 75.5915Z" fill="#FDBE02"/>
<path d="M32.1562 75.5914C32.1731 76.703 32.2071 77.8231 32.2156 78.9346C32.2325 81.3699 31.2907 83.4488 29.1015 84.433C26.9547 85.3919 24.5789 85.01 22.8649 83.3215C21.1848 81.6669 20.5569 79.5371 21.5921 77.1782C21.8127 76.6775 21.906 76.1175 22.0588 75.5829C25.4189 75.5914 28.7875 75.5914 32.1562 75.5914Z" fill="#F7BD0A"/>
<path d="M54.7099 37.4334L58.5622 45.0107L58.7574 75.9139L43.2803 80.9796L43.8319 40.7426L50.5946 36.4915L54.7099 37.4334Z" fill="#010101"/>
</g>
<defs>
<clipPath id="clip0_29_858">
<rect width="58.5141" height="164.69" fill="white" transform="translate(0.463867 0.615967)"/>
</clipPath>
</defs>
</svg>
