<svg width="149" height="166" viewBox="0 0 149 166" fill="none" xmlns="http://www.w3.org/2000/svg">
<g clip-path="url(#clip0_26_1060)">
<path d="M105.251 150.201C104.317 154.096 104.835 158.05 104.869 161.97C104.894 164.431 104.436 165.44 101.645 165.415C83.6898 165.288 65.7351 165.313 47.7803 165.39C45.5827 165.398 44.8275 164.838 44.9463 162.547C45.1669 158.457 45.0651 154.359 45.099 150.26C45.2772 150.091 45.4554 149.929 45.6251 149.76C48.1452 148.614 50.8265 149.191 53.44 149.039C55.0861 148.945 56.8001 149.268 58.2341 148.122C60.0245 145.543 58.9299 142.649 59.1505 139.917C59.4984 135.683 60.2282 134.698 64.5302 134.732C67.9837 134.766 71.5559 133.884 74.8906 135.564C76.418 137.524 76.0531 139.849 76.087 142.072C76.1889 148.945 76.1634 148.945 83.1977 148.954C88.5519 148.962 93.9145 148.937 99.2687 148.971C101.093 148.979 102.951 148.826 104.665 149.683C104.869 149.862 105.064 150.031 105.251 150.201Z" fill="#020201"/>
<path d="M135.017 45.9429C138.64 45.1962 142.314 45.8411 145.954 45.612C147.914 45.4932 148.237 46.5963 148.228 48.2424C148.195 71.4835 148.186 94.716 148.237 117.957C148.245 120.07 147.422 120.579 145.479 120.511C141.966 120.392 138.437 120.503 134.915 120.511C134.737 120.299 134.567 120.078 134.389 119.866C133.49 118.008 133.659 116.014 133.659 114.054C133.642 93.4857 133.642 72.9175 133.659 52.3578C133.659 50.3977 133.49 48.3952 134.44 46.5539C134.635 46.3502 134.822 46.1466 135.017 45.9429Z" fill="#020202"/>
<path d="M44.9208 15.5065C44.9378 11.5609 45.0396 7.61522 44.9208 3.66959C44.8614 1.63313 45.2432 0.759154 47.6191 0.767639C65.6672 0.877947 83.7238 0.869462 101.772 0.80158C106.464 0.78461 104.445 3.88172 104.479 6.07939C100.711 8.64193 97.0371 11.3657 93.3715 13.6567C93.6769 13.9197 95.9764 12.3076 95.8916 14.5561C95.8407 15.9817 94.186 16.5247 92.9302 16.3974C87.4063 15.8204 81.7297 18.1369 76.2398 14.9295C74.4494 13.8858 73.1936 16.1174 73.7112 18.3236C74.3985 21.2764 74.2882 24.1614 73.3463 27.0719C72.1838 30.6526 69.5534 31.2805 66.3206 30.8393C63.1386 30.4065 61.1276 28.7519 60.9833 25.3578C60.89 23.1092 60.7203 20.8437 61.6112 18.68C62.0525 17.6023 62.3919 16.5162 61.2888 15.5998C59.8293 14.3864 58.7178 15.2774 57.6147 16.2362C53.3551 16.4738 49.0446 17.5429 44.9208 15.5065Z" fill="#010101"/>
<path d="M0.21213 104.474C0.161219 85.7047 0.135763 66.9438 0.00848441 48.183C-0.00848605 46.0532 0.78064 45.4677 2.72376 45.6035C5.24387 45.7732 7.78095 45.7902 10.3096 45.875C11.9472 47.8181 12.2696 50.2279 12.346 52.5953C12.5327 58.6198 12.7278 64.6443 12.2102 70.6689C12.3036 78.0849 11.3617 85.4586 11.4381 92.8917C11.489 98.2459 5.75298 103.889 0.21213 104.474Z" fill="#020202"/>
<path d="M0.212129 104.474C2.29101 103.057 4.48868 101.793 6.42332 100.198C9.20647 97.8981 10.5811 95.1234 10.4453 91.1523C10.2247 84.5847 10.8696 77.9832 11.1581 71.3987C13.1521 70.4738 13.3642 68.7767 13.3388 66.8167C13.2539 61.6067 13.2794 56.3968 13.3218 51.1869C13.3388 49.371 13.1606 47.4873 14.5691 45.9939C15.6977 43.5162 14.5522 40.8179 15.3074 38.2978C17.1741 37.6869 17.5729 39.3924 18.4808 40.3003C20.5767 42.3877 21.8834 42.0822 23.0629 39.3585C24.3102 36.4735 23.0629 33.6394 23.0459 30.7799C25.2775 30.6781 27.5176 30.5847 29.7492 30.4829C32.159 35.3025 30.9117 40.3088 30.5553 45.2727C30.3347 45.7478 29.9868 46.0957 29.5116 46.3079C26.72 46.4267 23.9199 46.1636 21.1112 46.2485C19.7027 46.2909 18.2602 46.1551 17.3693 47.5891C16.0795 52.0354 16.9111 56.558 16.7583 61.0382C16.5886 65.9597 16.8262 70.8981 16.665 75.828C16.9111 89.2092 16.7498 102.59 16.7498 115.972C16.7498 117.38 16.6735 118.797 15.9268 120.061C15.7316 120.257 15.528 120.443 15.3243 120.638C11.2514 120.579 7.17002 120.325 3.11408 120.528C0.339408 120.664 -0.407292 119.688 0.237585 117.185C2.37586 115.412 5.2269 116.667 7.48397 115.462C10.352 113.129 9.24041 110.023 8.95191 107.181C8.77373 105.433 7.50094 105.475 6.10088 106.248C2.6389 108.148 3.05468 111.296 3.33469 114.427C2.74073 116.048 1.73947 116.498 0.24607 115.496C0.220615 111.831 0.212129 108.148 0.212129 104.474Z" fill="#030204"/>
<path d="M58.6584 15.2688C59.5239 13.5124 60.4657 13.0966 61.9761 14.293C63.0113 15.1076 65.3787 16.2022 63.7071 17.755C60.9409 20.326 62.3325 23.3128 62.1458 26.096C61.9591 28.8707 64.2332 29.6004 66.4224 29.7447C68.5437 29.8889 71.0383 30.5932 72.082 27.5215C72.9136 25.0693 73.3803 22.6086 72.9984 20.046C72.1329 14.2082 72.1075 14.2167 78.1829 13.1051C79.4302 13.9027 75.9683 15.1246 78.115 15.2519C83.8086 15.5828 89.5277 15.3622 95.7982 15.3622C94.5085 12.9524 92.6587 14.3694 91.632 13.0372C93.8636 12.8506 96.4261 13.1645 96.1461 9.71102C96.0613 8.65037 97.071 7.75942 98.1147 7.89518C100.55 8.20914 102.332 6.55452 104.487 6.07935C105.285 9.08312 103.028 13.1815 105.404 14.9719C108.051 16.9574 112.209 15.7864 115.662 15.6252C118.954 15.4725 120.151 16.2446 119.828 19.6981C119.489 23.3298 119.752 27.0124 119.752 30.678C119.565 30.8562 119.379 31.0344 119.192 31.2126C114.644 32.3751 110.096 32.3411 105.548 31.2296C104.623 30.678 104.105 29.821 103.74 28.8452C102.977 25.1202 103.002 21.3867 103.834 17.6108C102.001 16.7283 99.9815 16.6265 98.0723 16.915C92.6078 17.7381 87.1263 17.4411 81.6449 17.5089C76.2568 17.5768 76.1549 17.7296 76.0107 23.3213C75.9428 25.9263 76.6556 28.7179 74.6531 31.0089C70.3256 32.6211 65.9472 32.2223 61.5603 31.3823C59.5493 30.3301 59.3118 28.4294 59.2269 26.4524C59.0911 23.4316 59.4136 20.4024 58.9639 17.3902C58.7687 16.6944 58.6329 15.9901 58.6584 15.2688Z" fill="#0C0C0E"/>
<path d="M134.924 120.52C134.873 123.999 134.482 127.52 134.873 130.957C135.322 134.936 133.591 135.751 130.172 135.462C127.541 135.242 124.877 135.377 122.23 135.326C121.093 135.309 119.939 135.182 119.616 136.701C116.545 137.592 113.295 137.015 110.164 138.161C107.415 139.162 106.532 140.579 106.464 143.337C106.413 145.475 107.559 148.182 104.682 149.59C102.035 145.398 102.883 140.901 103.851 136.548C104.385 134.139 106.888 133.969 109.052 133.706C111.937 133.358 115.442 134.885 117.563 132.535C119.472 130.414 118.276 127.087 118.454 124.304C118.666 121.054 120.151 119.222 123.452 119.34C127.329 119.485 131.377 118.237 135.025 120.571L134.924 120.52Z" fill="#060606"/>
<path d="M119.752 30.6695C123.664 30.6525 127.592 30.7544 131.496 30.5762C133.973 30.4574 134.966 31.0938 134.847 33.8006C134.661 37.8395 134.941 41.8955 135.017 45.9514L135.051 45.9344C130.24 48.2339 125.267 47.3175 120.304 46.6472C119.803 46.4096 119.421 46.0447 119.141 45.5611C118.335 40.5463 117.393 35.5316 119.786 30.6525L119.752 30.6695Z" fill="#050505"/>
<path d="M29.9189 29.872C30.0292 25.2646 30.148 20.6571 30.2583 16.0411C35.2731 15.8035 40.2964 15.5065 45.3026 16.2193C47.0845 20.971 46.9148 25.7312 45.4384 30.5169C40.9752 33.1304 36.2319 31.8491 31.5481 31.5097C30.759 31.2127 30.2668 30.6187 29.9189 29.872Z" fill="#030204"/>
<path d="M45.099 150.269C40.9073 150.269 36.7071 150.286 32.5154 150.269C31.1832 150.269 29.4692 150.676 30.0123 148.283C30.3856 145.67 30.4026 143.065 30.0038 140.451C29.9868 139.153 29.9698 137.863 29.9529 136.565C30.3007 135.725 30.9541 135.063 31.8026 135.029C36.3507 134.817 40.9582 133.757 45.3875 135.801C46.8809 140.68 47.3136 145.534 45.0481 150.32L45.099 150.269Z" fill="#030203"/>
<path d="M15.7146 135.208C14.3316 130.388 15.1461 125.509 15.2989 120.647L15.3668 120.621C20.2033 118.356 25.0908 118.704 29.9953 120.367C31.879 124.525 30.8862 128.869 30.759 133.146C30.708 134.809 29.5286 135.496 27.857 135.428C23.818 135.275 19.7621 135.7 15.7146 135.208Z" fill="#030203"/>
<path d="M105.259 149.582C105.285 148.462 105.2 147.325 105.361 146.23C105.768 143.43 103.783 139.111 106.447 138.11C110.435 136.608 114.941 134.105 119.616 136.701C119.574 141.054 121.186 146.765 119.039 149.395C116.791 152.144 110.843 150.031 106.524 150.286C106.108 150.311 105.675 150.235 105.259 150.21L105.327 150.294C105.039 150.159 104.937 150.014 105.013 149.845C105.09 149.667 105.174 149.582 105.259 149.582Z" fill="#030302"/>
<path d="M15.7146 135.208C19.4906 135.114 23.258 134.936 27.0339 134.953C29.011 134.961 29.7662 134.274 29.7238 132.263C29.6474 128.343 29.7662 124.414 29.8001 120.486C28.4934 119.153 28.4764 117.439 28.4679 115.759C28.4085 103.99 28.4085 92.2213 28.4679 80.4523C28.4764 78.9165 28.5189 77.3552 29.4522 76.0146C29.8765 75.5309 30.3686 75.463 30.9117 75.8194C31.9384 77.1176 31.9978 78.6789 31.9978 80.2147C31.9978 93.5196 32.1845 106.824 31.9129 120.121C32.0148 123.226 32.0402 126.332 31.9299 129.438C31.8281 132.458 32.9566 133.875 36.1216 133.74C39.083 133.612 42.0528 133.621 45.0226 133.774C46.9912 133.655 48.9598 133.714 50.9368 133.714C58.1493 133.714 58.1238 133.714 58.2341 126.663C58.2681 124.584 57.8947 122.403 59.3712 120.579C62.307 121.054 61.484 123.506 61.5858 125.212C62.0695 133.383 62.0101 133.324 70.0116 133.765C71.7341 133.858 74.1524 133.027 74.7294 135.895C71.0553 135.878 67.3812 135.997 63.7241 135.801C61.0852 135.657 60.4233 136.692 60.3215 139.213C60.1688 142.861 61.6537 146.671 59.439 150.158C58.1832 148.792 58.285 147.078 58.2256 145.415C57.9626 137.439 57.9626 137.431 49.7404 137.134C48.0519 137.074 46.3718 137.04 45.0057 135.844C39.9994 136.243 34.9167 134.995 29.9698 136.54C27.4837 134.554 24.5987 135.971 21.9258 135.615C19.8724 135.36 17.7426 136.039 15.7146 135.208Z" fill="#755A08"/>
<path d="M23.0374 30.7799C25.566 33.7073 24.9805 36.9148 23.9538 40.1985C23.4617 41.7683 22.681 43.1429 20.95 43.2363C19.4991 43.3211 18.3451 42.4471 17.6408 41.081C17.0723 39.9864 16.6565 38.7391 15.2989 38.2894C14.9425 29.0659 13.4576 30.6102 23.0374 30.7799Z" fill="#020203"/>
<path d="M14.5607 45.9938C14.5607 54.7506 14.5607 63.5073 14.5607 72.5102C13.186 72.0605 12.1678 71.7295 11.1496 71.3986C11.0732 62.8879 11.5654 54.3518 10.3011 45.8835C11.7351 45.5186 13.1606 45.4253 14.5607 45.9938Z" fill="#020203"/>
<path d="M30.3856 75.6499C30.2159 75.7008 30.0377 75.7432 29.868 75.8026C29.6728 75.6075 29.4777 75.4038 29.2825 75.2087C27.7806 71.56 28.5867 67.7416 28.4849 63.9997C28.3576 59.5279 28.4255 55.0477 28.4764 50.5675C28.4934 48.8705 28.6376 47.1989 29.7832 45.8073C29.7747 40.6992 29.7577 35.5911 29.7492 30.483C29.5965 30.22 29.6559 30.0163 29.9274 29.8721C30.182 30.1775 30.4365 30.483 30.6911 30.78C32.6596 33.2492 31.8366 36.1681 31.9469 38.9173C32.142 43.423 32.3118 43.6691 36.758 43.7963C38.8539 43.8557 40.9921 43.5842 43.0201 44.3394C43.8008 44.6364 44.6068 45.0352 44.1741 46.1552C41.917 47.7674 39.3121 47.1565 36.8429 47.2668C32.5069 47.462 32.0996 47.7844 32.0317 52.1967C31.9469 58.2212 32.0742 64.2457 31.9723 70.2702C31.9384 72.1709 32.3118 74.2753 30.3856 75.6499Z" fill="#7F6410"/>
<path d="M45.0481 16.3379C40.1182 16.2446 35.1882 16.1428 30.2583 16.0494C35.1119 14.8191 40.0418 15.7864 44.9208 15.5064C49.5028 15.43 54.0848 15.3452 58.6584 15.2688C59.0317 15.5149 59.4136 15.7525 59.7869 15.9985C59.5324 16.4652 59.1505 16.8131 58.6669 17.0337C54.0933 17.5683 49.4943 18.4253 45.0481 16.3379Z" fill="#7F6410"/>
<path d="M0.220612 115.505C1.44248 115.53 2.61345 115.471 2.67284 113.808C4.87052 114.147 6.75424 115.216 8.6125 116.353C5.96511 118.084 3.01225 116.812 0.220612 117.202C0.220612 116.633 0.220612 116.073 0.220612 115.505Z" fill="#020203"/>
<path d="M30.0123 140.443C30.8014 143.057 30.8014 145.67 30.0207 148.283C30.0207 145.67 30.0123 143.057 30.0123 140.443Z" fill="#755A08"/>
<path d="M74.7379 135.912C71.1911 133.892 67.3642 135.267 63.6817 135.106C61.1361 134.996 60.3639 134.3 60.2536 131.703C60.1009 128.021 61.45 124.194 59.4815 120.639C54.6449 122.7 49.7998 122.599 44.9547 120.664C43.8008 119.247 43.7583 117.533 43.7583 115.844C43.7074 94.0034 43.6989 72.1624 43.7583 50.3215C43.7583 49.3372 43.8262 48.3529 44.0893 47.3941C44.2674 46.8849 44.5135 46.4013 44.819 45.9516C45.1754 45.5443 45.6166 45.2558 46.1257 45.0776C50.7332 44.6703 55.3407 44.3733 59.9312 45.2897C60.4148 45.5358 60.7712 45.9091 61.0258 46.3843C62.1967 51.0088 61.5773 55.7011 61.4925 60.368C61.8234 73.6134 61.7725 86.8673 61.5773 100.121C61.5349 102.786 62.307 104.16 65.1072 103.982C65.6672 103.948 64.9629 103.957 65.5314 103.982C73.2021 104.313 73.4481 104.075 73.4736 96.5405C73.4906 91.0421 73.3548 85.5436 73.533 80.0452C73.6857 75.5311 74.67 74.4195 79.0569 74.4025C82.6546 74.3856 86.3881 73.4522 89.8162 75.3868C92.2344 78.0003 90.9956 81.2586 91.352 84.2369C91.5726 86.0697 90.6138 88.6577 93.1848 89.2602C96.1546 89.956 99.3111 90.1426 102.272 88.9547C103.079 88.6323 103.079 87.5377 103.146 86.7061C103.24 85.5861 103.206 84.466 103.206 83.3375C103.206 77.0075 103.163 77.0245 96.9522 76.8972C94.4915 76.8463 91.8356 77.4657 89.7822 75.3529C87.8391 71.0254 88.5943 66.5283 89.1204 62.1159C89.4343 59.4601 91.8441 59.1631 93.9994 59.0952C99.7608 58.9 105.522 59.0358 111.284 59.0103C118.301 58.9849 118.259 58.9849 118.42 52.1118C118.471 49.9311 117.953 47.5468 119.913 45.7904C124.962 45.8413 130.011 45.8837 135.059 45.9346C134.966 54.5047 134.796 63.0748 134.805 71.6448C134.822 87.9535 134.949 104.271 135.025 120.579C130.927 120.554 126.829 120.664 122.739 120.452C120.244 120.325 119.582 121.266 119.71 123.608C119.888 126.705 119.667 129.828 119.786 132.925C119.854 134.741 119.251 135.428 117.393 135.352C114.288 135.233 111.165 135.479 108.068 135.284C105.395 135.114 104.521 136.184 104.75 138.712C105.081 142.327 104.19 146.001 105.259 149.59C105.149 149.836 105.166 150.074 105.327 150.303C96.197 150.303 87.0669 150.227 77.9453 150.345C75.5695 150.379 74.7464 149.7 74.8397 147.282C74.9755 143.489 74.7803 139.705 74.7379 135.912Z" fill="#FEBF01"/>
<path d="M45.0057 135.869C45.9899 135.861 46.9742 135.852 47.9585 135.844C59.9397 135.785 59.9397 135.785 59.6002 147.655C59.5748 148.495 59.4984 149.344 59.4475 150.184C54.6534 150.226 49.8677 150.269 45.0735 150.32C45.0481 145.5 45.0226 140.681 45.0057 135.869Z" fill="#FBBF05"/>
<path d="M29.868 75.8025C29.8426 90.7026 29.8256 105.594 29.8001 120.494C24.989 120.537 20.1779 120.588 15.3668 120.63C15.3668 105.594 15.3752 90.5499 15.3752 75.514C20.1439 73.6982 24.8957 73.4267 29.6135 75.7177L29.868 75.8025Z" fill="#FCBE05"/>
<path d="M29.6219 75.7177C24.8787 75.6498 20.1354 75.582 15.3837 75.5141C15.3158 66.2906 15.2564 57.0672 15.1886 47.8437C15.1801 46.8001 15.2225 45.8497 16.5632 45.6885C20.6021 45.4255 24.6411 45.4255 28.6801 45.6885C29.0534 45.7224 29.4183 45.7649 29.7916 45.7988C29.7238 55.7774 29.6728 65.7476 29.6219 75.7177Z" fill="#FCFDFC"/>
<path d="M8.61251 116.353C6.12633 116.684 4.022 116.141 2.67285 113.808C1.18793 109.353 2.64739 106.112 6.84758 104.203C8.53614 103.43 9.6477 104.551 9.80044 105.603C10.318 109.234 11.6332 113.078 8.61251 116.353Z" fill="#020202"/>
<path d="M28.6716 45.6885C24.6326 46.0618 20.5852 46.1043 16.5547 45.6885C20.5936 44.9757 24.6326 44.9078 28.6716 45.6885Z" fill="#7F6410"/>
<path d="M90.0707 75.6159C86.1081 75.6159 82.1455 75.7347 78.1999 75.582C75.6373 75.4886 74.7294 76.3796 74.7718 78.993C74.9076 86.4855 74.7124 93.978 74.8737 101.47C74.9331 104.355 74.1354 105.611 71.0808 105.382C67.5679 105.119 63.0622 106.494 60.7627 104.78C58.3444 102.981 60.4573 98.3224 60.3894 94.9113C60.1603 83.4987 60.2791 72.0776 60.2706 60.6565C61.6452 58.7218 63.741 59.1206 65.6332 59.1121C74.0676 59.0612 73.4906 59.3752 73.533 51.0003C73.5415 49.4729 73.4991 47.9201 74.1015 46.4607C74.3221 46.0025 74.653 45.6376 75.0858 45.3746C78.0471 44.1866 81.1697 44.6194 84.2074 44.7042C87.6948 44.806 88.8828 43.3466 88.8403 39.9695C88.8064 36.813 88.0852 33.5207 89.8077 30.5169C92.472 28.735 95.4928 29.5157 98.3778 29.4054C100.482 29.329 102.544 29.0066 104.64 28.8623C104.86 29.4817 105.081 30.1011 105.31 30.7206C106.371 33.894 105.692 37.1693 105.717 40.3852C105.743 43.4569 106.931 44.6448 110.003 44.7042C113.329 44.7636 116.816 43.8387 119.93 45.8497L119.922 45.7734C119.871 49.439 119.676 53.1046 119.82 56.7617C119.93 59.4855 119.039 60.5037 116.222 60.4443C108.755 60.2916 101.271 60.5122 93.8042 60.334C90.8004 60.2576 89.8416 61.2928 90.0028 64.2203C90.215 68.0131 90.0537 71.8315 90.0537 75.6414L90.0707 75.6159Z" fill="#D58100"/>
<path d="M104.631 28.8792C104.241 30.678 102.892 30.6865 101.441 30.678C97.5801 30.661 93.7109 30.712 89.8501 30.7289C85.0729 32.8163 80.2024 32.2054 75.3234 31.2041C75.1367 31.0259 74.9415 30.8392 74.7549 30.6526C74.8058 26.7154 74.9415 22.7698 74.8567 18.8326C74.8143 16.7028 75.4591 15.8204 77.7162 15.8458C85.879 15.9137 94.0418 15.8628 102.213 15.778C104.088 15.761 105.03 16.0834 104.86 18.3235C104.589 21.8279 104.691 25.3578 104.631 28.8792Z" fill="#F8BC06"/>
<path d="M119.922 45.8666C115.705 45.8836 111.496 45.9005 107.279 45.909C105.964 45.909 104.521 45.8751 104.597 44.0762C104.793 39.63 103.723 35.1073 105.293 30.7374C110.121 30.712 114.949 30.678 119.778 30.6526C119.828 35.7268 119.871 40.7924 119.922 45.8666Z" fill="#FDBE03"/>
<path d="M61.2124 30.6866C65.7266 30.6781 70.2407 30.6696 74.7549 30.6611L74.9161 30.8139C76.7659 35.888 76.9271 40.9537 74.7634 45.9855L74.8312 45.9176C70.0116 48.0643 65.1835 48.0559 60.3554 45.9345L60.2112 45.8073C58.319 41.1998 59.159 36.4735 59.6766 31.7812C59.753 31.043 60.3809 30.6102 61.2124 30.6866Z" fill="#FCBE05"/>
<path d="M61.2124 30.6867C59.4221 34.0892 60.7542 37.7294 60.4233 41.2423C60.2791 42.7611 60.2791 44.2885 60.2112 45.8073C55.434 46.2401 50.6568 46.1977 45.8712 45.8498C47.3476 42.7187 50.2495 43.983 52.5575 43.8642C58.1153 43.6012 58.1917 43.6521 58.2256 38.0773C58.2426 35.5402 58.1747 32.9946 58.2766 30.4491C58.5566 25.7313 57.0717 20.8777 59.4305 16.3381C59.5493 16.2193 59.6681 16.109 59.7954 15.9902C61.0597 19.3589 60.1179 22.8548 60.4064 26.2828C60.5251 27.7932 60.1263 29.3714 61.2124 30.6867Z" fill="#7F6410"/>
<path d="M44.3014 45.8496C41.3061 44.6193 38.1411 45.1369 35.1204 45.3575C31.2087 45.6375 30.165 44.1271 30.4959 40.5209C30.7929 37.2965 30.6317 34.0297 30.6826 30.7883C35.5022 30.7629 40.3133 30.7459 45.1329 30.7205C45.3111 30.9156 45.4808 31.1193 45.659 31.3144C46.6178 36.2528 47.2882 41.1827 45.0566 45.9939L45.1329 45.909C44.8275 46.2399 44.5559 46.2145 44.3014 45.8496Z" fill="#FCBD06"/>
<path d="M59.4221 16.3466C59.4136 21.1323 59.3966 25.9095 59.3881 30.6951C54.6024 32.774 49.8253 32.7825 45.0566 30.6357L45.1329 30.7121C45.1075 25.918 45.0735 21.1323 45.0481 16.3381C49.8422 16.3381 54.6279 16.3381 59.4221 16.3466Z" fill="#FBBE06"/>
<path d="M44.3014 45.8496C44.5729 45.9005 44.8529 45.9175 45.1329 45.909C45.1075 70.8216 45.0905 95.7343 45.0651 120.647C44.8614 120.817 44.6662 120.995 44.4711 121.173C39.8212 121.979 35.1713 122.929 30.6741 120.52C30.5808 105.569 30.4789 90.6092 30.3856 75.6582C30.4535 67.2154 30.7165 58.7641 30.4874 50.3213C30.3856 46.6727 31.599 45.7054 35.0185 45.9854C38.0902 46.2314 41.2043 45.909 44.3014 45.8496Z" fill="#010000"/>
<path d="M45.0651 120.647C49.8677 120.647 54.6703 120.647 59.473 120.647C59.4899 124.143 59.2778 127.664 59.5748 131.143C59.8548 134.461 58.4887 135.233 55.4849 135.038C51.9975 134.809 48.4931 134.978 44.9887 134.97C43.071 130.15 42.9437 125.339 45.1329 120.562L45.0651 120.647Z" fill="#040303"/>
<path d="M45.1329 120.562C45.082 125.365 45.0396 130.167 44.9887 134.97C41.1958 134.987 37.3944 134.894 33.6015 135.063C31.1747 135.174 30.3771 134.24 30.4874 131.89C30.6656 128.106 30.6232 124.304 30.6741 120.511C35.4937 120.528 40.3133 120.545 45.1329 120.562Z" fill="#FDBE02"/>
<path d="M105.31 105.314C104.156 109.175 104.75 113.138 104.852 117.041C104.928 119.858 103.927 120.554 101.212 120.579C89.7907 120.672 89.918 120.757 89.8586 109.268C89.8416 105.976 91.0211 105.136 94.0163 105.289C97.7923 105.484 101.594 105.365 105.378 105.382L105.31 105.314Z" fill="#FCFBFA"/>
<path d="M90.0368 75.6498C93.7024 75.6328 97.368 75.7686 101.025 75.565C103.885 75.4037 104.877 76.5917 104.538 79.2645C104.504 79.5445 104.53 79.8245 104.538 80.113C104.614 91.7208 104.623 91.6614 92.9133 90.9063C90.7156 90.762 89.9349 90.0068 89.9943 87.8685C90.1047 83.7871 90.0537 79.6973 90.0707 75.6159L90.0368 75.6498Z" fill="#D48103"/>
<path d="M105.387 105.382C105.234 104.695 105.039 104.016 104.945 103.32C103.316 91.5172 105.777 89.0734 117.537 90.6347C119.082 90.8383 119.888 91.3559 119.828 92.9427C119.82 93.2227 119.794 93.5027 119.761 93.7827C119.311 97.5247 121.483 102.506 118.895 104.695C116.714 106.528 111.92 105.255 108.28 105.34C107.296 105.365 106.303 105.314 105.319 105.306C105.31 105.314 105.387 105.382 105.387 105.382Z" fill="#FCFCFC"/>
<path d="M45.0566 30.6357C49.8337 30.6527 54.6109 30.6782 59.3881 30.6951C59.439 34.5983 59.4221 38.51 59.5663 42.4132C59.6512 44.5939 58.7602 45.2728 56.6219 45.3322C53.0327 45.434 49.3925 44.6449 45.8627 45.8498C45.5826 45.8667 45.3196 45.9092 45.0566 45.994C45.0566 40.8689 45.0566 35.7523 45.0566 30.6357Z" fill="#030204"/>
<path d="M60.347 45.9345C65.1751 45.926 69.9947 45.926 74.8228 45.9175C74.8567 49.6934 74.7803 53.4778 74.95 57.2537C75.0688 59.7739 74.2203 60.8006 71.6069 60.6903C67.8309 60.529 64.0465 60.6648 60.2706 60.6733C59.9821 55.7519 59.8633 50.8389 60.347 45.9345Z" fill="#FDFDFD"/>
<path d="M74.7549 45.9855C74.8058 40.9283 74.8567 35.8711 74.9076 30.8139C79.8884 30.7885 84.8608 30.763 89.8416 30.7375C89.8586 34.8189 89.7737 38.9088 89.9434 42.9902C90.0368 45.2727 89.1543 45.8752 86.9991 45.8328C82.9261 45.7479 78.8363 45.9176 74.7549 45.9855Z" fill="#FAF9F5"/>
</g>
<defs>
<clipPath id="clip0_26_1060">
<rect width="148.237" height="164.647" fill="white" transform="translate(0 0.767578)"/>
</clipPath>
</defs>
</svg>
