<?xml version="1.0" encoding="utf-8"?>
<!-- Generator: Adobe Illustrator 24.1.2, SVG Export Plug-In . SVG Version: 6.00 Build 0)  -->
<svg version="1.1" id="레이어_1" xmlns="http://www.w3.org/2000/svg" xmlns:xlink="http://www.w3.org/1999/xlink" x="0px"
	 y="0px" viewBox="0 0 20 20" style="enable-background:new 0 0 20 20;" xml:space="preserve">
<style type="text/css">
	.st0{fill:none;stroke:#040000;stroke-width:2;stroke-linecap:round;stroke-linejoin:round;stroke-miterlimit:10;}
</style>
<path class="st0" d="M1.7,2.04c0.06-0.01,0.05,0.03,0.07,0.07c0,0.05,0.02,0.09,0.06,0.12c0.03,0.03,0.07,0.06,0.1,0.09
	C2,2.4,2.03,2.49,2.09,2.58c0.05,0.08,0.12,0.15,0.18,0.23c0.09,0.13,0.21,0.21,0.32,0.31c0.1,0.1,0.16,0.22,0.28,0.3
	C3.08,3.59,3.3,3.67,3.46,3.9c0.05,0.07,0.07,0.15,0.13,0.22C3.7,4.25,3.83,4.36,3.95,4.48c0.23,0.22,0.49,0.4,0.7,0.63
	C4.83,5.31,5.04,5.47,5.2,5.68C5.33,5.84,5.42,6.04,5.56,6.2c0.21,0.26,0.44,0.49,0.69,0.7c0.34,0.28,0.55,0.67,0.8,1.03
	C7.3,8.29,7.54,8.66,7.81,9c0.16,0.2,0.31,0.4,0.46,0.61c0.13,0.18,0.29,0.34,0.45,0.5c0.07,0.07,0.15,0.14,0.2,0.22
	c0.14,0.21,0.3,0.42,0.48,0.6c0.1,0.1,0.22,0.22,0.3,0.32c0,0.01,0,0.03,0.01,0.04c0.02,0.01,0.04,0.03,0.06,0.05
	c0.03,0.03,0.06,0.06,0.08,0.1c0.08-0.31,0.33-0.62,0.54-0.85c0.32-0.35,0.68-0.66,1.03-0.98c0.4-0.38,0.76-0.79,1.15-1.18
	c0.25-0.25,0.5-0.49,0.75-0.74c0.16-0.17,0.36-0.3,0.52-0.47c0.11-0.11,0.21-0.23,0.32-0.35c0.16-0.18,0.36-0.33,0.51-0.52
	c0.17-0.2,0.34-0.4,0.5-0.6c0.14-0.17,0.24-0.36,0.39-0.53c0.1-0.12,0.24-0.22,0.33-0.35c0.1-0.13,0.17-0.28,0.26-0.42
	c0.09-0.12,0.14-0.25,0.23-0.37c0.08-0.11,0.15-0.22,0.24-0.32c0.11-0.14,0.21-0.29,0.35-0.41c0.08-0.07,0.17-0.11,0.24-0.18
	c0.09-0.08,0.25-0.28,0.38-0.26"/>
<path class="st0" d="M16.39,1.79c0.32-0.04,0.67,0,0.99,0c0.25,0,0.5,0,0.76,0c-0.02,0.1-0.01,0.19,0.02,0.28
	c0.06,0.17,0.14,0.33,0.23,0.49c0.04,0.08,0.09,0.17,0.15,0.25c0.03,0.04,0.06,0.06,0.07,0.1c0.03,0.09,0.02,0.2,0.06,0.3
	c0.07,0.21,0.13,0.45,0.13,0.68c0,0.19-0.02,0.39,0,0.58c0.02,0.11,0.05,0.21,0.06,0.32c0.01,0.09,0,0.17,0,0.26
	c0,0.52,0,1.04,0,1.56c0,0.28,0,0.55,0,0.83c0,0.21,0.03,0.4,0.04,0.61c0.02,0.34,0,0.69,0,1.03c0,0.4,0,0.79,0,1.19
	c0,0.96,0,1.93,0,2.89c0,0.15,0,0.3,0,0.45c0,0.18,0.04,0.42-0.01,0.59c-0.01,0.04-0.05,0.09-0.06,0.13
	c-0.02,0.09-0.03,0.19-0.04,0.28c-0.03,0.18-0.1,0.35-0.11,0.54c-0.01,0.15-0.02,0.3-0.03,0.45c-0.02,0.24-0.01,0.48-0.01,0.72
	c0,0.11,0.04,0.32,0,0.43c-0.03,0.07-0.12,0.09-0.15,0.16c-0.09,0.17-0.07,0.4-0.12,0.58c-0.04,0.15-0.1,0.32-0.19,0.45
	c-0.03,0.05-0.08,0.08-0.12,0.12c-0.03,0.04-0.02,0.06-0.04,0.09c-0.04,0.06-0.13,0.13-0.19,0.18c-0.07,0.06-0.14,0.11-0.23,0.14
	c-0.2,0.07-0.4,0.17-0.61,0.21c-0.3,0.06-0.6,0.17-0.9,0.22c-0.19,0.03-0.4,0.01-0.59,0.01c-0.44,0-0.87,0-1.31,0
	c-0.42,0-0.84,0-1.26,0c-0.26,0-0.51-0.04-0.77-0.04c-0.37,0-0.74,0-1.11,0c-0.09,0-0.16-0.03-0.25-0.04c-0.16-0.01-0.33,0-0.49,0"
	/>
<path class="st0" d="M1.48,2.04c0.06,0,0.13,0.01,0.19,0C1.82,2.01,1.96,1.93,2.11,1.9C2.4,1.83,2.69,1.76,2.99,1.72
	C3.34,1.67,3.7,1.68,4.05,1.68c0.51,0,1.01-0.03,1.51,0.05C5.93,1.8,6.28,1.82,6.65,1.82c0.22,0,0.44-0.02,0.66-0.03
	c0.22-0.01,0.45,0.03,0.67,0.03C8.56,1.83,9.13,1.86,9.7,1.86c0.98,0,1.96,0,2.94,0c0.63,0,1.26,0,1.89,0
	c0.33,0,0.68,0.02,1.01-0.03"/>
<path class="st0" d="M5.67,1.86c-0.33,0-0.68,0.02-1.01-0.03C4.5,1.81,4.34,1.82,4.18,1.83c-0.14,0-0.24-0.02-0.37-0.03
	c-0.32-0.04-0.67,0-0.99,0c-0.25,0-0.5,0-0.76,0c0.02,0.1,0.01,0.19-0.02,0.28C1.98,2.23,1.9,2.39,1.81,2.55
	C1.77,2.63,1.72,2.72,1.67,2.8C1.63,2.84,1.61,2.85,1.59,2.9C1.56,3,1.57,3.1,1.54,3.2C1.46,3.41,1.41,3.65,1.4,3.88
	c0,0.19,0.02,0.39,0,0.58C1.39,4.57,1.35,4.67,1.34,4.78c-0.01,0.09,0,0.17,0,0.26c0,0.52,0,1.04,0,1.56c0,0.28,0,0.55,0,0.83
	c0,0.21-0.03,0.4-0.04,0.61c-0.02,0.34,0,0.69,0,1.03c0,0.4,0,0.79,0,1.19c0,0.96,0,1.93,0,2.89c0,0.15,0,0.3,0,0.45
	c0,0.18-0.04,0.42,0.01,0.59c0.01,0.04,0.05,0.09,0.06,0.13c0.02,0.09,0.03,0.19,0.04,0.28c0.03,0.18,0.1,0.35,0.11,0.54
	c0.01,0.15,0.02,0.3,0.03,0.45c0.02,0.24,0.01,0.48,0.01,0.72c0,0.11-0.04,0.32,0,0.43c0.03,0.07,0.12,0.09,0.15,0.16
	c0.09,0.17,0.07,0.4,0.12,0.58c0.04,0.15,0.1,0.32,0.19,0.45c0.03,0.05,0.08,0.08,0.12,0.12c0.03,0.04,0.02,0.06,0.04,0.09
	c0.04,0.06,0.13,0.13,0.19,0.18c0.07,0.06,0.14,0.11,0.23,0.14c0.2,0.07,0.4,0.17,0.61,0.21c0.3,0.06,0.6,0.17,0.9,0.22
	c0.19,0.03,0.4,0.01,0.59,0.01c0.44,0,0.87,0,1.31,0c0.42,0,0.84,0,1.26,0c0.26,0,0.51-0.04,0.77-0.04c0.37,0,0.74,0,1.11,0
	c0.09,0,0.16-0.03,0.25-0.04c0.16-0.01,0.33,0,0.49,0"/>
</svg>
