<svg width="182" height="156" viewBox="0 0 182 156" fill="none" xmlns="http://www.w3.org/2000/svg">
<g clip-path="url(#clip0_23_42)">
<path d="M6.46239 149.485L6.4487 149.512C6.4487 149.498 6.4487 149.498 6.4487 149.485C6.46239 149.485 6.46239 149.485 6.46239 149.485Z" fill="black"/>
<path d="M45.4946 13.0034H45.4797V13.0185H45.4946V13.0034Z" fill="black"/>
<path d="M168.968 45.4983H168.954V45.5134H168.968V45.4983Z" fill="black"/>
<path d="M168.994 39.7551C168.94 41.665 168.953 43.5749 168.94 45.4983H168.479C138.064 45.4983 52.2396 45.5119 39.7351 45.4983C39.1119 45.4983 38.9628 45.6473 38.9764 46.2568C39.017 47.95 38.9628 49.6296 39.0035 51.3363C39.017 51.8646 38.8816 52.0542 38.3126 52.0271C36.6462 52 34.9798 52.0542 33.3134 52.0135C32.6632 51.9865 32.5141 52.2032 32.5141 52.8263C32.5412 56.6595 32.5141 60.5064 32.5412 64.3397C32.5412 64.8544 32.4058 65.0169 31.8774 65.0034C30.1704 64.9899 28.4498 65.0305 26.7428 64.9898C26.1603 64.9763 26.0248 65.1659 26.0248 65.7348C26.0383 69.5681 26.0248 73.415 26.0519 77.2482C26.0519 77.8713 25.8622 78.0339 25.2661 78.0203C23.5997 77.9797 21.9334 78.0339 20.267 77.9932C19.6303 77.9661 19.5083 78.1693 19.5083 78.7653C19.5354 82.6121 19.5083 86.4454 19.5354 90.2923C19.549 90.8612 19.3864 91.0372 18.8038 91.0237C17.1104 90.9831 15.4305 91.0373 13.7235 90.9966C13.1544 90.9695 13.0054 91.1592 13.0054 91.7281C13.0325 95.602 13.019 99.4624 13.0325 103.336C13.0461 103.837 12.9106 104.014 12.3822 104C10.6481 103.959 8.91401 104.014 7.17991 103.973C6.65154 103.959 6.51607 104.122 6.51607 104.637C6.52961 110.705 6.52961 116.76 6.51607 122.828C6.51607 123.302 6.65154 123.464 7.13926 123.464C8.85982 123.424 10.5668 123.41 12.2738 123.464C12.8699 123.464 12.9919 123.275 12.9919 122.719C12.9783 118.846 12.9919 114.985 12.9783 111.111C12.9783 110.61 13.1003 110.434 13.6286 110.448C15.5795 110.475 17.5439 110.475 19.5083 110.475H19.5354C19.5354 110.475 19.5354 110.475 19.5354 110.488C19.5219 114.538 19.5083 118.588 19.5354 122.625C19.5354 123.288 19.427 123.546 18.6819 123.519C17.0833 123.464 15.4847 123.519 13.8996 123.492C13.2357 123.464 12.9919 123.586 12.9919 124.345C13.0461 128.151 13.0054 131.971 13.0325 135.791C13.0325 136.346 12.8699 136.508 12.328 136.495C10.621 136.454 8.91401 136.508 7.19345 136.454C6.638 136.441 6.50252 136.63 6.50252 137.172C6.52961 140.938 6.51607 144.703 6.51607 148.482C6.51607 148.808 6.46188 149.16 6.44833 149.485H0.920861C-0.122313 149.485 0.0131639 149.593 0.0131639 148.618C-0.000383805 137.741 -0.000383805 43.6562 -0.000383805 7.50404C-0.000383805 6.37979 -0.122313 6.50169 1.01569 6.50169C2.64142 6.50169 4.2536 6.48815 5.86578 6.51524C6.35349 6.52878 6.51607 6.39333 6.50252 5.89216C6.47542 4.15837 6.51607 2.43813 6.47542 0.690805C6.47542 0.216723 6.58381 0 7.12571 0C17.5439 0.0270904 27.9486 0.0135452 38.3667 0C38.8816 0 39.0441 0.148997 39.0306 0.663715C39.0035 2.31623 39.017 3.9552 39.017 5.59417C39.017 6.50169 39.017 6.50169 39.8841 6.50169H44.9645C45.3032 6.50169 45.5335 6.54233 45.5335 6.97578C45.4928 8.99401 45.4928 10.9852 45.4793 13.0034C43.4471 13.1117 41.415 13.0169 39.3828 13.0576C38.9222 13.0576 38.9493 12.7596 38.9493 12.448V7.51758C38.9493 6.59651 38.9628 6.59651 38.001 6.59651H7.5186C6.55671 6.59651 6.55671 6.59651 6.55671 7.53113C6.55671 26.0474 6.57026 81.068 6.54316 90.0755C6.54316 90.7257 6.70573 90.9695 7.38312 90.9424C8.9682 90.8883 10.5397 90.8883 12.1248 90.9424C12.8428 90.9695 12.9919 90.7257 12.9919 90.0485C12.9377 86.2694 12.9919 82.5038 12.9512 78.7247C12.9377 78.088 13.1544 77.8713 13.7505 77.8713C15.2814 77.8713 16.7988 77.8713 18.3432 77.8578C19.3728 77.8578 19.3864 77.8578 19.3864 76.8148V65.9922C19.3864 64.895 19.3864 64.895 20.4973 64.895C22.0282 64.895 23.5591 64.8679 25.09 64.9086C25.7538 64.9357 25.9028 64.6919 25.9028 64.0823C25.8622 60.3032 25.8893 56.5241 25.8622 52.7585C25.8622 52.0948 26.0925 51.851 26.7564 51.8646C28.355 51.9052 29.9536 51.851 31.5387 51.8916C32.189 51.9052 32.4193 51.7156 32.4193 51.0383C32.3787 47.4217 32.4057 43.8187 32.3922 40.2157C32.3922 38.7528 32.3516 38.9153 33.6521 38.9153C62.9558 38.9153 139.663 38.9289 148.713 38.9695C149.295 38.9695 149.444 38.7934 149.431 38.2381C149.404 36.5856 149.404 34.9466 149.431 33.3076C149.458 32.7116 149.268 32.5626 148.686 32.5762C146.979 32.6033 145.272 32.5897 143.565 32.5897C143.267 32.5897 142.928 32.6304 142.942 32.1563C142.969 30.1245 142.874 28.0927 142.996 26.061C145.014 25.939 147.06 26.0474 149.079 26.0068C149.553 25.9932 149.499 26.3048 149.499 26.6163C149.499 28.3365 149.526 30.0839 149.485 31.8177C149.485 32.3595 149.648 32.522 150.19 32.5085C151.883 32.4678 153.563 32.522 155.256 32.4814C155.88 32.4543 156.015 32.6846 156.002 33.267C155.974 34.9601 156.015 36.6398 155.988 38.3329C155.974 38.8612 156.123 38.9966 156.638 38.9966C160.499 38.9831 164.374 38.9966 168.235 38.9831C168.872 38.9695 169.007 39.1592 168.994 39.7551Z" fill="black"/>
<path d="M182 59.1654C181.973 63.0529 181.973 66.9404 182 70.8278C182 71.3832 181.837 71.5322 181.296 71.5186C179.358 71.4645 177.421 71.4645 175.484 71.4645C175.47 69.6223 175.47 67.8208 175.456 65.9922C175.443 64.895 175.633 65.0034 174.454 65.0034C144.5 65.0034 59.0409 65.0034 46.279 64.9899C45.6829 64.9763 45.4797 65.0982 45.4932 65.7348C45.5474 67.4686 45.5068 69.2024 45.5068 70.9362C45.5068 71.2748 45.5068 71.5186 45.0462 71.5186C43.0275 71.478 40.9818 71.478 38.9632 71.478V71.4509C38.9632 71.4509 38.9632 71.4509 38.9497 71.4509C37.053 71.4645 35.1563 71.4916 33.2867 71.4509C32.6364 71.4374 32.4603 71.6135 32.4739 72.2636C32.501 76.0427 32.4603 79.8354 32.501 83.6416C32.501 84.3595 32.2842 84.5085 31.6068 84.4949C29.9134 84.4543 28.2334 84.4949 26.54 84.4678C26.1064 84.4543 25.9845 84.6033 25.9845 85.0232C26.0116 86.5403 25.9845 88.0844 25.9981 89.6015C26.0116 92.2022 26.0252 94.8164 26.0387 97.417C24.0607 97.4306 22.0692 97.4441 20.0913 97.4441C19.6713 97.4441 19.4816 97.539 19.4816 98.013C19.5087 102.171 19.5087 106.316 19.5087 110.475C17.5443 110.475 15.5799 110.475 13.629 110.448C13.1006 110.434 12.9787 110.61 12.9787 111.111C12.9923 114.985 12.9787 118.846 12.9923 122.719C12.9923 123.275 12.8703 123.464 12.2742 123.464C10.5672 123.41 8.8602 123.424 7.13964 123.464C6.65193 123.464 6.51645 123.302 6.51645 122.828C6.53 116.76 6.53 110.705 6.51645 104.637C6.51645 104.122 6.65193 103.959 7.18029 103.973C8.91439 104.014 10.6485 103.959 12.3826 104C12.911 104.014 13.0464 103.837 13.0329 103.336C13.0194 99.4624 13.0329 95.602 13.0058 91.7281C13.0058 91.1592 13.1548 90.9695 13.7238 90.9966C15.4308 91.0373 17.1108 90.9831 18.8042 91.0237C19.3868 91.0373 19.5494 90.8612 19.5358 90.2923C19.5087 86.4454 19.5358 82.6122 19.5087 78.7653C19.5087 78.1693 19.6306 77.9662 20.2674 77.9932C21.9337 78.0339 23.6001 77.9797 25.2665 78.0203C25.8626 78.0339 26.0523 77.8713 26.0523 77.2483C26.0252 73.415 26.0387 69.5681 26.0252 65.7348C26.0252 65.1659 26.1606 64.9763 26.7432 64.9899C28.4502 65.0305 30.1708 64.9899 31.8778 65.0034C32.4061 65.017 32.5416 64.8544 32.5416 64.3397C32.5145 60.5064 32.5416 56.6596 32.5145 52.8263C32.5145 52.2032 32.6635 51.9865 33.3138 52.0136C34.9802 52.0542 36.6466 52 38.3129 52.0271C38.8819 52.0542 39.0174 51.8646 39.0039 51.3363C38.9632 49.6296 39.0174 47.95 38.9768 46.2569C38.9632 45.6473 39.1123 45.4983 39.7354 45.4983C52.24 45.5119 138.065 45.4983 168.479 45.4983H168.954C170.918 45.4983 172.869 45.5119 174.833 45.4848C175.362 45.4712 175.511 45.6338 175.497 46.1349C175.47 49.9953 175.511 53.8693 175.47 57.7296C175.456 58.4069 175.687 58.5288 176.296 58.5153C177.963 58.4746 179.629 58.5153 181.296 58.4882C181.797 58.4882 182.014 58.5965 182 59.1654Z" fill="black"/>
<path d="M38.9771 71.4509V71.4783C38.9634 71.4783 38.9634 71.4783 38.9497 71.4783V71.4509C38.9634 71.4509 38.9634 71.4509 38.9771 71.4509Z" fill="black"/>
<path d="M143.01 148.929C143.01 149.431 142.793 149.498 142.386 149.498C140.625 149.485 138.864 149.498 137.103 149.471C136.629 149.471 136.466 149.593 136.48 150.094C136.507 151.801 136.466 153.521 136.507 155.228C136.52 155.851 136.344 156 135.735 156C124.693 155.986 7.69509 155.987 7.69509 155.987C6.48934 155.987 6.50289 155.987 6.48935 154.767C6.48935 153.007 6.4758 151.259 6.46225 149.512C9.36146 149.471 131.535 149.39 135.572 149.417C136.29 149.431 136.466 149.214 136.439 148.523C136.385 146.979 136.425 145.421 136.425 143.877V137.064C136.425 136.752 136.358 136.414 136.886 136.414C138.918 136.441 140.937 136.441 142.983 136.454C142.983 140.613 142.983 144.771 143.01 148.929Z" fill="black"/>
<path d="M142.969 26.061V26.0474C142.983 26.0474 142.983 26.0474 142.996 26.0474L142.969 26.061Z" fill="black"/>
<path d="M142.996 20.4532C142.996 22.3224 142.983 24.1781 142.969 26.0474C142.834 26.0609 142.698 26.0609 142.576 26.0609H52.4297C52.1181 26.0744 51.9555 25.9525 51.9691 25.6275C51.9961 23.5957 51.9013 21.5639 52.0232 19.5321C56.6837 19.5321 116.646 19.505 142.075 19.5186C143.118 19.5186 142.996 19.3967 142.996 20.4532Z" fill="black"/>
<path d="M142.998 136.441H142.983V136.456H142.998V136.441Z" fill="black"/>
<path d="M168.994 96.9294C169.008 97.39 168.832 97.5119 168.398 97.5119C166.637 97.4848 164.876 97.5254 163.128 97.4848C162.586 97.4848 162.464 97.6338 162.464 98.1485C162.491 102.036 162.478 105.923 162.491 109.811C162.491 110.339 162.369 110.515 161.8 110.502C160.093 110.475 158.386 110.515 156.666 110.488C156.11 110.475 155.988 110.664 155.988 111.179C156.002 115.053 155.988 118.913 156.016 122.774C156.016 123.343 155.853 123.519 155.27 123.519C153.563 123.478 151.856 123.519 150.136 123.492C149.607 123.478 149.485 123.641 149.485 124.155C149.513 127.975 149.499 131.781 149.499 135.601C149.499 136.481 149.499 136.481 148.591 136.481C146.722 136.468 144.866 136.454 142.996 136.441C142.969 136.346 142.942 136.278 142.942 136.183C142.942 132.12 142.942 128.043 142.928 123.979C142.928 123.492 143.145 123.397 143.552 123.41C145.245 123.41 146.939 123.383 148.618 123.424C149.242 123.437 149.445 123.288 149.445 122.625C149.404 118.859 149.431 115.094 149.418 111.314C149.404 110.664 149.526 110.393 150.271 110.42C151.87 110.488 153.469 110.393 155.067 110.461C155.812 110.488 155.934 110.217 155.921 109.567C155.894 105.774 155.921 101.982 155.894 98.1891C155.894 97.5661 156.083 97.39 156.693 97.4035C158.4 97.4442 160.107 97.4035 161.827 97.4306C162.275 97.4306 162.424 97.2952 162.424 96.8346C162.396 95.1821 162.41 93.5161 162.41 91.85V85.118C162.41 84.8471 162.302 84.4543 162.789 84.4679C164.849 84.495 166.894 84.3731 168.94 84.5221C168.954 87.8135 168.967 91.0779 168.981 94.3559C168.981 95.2092 168.954 96.0761 168.994 96.9294Z" fill="black"/>
<path d="M168.955 84.5084H168.94V84.5235H168.955V84.5084Z" fill="black"/>
<path d="M175.497 83.9261C175.497 84.3866 175.362 84.5356 174.915 84.522C172.923 84.495 170.945 84.5085 168.954 84.5085C168.954 80.3095 168.94 76.1105 168.926 71.9115C168.913 71.4374 169.224 71.478 169.523 71.478C171.514 71.478 173.492 71.478 175.47 71.4645C175.484 75.6229 175.47 79.7677 175.497 83.9261Z" fill="black"/>
<path d="M149.431 33.3077C149.404 34.9467 149.404 36.5856 149.431 38.2381C149.445 38.7935 149.296 38.9696 148.713 38.9696C139.663 38.9289 62.9562 38.9154 33.6525 38.9154C32.3519 38.9154 32.3926 38.7528 32.3926 40.2157C32.4061 43.8187 32.379 47.4218 32.4197 51.0383C32.4197 51.7156 32.1894 51.9052 31.5391 51.8917C29.954 51.8511 28.3554 51.9052 26.7567 51.8646C26.0929 51.8511 25.8626 52.0949 25.8626 52.7586C25.8897 56.5241 25.8626 60.3033 25.9032 64.0824C25.9032 64.6919 25.7542 64.9357 25.0904 64.9086C23.5595 64.868 22.0286 64.8951 20.4977 64.8951C19.3868 64.8951 19.3868 64.8951 19.3868 65.9922V76.8148C19.3868 77.8578 19.3732 77.8578 18.3436 77.8578C16.7992 77.8714 15.2818 77.8714 13.7509 77.8714C13.1548 77.8714 12.9381 78.0881 12.9516 78.7247C12.9923 82.5038 12.9381 86.2694 12.9923 90.0485C12.9923 90.7258 12.8432 90.9696 12.1252 90.9425C10.5401 90.8883 8.96859 90.8883 7.38351 90.9425C6.70612 90.9696 6.54355 90.7258 6.54355 90.0756C6.57064 81.068 6.5571 26.0475 6.5571 7.53118C6.5571 6.59656 6.5571 6.59656 7.51898 6.59656H38.0013C38.9632 6.59656 38.9497 6.59656 38.9497 7.51763V12.4481C38.9497 12.7596 38.9226 13.0576 39.3832 13.0576C41.4154 13.017 43.4475 13.1118 45.4797 13.0034V13.017H45.4932C45.4797 15.0352 45.4797 17.0534 45.4526 19.0852C45.4526 19.4374 45.5745 19.5729 45.9403 19.5729C47.9725 19.5458 49.9775 19.5458 52.0097 19.5187V19.5322H52.0232C51.9013 21.564 51.9961 23.5958 51.969 25.6276C51.9555 25.9526 52.1181 26.0745 52.4297 26.061H142.576C142.698 26.061 142.834 26.061 142.969 26.0475V26.061H142.996C142.874 28.0928 142.969 30.1246 142.942 32.1563C142.928 32.6304 143.267 32.5898 143.565 32.5898C145.272 32.5898 146.979 32.6033 148.686 32.5762C149.269 32.5627 149.458 32.7117 149.431 33.3077Z" fill="white"/>
<path d="M52.0246 19.5187H52.0097V19.5338H52.0246V19.5187Z" fill="black"/>
<path d="M52.0368 13.5859C52.0097 15.5635 52.0097 17.5411 52.0097 19.5187C49.9775 19.5457 47.9725 19.5457 45.9403 19.5728C45.5745 19.5728 45.4526 19.4374 45.4526 19.0852C45.4797 17.0534 45.4797 15.0352 45.4932 13.017C47.4847 13.0034 49.4492 13.017 51.4407 12.9899C51.8877 12.9899 52.0368 13.1253 52.0368 13.5859Z" fill="black"/>
<path d="M39.0174 83.777C39.0309 84.3459 38.8955 84.5491 38.2994 84.522C36.5924 84.4949 34.8853 84.5356 33.1783 84.5085C32.6364 84.4949 32.5009 84.6575 32.5145 85.1722C32.528 89.0461 32.5145 92.9336 32.528 96.8211C32.5416 97.3493 32.4061 97.5254 31.8507 97.5119C29.9133 97.4306 27.9896 97.5796 26.0522 97.4306C26.0387 97.4306 26.0387 97.4306 26.0387 97.4306C26.0387 97.4306 26.0387 97.4306 26.0387 97.417C26.0251 94.8164 26.0116 92.2021 25.998 89.6015C25.9845 88.0844 26.0116 86.5403 25.9845 85.0232C25.9845 84.6033 26.1064 84.4543 26.54 84.4678C28.2334 84.4949 29.9133 84.4543 31.6068 84.4949C32.2842 84.5085 32.5009 84.3595 32.5009 83.6416C32.4603 79.8354 32.5009 76.0427 32.4739 72.2636C32.4603 71.6134 32.6364 71.4374 33.2867 71.4509C35.1563 71.4915 37.053 71.4645 38.9497 71.4509C38.9632 71.4509 38.9632 71.4509 38.9632 71.4509V71.478C38.9768 74.1735 39.0039 76.869 39.0039 79.5645C39.0174 80.9596 38.9768 82.3683 39.0174 83.777Z" fill="black"/>
<path d="M175.484 71.4645H175.47C173.492 71.478 171.514 71.478 169.523 71.478C169.224 71.478 168.913 71.4374 168.926 71.9115C168.94 76.1105 168.954 80.3095 168.954 84.5085H168.94V84.522C166.894 84.373 164.849 84.4949 162.789 84.4679C162.302 84.4543 162.41 84.8471 162.41 85.118V91.85C162.41 93.516 162.396 95.1821 162.424 96.8346C162.424 97.2952 162.275 97.4306 161.827 97.4306C160.107 97.4035 158.4 97.4442 156.693 97.4035C156.083 97.39 155.894 97.5661 155.894 98.1891C155.921 101.982 155.894 105.774 155.921 109.567C155.934 110.217 155.812 110.488 155.067 110.461C153.468 110.393 151.87 110.488 150.271 110.42C149.526 110.393 149.404 110.664 149.418 111.314C149.431 115.094 149.404 118.859 149.445 122.625C149.445 123.288 149.242 123.437 148.618 123.424C146.938 123.383 145.245 123.41 143.552 123.41C143.145 123.397 142.928 123.492 142.928 123.979C142.942 128.043 142.942 132.12 142.942 136.183C142.942 136.278 142.969 136.346 142.996 136.441H142.983V136.454C140.937 136.441 138.918 136.441 136.886 136.414C136.358 136.414 136.425 136.752 136.425 137.064V143.877C136.425 145.421 136.385 146.979 136.439 148.523C136.466 149.214 136.29 149.431 135.572 149.417C131.535 149.39 9.36146 149.471 6.46225 149.512V149.485C6.46225 149.485 6.46225 149.485 6.4487 149.485C6.46225 149.16 6.51644 148.808 6.51644 148.482C6.51644 144.703 6.52999 140.938 6.50289 137.172C6.50289 136.63 6.63837 136.441 7.19382 136.454C8.91438 136.508 10.6214 136.454 12.3284 136.495C12.8703 136.508 13.0329 136.346 13.0329 135.791C13.0058 131.971 13.0464 128.151 12.9922 124.345C12.9922 123.586 13.2361 123.464 13.8999 123.492C15.485 123.519 17.0837 123.464 18.6823 123.519C19.4274 123.546 19.5358 123.288 19.5358 122.625C19.5087 118.588 19.5222 114.538 19.5358 110.488H24.7788C26.0387 110.488 26.0251 110.488 26.0387 109.269C26.0387 105.327 26.0387 101.372 26.0522 97.4306C27.9896 97.5796 29.9133 97.4306 31.8507 97.5119C32.4061 97.5254 32.5416 97.3493 32.5281 96.8211C32.5145 92.9336 32.5281 89.0461 32.5145 85.1722C32.501 84.6575 32.6364 84.4949 33.1783 84.5085C34.8854 84.5356 36.5924 84.4949 38.2994 84.522C38.8955 84.5491 39.031 84.3459 39.0174 83.777C38.9768 82.3683 39.0174 80.9597 39.0039 79.5645C39.0039 76.869 38.9768 74.1735 38.9632 71.478C40.9818 71.478 43.0275 71.478 45.0461 71.5186C45.5068 71.5186 45.5068 71.2748 45.5068 70.9362C45.5068 69.2024 45.5474 67.4686 45.4932 65.7348C45.4797 65.0982 45.6829 64.9763 46.279 64.9899C59.0409 65.0034 144.5 65.0034 174.454 65.0034C175.633 65.0034 175.443 64.8951 175.456 65.9922C175.47 67.8208 175.47 69.6223 175.484 71.4645Z" fill="white"/>
<path d="M26.0523 97.417C26.0523 97.4305 26.0523 97.4305 26.0523 97.4305C26.0387 101.372 26.0387 105.327 26.0387 109.269C26.0252 110.488 26.0387 110.488 24.7788 110.488H19.5087C19.5087 110.475 19.5087 110.475 19.5087 110.475C19.5087 106.316 19.5087 102.171 19.4816 98.013C19.4816 97.5389 19.6713 97.4441 20.0913 97.4441C22.0692 97.4441 24.0608 97.4305 26.0523 97.417C26.0387 97.417 26.0387 97.417 26.0523 97.417Z" fill="black"/>
</g>
<defs>
<clipPath id="clip0_23_42">
<rect width="182" height="156" fill="white"/>
</clipPath>
</defs>
</svg>
