<svg width="182" height="156" viewBox="0 0 182 156" fill="none" xmlns="http://www.w3.org/2000/svg">
<g clip-path="url(#clip0_25_170)">
<path d="M6.46264 149.485L6.44873 149.512C6.44873 149.498 6.44873 149.498 6.44873 149.485C6.46264 149.485 6.46264 149.485 6.46264 149.485Z" fill="black"/>
<path d="M38.9771 71.4509V71.4781C38.9634 71.4781 38.9634 71.4781 38.9497 71.4781V71.4509C38.9634 71.4509 38.9634 71.4509 38.9771 71.4509Z" fill="black"/>
<path d="M143.01 148.929C143.01 149.431 142.793 149.498 142.387 149.498C140.625 149.485 138.864 149.498 137.103 149.471C136.629 149.471 136.466 149.593 136.48 150.094C136.507 151.801 136.466 153.521 136.507 155.228C136.52 155.851 136.344 156 135.735 156C124.693 155.986 7.69512 155.987 7.69512 155.987C6.48938 155.987 6.50292 155.987 6.48938 154.767C6.48938 153.007 6.47583 151.259 6.46228 149.512C9.36149 149.471 131.535 149.39 135.572 149.417C136.29 149.431 136.466 149.214 136.439 148.523C136.385 146.979 136.426 145.421 136.426 143.877V137.064C136.426 136.752 136.358 136.414 136.886 136.414C138.918 136.441 140.937 136.441 142.983 136.454C142.983 140.613 142.983 144.771 143.01 148.929Z" fill="black"/>
<path d="M142.969 26.0607V26.0474C142.982 26.0474 142.982 26.0474 142.996 26.0474L142.969 26.0607Z" fill="black"/>
<path d="M142.996 20.4532C142.996 22.3224 142.983 24.1781 142.969 26.0474C142.834 26.0609 142.698 26.0609 142.576 26.0609H52.4297C52.1181 26.0744 51.9555 25.9525 51.9691 25.6275C51.9961 23.5957 51.9013 21.5639 52.0232 19.5321C56.6837 19.5321 116.646 19.505 142.075 19.5186C143.118 19.5186 142.996 19.3967 142.996 20.4532Z" fill="black"/>
<path d="M142.998 136.441H142.983V136.456H142.998V136.441Z" fill="black"/>
<path d="M168.994 96.9294C169.008 97.39 168.832 97.5119 168.398 97.5119C166.637 97.4848 164.876 97.5254 163.128 97.4848C162.586 97.4848 162.464 97.6338 162.464 98.1485C162.491 102.036 162.478 105.923 162.491 109.811C162.491 110.339 162.369 110.515 161.8 110.502C160.093 110.475 158.386 110.515 156.666 110.488C156.11 110.475 155.988 110.664 155.988 111.179C156.002 115.053 155.988 118.913 156.016 122.774C156.016 123.343 155.853 123.519 155.27 123.519C153.563 123.478 151.856 123.519 150.136 123.492C149.607 123.478 149.485 123.641 149.485 124.155C149.513 127.975 149.499 131.781 149.499 135.601C149.499 136.481 149.499 136.481 148.591 136.481C146.722 136.468 144.866 136.454 142.996 136.441C142.969 136.346 142.942 136.278 142.942 136.183C142.942 132.12 142.942 128.043 142.928 123.979C142.928 123.492 143.145 123.397 143.552 123.41C145.245 123.41 146.939 123.383 148.618 123.424C149.242 123.437 149.445 123.288 149.445 122.625C149.404 118.859 149.431 115.094 149.418 111.314C149.404 110.664 149.526 110.393 150.271 110.42C151.87 110.488 153.469 110.393 155.067 110.461C155.812 110.488 155.934 110.217 155.921 109.567C155.894 105.774 155.921 101.982 155.894 98.1891C155.894 97.5661 156.083 97.39 156.693 97.4035C158.4 97.4442 160.107 97.4035 161.827 97.4306C162.275 97.4306 162.424 97.2952 162.424 96.8346C162.396 95.1821 162.41 93.5161 162.41 91.85V85.118C162.41 84.8471 162.302 84.4543 162.789 84.4679C164.849 84.495 166.894 84.3731 168.94 84.5221C168.954 87.8135 168.967 91.0779 168.981 94.3559C168.981 95.2092 168.954 96.0761 168.994 96.9294Z" fill="black"/>
<path d="M168.955 84.5084H168.94V84.5233H168.955V84.5084Z" fill="black"/>
<path d="M175.497 83.9261C175.497 84.3866 175.362 84.5356 174.915 84.522C172.923 84.495 170.945 84.5085 168.954 84.5085C168.954 80.3095 168.94 76.1105 168.926 71.9115C168.913 71.4374 169.224 71.478 169.523 71.478C171.514 71.478 173.492 71.478 175.47 71.4645C175.484 75.6229 175.47 79.7677 175.497 83.9261Z" fill="black"/>
<path d="M149.431 33.3077C149.404 34.9467 149.404 36.5856 149.431 38.2381C149.445 38.7935 149.296 38.9696 148.713 38.9696C139.663 38.9289 62.9563 38.9154 33.6526 38.9154C32.352 38.9154 32.3926 38.7528 32.3926 40.2157C32.4062 43.8187 32.3791 47.4218 32.4197 51.0383C32.4197 51.7156 32.1894 51.9052 31.5391 51.8917C29.954 51.8511 28.3554 51.9052 26.7568 51.8646C26.0929 51.8511 25.8626 52.0949 25.8626 52.7586C25.8897 56.5241 25.8626 60.3033 25.9033 64.0824C25.9033 64.6919 25.7542 64.9357 25.0904 64.9086C23.5595 64.868 22.0286 64.8951 20.4977 64.8951C19.3868 64.8951 19.3868 64.8951 19.3868 65.9922V76.8148C19.3868 77.8578 19.3733 77.8578 18.3436 77.8578C16.7992 77.8714 15.2819 77.8714 13.751 77.8714C13.1549 77.8714 12.9381 78.0881 12.9516 78.7247C12.9923 82.5038 12.9381 86.2694 12.9923 90.0485C12.9923 90.7258 12.8433 90.9696 12.1252 90.9425C10.5402 90.8883 8.96862 90.8883 7.38354 90.9425C6.70615 90.9696 6.54358 90.7258 6.54358 90.0756C6.57067 81.068 6.55713 26.0475 6.55713 7.53118C6.55713 6.59656 6.55713 6.59656 7.51901 6.59656H38.0014C38.9633 6.59656 38.9497 6.59656 38.9497 7.51763V12.4481C38.9497 12.7596 38.9226 13.0576 39.3832 13.0576C41.4154 13.017 43.4476 13.1118 45.4797 13.0034V13.017H45.4933C45.4797 15.0352 45.4797 17.0534 45.4526 19.0852C45.4526 19.4374 45.5745 19.5729 45.9403 19.5729C47.9725 19.5458 49.9776 19.5458 52.0097 19.5187V19.5322H52.0233C51.9013 21.564 51.9962 23.5958 51.9691 25.6276C51.9555 25.9526 52.1181 26.0745 52.4297 26.061H142.576C142.698 26.061 142.834 26.061 142.969 26.0475V26.061H142.996C142.874 28.0928 142.969 30.1246 142.942 32.1563C142.928 32.6304 143.267 32.5898 143.565 32.5898C145.272 32.5898 146.979 32.6033 148.686 32.5762C149.269 32.5627 149.458 32.7117 149.431 33.3077Z" fill="white"/>
<path d="M52.0247 19.5187H52.0097V19.5335H52.0247V19.5187Z" fill="black"/>
<path d="M52.0368 13.5859C52.0097 15.5635 52.0097 17.5411 52.0097 19.5187C49.9775 19.5457 47.9725 19.5457 45.9403 19.5728C45.5745 19.5728 45.4526 19.4374 45.4526 19.0852C45.4797 17.0534 45.4797 15.0352 45.4932 13.017C47.4847 13.0034 49.4492 13.017 51.4407 12.9899C51.8877 12.9899 52.0368 13.1253 52.0368 13.5859Z" fill="black"/>
<path d="M39.0174 83.777C39.0309 84.3459 38.8955 84.5491 38.2994 84.522C36.5924 84.4949 34.8853 84.5356 33.1783 84.5085C32.6364 84.4949 32.5009 84.6575 32.5145 85.1722C32.528 89.0461 32.5145 92.9336 32.528 96.8211C32.5416 97.3493 32.4061 97.5254 31.8507 97.5119C29.9133 97.4306 27.9896 97.5796 26.0522 97.4306C26.0387 97.4306 26.0387 97.4306 26.0387 97.4306C26.0387 97.4306 26.0387 97.4306 26.0387 97.417C26.0251 94.8164 26.0116 92.2021 25.998 89.6015C25.9845 88.0844 26.0116 86.5403 25.9845 85.0232C25.9845 84.6033 26.1064 84.4543 26.54 84.4678C28.2334 84.4949 29.9133 84.4543 31.6068 84.4949C32.2842 84.5085 32.5009 84.3595 32.5009 83.6416C32.4603 79.8354 32.5009 76.0427 32.4739 72.2636C32.4603 71.6134 32.6364 71.4374 33.2867 71.4509C35.1563 71.4915 37.053 71.4645 38.9497 71.4509C38.9632 71.4509 38.9632 71.4509 38.9632 71.4509V71.478C38.9768 74.1735 39.0039 76.869 39.0039 79.5645C39.0174 80.9596 38.9768 82.3683 39.0174 83.777Z" fill="black"/>
<path d="M175.484 71.4645H175.47C173.492 71.478 171.514 71.478 169.523 71.478C169.225 71.478 168.913 71.4374 168.926 71.9115C168.94 76.1105 168.954 80.3095 168.954 84.5085H168.94V84.522C166.894 84.373 164.849 84.4949 162.789 84.4679C162.302 84.4543 162.41 84.8471 162.41 85.118V91.85C162.41 93.516 162.396 95.1821 162.424 96.8346C162.424 97.2952 162.275 97.4306 161.827 97.4306C160.107 97.4035 158.4 97.4442 156.693 97.4035C156.083 97.39 155.894 97.5661 155.894 98.1891C155.921 101.982 155.894 105.774 155.921 109.567C155.934 110.217 155.812 110.488 155.067 110.461C153.469 110.393 151.87 110.488 150.271 110.42C149.526 110.393 149.404 110.664 149.418 111.314C149.431 115.094 149.404 118.859 149.445 122.625C149.445 123.288 149.242 123.437 148.618 123.424C146.939 123.383 145.245 123.41 143.552 123.41C143.145 123.397 142.928 123.492 142.928 123.979C142.942 128.043 142.942 132.12 142.942 136.183C142.942 136.278 142.969 136.346 142.996 136.441H142.983V136.454C140.937 136.441 138.918 136.441 136.886 136.414C136.358 136.414 136.426 136.752 136.426 137.064V143.877C136.426 145.421 136.385 146.979 136.439 148.523C136.466 149.214 136.29 149.431 135.572 149.417C131.535 149.39 9.36149 149.471 6.46228 149.512V149.485C6.46228 149.485 6.46228 149.485 6.44873 149.485C6.46228 149.16 6.51647 148.808 6.51647 148.482C6.51647 144.703 6.53002 140.938 6.50292 137.172C6.50292 136.63 6.6384 136.441 7.19385 136.454C8.91441 136.508 10.6214 136.454 12.3284 136.495C12.8703 136.508 13.0329 136.346 13.0329 135.791C13.0058 131.971 13.0465 128.151 12.9923 124.345C12.9923 123.586 13.2361 123.464 13.9 123.492C15.4851 123.519 17.0837 123.464 18.6823 123.519C19.4274 123.546 19.5358 123.288 19.5358 122.625C19.5087 118.588 19.5223 114.538 19.5358 110.488H24.7788C26.0387 110.488 26.0252 110.488 26.0387 109.269C26.0387 105.327 26.0387 101.372 26.0523 97.4306C27.9896 97.5796 29.9134 97.4306 31.8507 97.5119C32.4062 97.5254 32.5416 97.3493 32.5281 96.8211C32.5145 92.9336 32.5281 89.0461 32.5145 85.1722C32.501 84.6575 32.6365 84.4949 33.1784 84.5085C34.8854 84.5356 36.5924 84.4949 38.2994 84.522C38.8955 84.5491 39.031 84.3459 39.0174 83.777C38.9768 82.3683 39.0174 80.9597 39.0039 79.5645C39.0039 76.869 38.9768 74.1735 38.9632 71.478C40.9819 71.478 43.0276 71.478 45.0462 71.5186C45.5068 71.5186 45.5068 71.2748 45.5068 70.9362C45.5068 69.2024 45.5474 67.4686 45.4932 65.7348C45.4797 65.0982 45.6829 64.9763 46.279 64.9899C59.041 65.0034 144.5 65.0034 174.454 65.0034C175.633 65.0034 175.443 64.8951 175.456 65.9922C175.47 67.8208 175.47 69.6223 175.484 71.4645Z" fill="white"/>
<path d="M26.0523 97.417C26.0523 97.4305 26.0523 97.4305 26.0523 97.4305C26.0387 101.372 26.0387 105.327 26.0387 109.269C26.0252 110.488 26.0387 110.488 24.7788 110.488H19.5087C19.5087 110.475 19.5087 110.475 19.5087 110.475C19.5087 106.316 19.5087 102.171 19.4816 98.013C19.4816 97.5389 19.6713 97.4441 20.0913 97.4441C22.0692 97.4441 24.0608 97.4305 26.0523 97.417C26.0387 97.417 26.0387 97.417 26.0523 97.417Z" fill="black"/>
<path d="M13.6285 110.448C13.1002 110.434 12.9782 110.61 12.9782 111.111C12.9918 114.985 12.9782 118.846 12.9918 122.719C12.9918 123.275 12.8699 123.464 12.2738 123.464C10.5667 123.41 8.85973 123.424 7.13917 123.464C6.89531 123.464 6.74629 123.424 6.65145 123.329C6.55662 123.234 6.52952 123.072 6.52952 122.828C6.54307 116.76 6.54307 110.705 6.52952 104.637C6.52952 104.122 6.665 103.959 7.19336 103.973C8.92747 104.014 10.6616 103.959 12.3957 104C12.924 104.014 13.0595 103.837 13.046 103.336C13.0324 99.4624 13.046 95.602 13.0189 91.7281C13.0189 91.1592 13.1679 90.9695 13.7369 90.9966C15.4439 91.0373 17.1238 90.9831 18.8173 91.0237C19.1831 91.0372 19.3728 90.956 19.4676 90.7664C19.5218 90.658 19.5624 90.509 19.5489 90.2923C19.5353 88.3689 19.5353 86.4454 19.5353 84.522C19.5353 82.6121 19.5353 80.6887 19.5218 78.7653C19.5218 78.1693 19.6437 77.9661 20.2805 77.9932C21.9468 78.0339 23.6132 77.9797 25.2796 78.0203C25.8757 78.0339 26.0653 77.8713 26.0653 77.2482C26.0518 75.3384 26.0518 73.415 26.0518 71.5051C26.0518 69.5817 26.0382 67.6582 26.0382 65.7348C26.0382 65.5181 26.0653 65.3691 26.1331 65.2607C26.2279 65.0711 26.404 64.9898 26.7563 64.9898C28.4633 65.0305 30.1838 64.9899 31.8908 65.0034C32.4192 65.0169 32.5547 64.8544 32.5547 64.3397C32.5276 60.5064 32.5547 56.6595 32.5276 52.8263C32.5276 52.2032 32.6766 51.9865 33.3269 52.0135C34.9933 52.0542 36.6596 52 38.326 52.0271C38.895 52.0542 39.0305 51.8646 39.0169 51.3363C38.9763 49.6296 39.0305 47.95 38.9899 46.2568C38.9763 45.6473 39.1253 45.4983 39.7485 45.4983C52.2531 45.5119 138.078 45.4983 168.492 45.4983H168.953C168.967 43.5749 168.953 41.665 169.007 39.7551C169.021 39.1592 168.885 38.9695 168.249 38.9831C164.388 38.9966 160.513 38.9831 156.652 38.9966C156.137 38.9966 155.988 38.8612 156.001 38.3329C156.029 36.6398 155.988 34.9601 156.015 33.267C156.029 32.6846 155.893 32.4543 155.27 32.4814C153.576 32.522 151.897 32.4678 150.203 32.5085C149.661 32.522 149.499 32.3595 149.499 31.8177C149.539 30.0839 149.512 28.3365 149.512 26.6163C149.512 26.3048 149.566 25.9932 149.092 26.0068C147.074 26.0474 145.028 25.939 143.009 26.061C142.887 28.0927 142.982 30.1245 142.955 32.1563C142.941 32.6304 143.28 32.5897 143.578 32.5897C145.285 32.5897 146.992 32.6033 148.699 32.5762C149.282 32.5626 149.471 32.7116 149.444 33.3076C149.417 34.9466 149.417 36.5856 149.444 38.2381C149.458 38.7934 149.309 38.9695 148.726 38.9695C139.676 38.9289 62.9693 38.9153 33.6656 38.9153C32.365 38.9153 32.4057 38.7528 32.4057 40.2157C32.4192 43.8187 32.3921 47.4217 32.4328 51.0383C32.4328 51.7156 32.2024 51.9052 31.5522 51.8916C29.9671 51.851 28.3684 51.9052 26.7698 51.8646C26.106 51.851 25.8757 52.0948 25.8757 52.7585C25.9028 56.5241 25.8757 60.3032 25.9163 64.0823C25.9163 64.6919 25.7673 64.9357 25.1034 64.9086C23.5726 64.8679 22.0417 64.895 20.5108 64.895C19.3999 64.895 19.3999 64.895 19.3999 65.9922V76.8148C19.3999 77.8578 19.3863 77.8578 18.3567 77.8578C16.8122 77.8713 15.2949 77.8713 13.764 77.8713C13.1679 77.8713 12.9511 78.088 12.9647 78.7247C13.0053 82.5038 12.9511 86.2694 13.0053 90.0485C13.0053 90.7257 12.8563 90.9695 12.1383 90.9424C10.5532 90.8883 8.98166 90.8883 7.39658 90.9424C6.71919 90.9695 6.55662 90.7257 6.55662 90.0755C6.58371 81.068 6.57017 26.0474 6.57017 7.53113C6.57017 6.59651 6.57017 6.59651 7.53205 6.59651H38.0144C38.9763 6.59651 38.9628 6.59651 38.9628 7.51758V12.448C38.9628 12.7596 38.9357 13.0576 39.3963 13.0576C41.4284 13.0169 43.4606 13.1117 45.4928 13.0034C45.5063 10.9852 45.5063 8.99401 45.5469 6.97578C45.5469 6.54233 45.3166 6.50169 44.9779 6.50169H39.8975C39.0305 6.50169 39.0305 6.50169 39.0305 5.59417C39.0305 3.9552 39.0169 2.31623 39.044 0.663715C39.044 0.148997 38.8815 0 38.3667 0C27.9485 0.0135452 17.5438 0.0270904 7.12562 0C6.58371 0 6.47533 0.216723 6.47533 0.690805C6.51598 2.43813 6.47533 4.15837 6.50243 5.89216C6.51598 6.39333 6.3534 6.52878 5.86569 6.51524C4.25351 6.48815 2.64133 6.50169 1.0156 6.50169C-0.122405 6.50169 -0.000475359 6.37979 -0.000475359 7.50404C-0.000475359 43.6562 -0.000475359 137.741 0.0130724 148.618C0.0130724 149.593 -0.122405 149.485 0.920769 149.485H6.44824C6.46179 149.16 6.51598 148.808 6.51598 148.482C6.51598 144.703 6.52952 140.938 6.50243 137.172C6.50243 136.63 6.63791 136.441 7.19336 136.454C8.91392 136.508 10.6209 136.454 12.3279 136.495C12.8699 136.508 13.0324 136.346 13.0324 135.791C13.0053 131.971 13.046 128.151 12.9918 124.345C12.9918 123.586 13.2356 123.464 13.8995 123.492C15.4846 123.519 17.0832 123.464 18.6818 123.519C19.427 123.546 19.5353 123.288 19.5353 122.625C19.5082 118.588 19.5218 114.538 19.5353 110.488C19.5353 110.475 19.5353 110.475 19.5353 110.475H19.5082C17.5438 110.475 15.5794 110.475 13.6285 110.448Z" fill="black"/>
<path d="M181.296 58.4882C179.629 58.5153 177.963 58.4746 176.296 58.5153C175.687 58.5288 175.456 58.4069 175.47 57.7296C175.511 53.8693 175.47 49.9953 175.497 46.1349C175.511 45.6338 175.362 45.4712 174.833 45.4848C172.869 45.5119 170.918 45.4983 168.954 45.4983H168.94V58.5153H38.9633V71.4509V71.478C40.9819 71.478 43.0276 71.478 45.0462 71.5186C45.5068 71.5186 45.5068 71.2748 45.5068 70.9362C45.5068 69.2024 45.5474 67.4686 45.4933 65.7348C45.4797 65.0982 45.6829 64.9763 46.279 64.9899C59.041 65.0034 144.5 65.0034 174.454 65.0034C175.633 65.0034 175.443 64.895 175.456 65.9922C175.47 67.8208 175.47 69.6223 175.484 71.4645C177.421 71.4645 179.358 71.4645 181.296 71.5186C181.837 71.5322 182 71.3832 182 70.8278C181.973 66.9404 181.973 63.0529 182 59.1654C182.014 58.5965 181.797 58.4882 181.296 58.4882Z" fill="black"/>
<path d="M168.954 58.5152V45.4983H168.493C138.078 45.4983 52.2536 45.5118 39.749 45.4983C39.1258 45.4983 38.9768 45.6473 38.9904 46.2568C39.031 47.95 38.9768 49.6296 39.0174 51.3363C39.031 51.8645 38.8955 52.0542 38.3265 52.0271C36.6602 52 34.9938 52.0542 33.3274 52.0135C32.6636 51.9864 32.5145 52.2032 32.5145 52.8262C32.5416 56.6595 32.5145 60.5064 32.5416 64.3397C32.5416 64.8544 32.4062 65.0169 31.8778 65.0034C30.1708 64.9898 28.4502 65.0305 26.7432 64.9898C26.3774 64.9763 26.2013 65.0711 26.12 65.2607C26.0658 65.3826 26.0252 65.5181 26.0252 65.7348C26.0387 67.6582 26.0387 69.5816 26.0387 71.5051C26.0387 73.4149 26.0387 75.3384 26.0523 77.2482C26.0523 77.8713 25.8626 78.0338 25.2665 78.0203C23.6002 77.9797 21.9338 78.0339 20.2674 77.9932C19.6307 77.9661 19.5087 78.1693 19.5087 78.7653C19.5223 80.6887 19.5223 82.5986 19.5223 84.522C19.5223 86.4454 19.5223 88.3688 19.5358 90.2923C19.5358 90.509 19.5087 90.6444 19.4545 90.7663C19.3597 90.956 19.17 91.0372 18.8043 91.0237C17.1108 90.9831 15.4309 91.0372 13.7239 90.9966C13.1549 90.9695 13.0058 91.1591 13.0058 91.728C13.0329 95.602 13.0194 99.4623 13.0329 103.336C13.0465 103.837 12.911 104.014 12.3826 104C10.6485 103.959 8.91443 104.014 7.18032 103.973C6.65196 103.959 6.51648 104.122 6.51648 104.637C6.53003 110.705 6.53003 116.76 6.51648 122.828C6.51648 123.072 6.55712 123.221 6.63841 123.329C6.73324 123.424 6.89582 123.464 7.12613 123.464C8.84669 123.424 10.5537 123.41 12.2607 123.464C12.8568 123.464 12.9787 123.275 12.9787 122.719C12.9652 118.846 12.9787 114.985 12.9652 111.111C12.9652 110.61 13.0871 110.434 13.6155 110.448C15.5664 110.475 17.5308 110.475 19.4952 110.475C19.4952 106.316 19.4952 102.171 19.4681 98.013C19.4681 97.5389 19.6578 97.4441 20.0777 97.4441C22.0557 97.4441 24.0472 97.4306 26.0252 97.417C26.0116 94.8163 25.9981 92.2021 25.9845 89.6014C25.971 88.0844 25.9981 86.5402 25.971 85.0232C25.971 84.6033 26.0929 84.4543 26.5265 84.4678C28.2199 84.4949 29.8998 84.4543 31.5933 84.4949C32.2707 84.5085 32.4875 84.3595 32.4875 83.6416C32.4468 79.8354 32.4875 76.0427 32.4604 72.2636C32.4468 71.6134 32.6229 71.4373 33.2732 71.4509C35.1428 71.4915 37.0395 71.4644 38.9362 71.4509C38.9497 71.4509 38.9497 71.4509 38.9497 71.4509V58.5152H168.954Z" fill="white"/>
<path d="M26.0251 65.7348C26.0251 65.5181 26.0522 65.3691 26.12 65.2607C26.0658 65.3826 26.0251 65.5181 26.0251 65.7348Z" fill="black"/>
<path d="M12.9787 111.111C12.9922 114.985 12.9787 118.846 12.9922 122.719C12.9922 123.275 12.8703 123.464 12.2742 123.464C10.5672 123.41 8.86019 123.424 7.13963 123.464C6.89578 123.464 6.74675 123.424 6.65192 123.329C6.74675 123.424 6.90932 123.464 7.13963 123.464C8.86019 123.424 10.5672 123.41 12.2742 123.464C12.8703 123.464 12.9922 123.275 12.9922 122.719C12.9787 118.846 12.9922 114.985 12.9787 111.111Z" fill="black"/>
<path d="M19.4545 90.7663C19.5087 90.6579 19.5494 90.509 19.5358 90.2922C19.5494 90.509 19.5087 90.6444 19.4545 90.7663Z" fill="black"/>
</g>
<defs>
<clipPath id="clip0_25_170">
<rect width="182" height="156" fill="white"/>
</clipPath>
</defs>
</svg>
