<?xml version="1.0" encoding="utf-8"?>
<!-- Generator: Adobe Illustrator 24.1.2, SVG Export Plug-In . SVG Version: 6.00 Build 0)  -->
<svg version="1.1" id="레이어_1" xmlns="http://www.w3.org/2000/svg" xmlns:xlink="http://www.w3.org/1999/xlink" x="0px"
	 y="0px" viewBox="0 0 20 20" style="enable-background:new 0 0 20 20;" xml:space="preserve">
<g>
	<path d="M5.91,7.08C5.86,7.51,5.81,7.92,5.85,8.34c0.04,0.52,0.3,1,0.7,1.33c0.31,0.25,0.67,0.38,1.05,0.38
		c0.07,0,0.15,0,0.22-0.01c0.4-0.05,0.75-0.26,0.98-0.58C9.02,9.14,9.1,8.76,9.03,8.38C8.97,8.03,8.77,7.74,8.58,7.5
		C8.52,7.43,8.47,7.35,8.41,7.27C8.09,6.85,7.76,6.4,7.22,6.19C7.25,6.18,7.27,6.17,7.3,6.16c0.02-0.01,0.04-0.01,0.06-0.02
		c0.19-0.07,0.38-0.15,0.56-0.22c0.15-0.06,0.29-0.11,0.44-0.17c0.19-0.07,0.27-0.22,0.2-0.4C8.5,5.18,8.35,5.12,8.15,5.17
		C8.08,5.19,8.01,5.22,7.93,5.24c-2.2,0.8-4.25,1.91-6.1,3.28L1.81,8.54c-0.07,0.05-0.14,0.1-0.18,0.19
		c-0.1,0.2-0.09,0.38,0.03,0.49c0.13,0.14,0.27,0.02,0.35-0.05c0.02-0.01,0.03-0.02,0.04-0.04C2.77,8.6,3.51,8.11,4.24,7.68
		c0.63-0.37,1.17-0.66,1.7-0.91C5.93,6.87,5.92,6.98,5.91,7.08z M7.4,9.07c0.2-0.02,0.35-0.09,0.44-0.21
		c0.09-0.12,0.12-0.28,0.09-0.48C7.87,8.02,7.66,7.77,7.29,7.64C7.01,7.54,6.75,7.6,6.46,7.85c0-0.26,0.03-0.53,0.09-0.87
		c0.01-0.05,0.06-0.1,0.15-0.14c0.15-0.07,0.34-0.07,0.44-0.01c0.14,0.08,0.25,0.2,0.35,0.3c0.27,0.28,0.52,0.62,0.79,1.02
		c0.21,0.32,0.21,0.61,0.02,0.9c-0.2,0.29-0.5,0.41-0.88,0.34c-0.23-0.04-0.43-0.15-0.6-0.34C7.04,9.09,7.22,9.1,7.4,9.07z"/>
	<path d="M13.08,10.09c0.28,0.23,0.68,0.36,1.08,0.36c0.16,0,0.31-0.02,0.46-0.06c0.47-0.12,0.82-0.43,0.99-0.85
		c0.11-0.3,0.15-0.62,0.13-1.01c-0.02-0.42-0.09-0.88-0.23-1.34c-0.32-1.1-1.22-1.63-2.35-1.37c-0.32,0.07-0.54,0.27-0.65,0.57
		c-0.08,0.23-0.17,0.5-0.2,0.79c-0.01,0.13-0.04,0.27-0.06,0.4c-0.05,0.3-0.1,0.61-0.05,0.93C12.32,9.18,12.6,9.7,13.08,10.09z
		 M13.74,9.07c0.31-0.04,0.44-0.19,0.46-0.51c0.02-0.38-0.14-0.67-0.48-0.85c-0.32-0.17-0.62-0.15-0.9,0.05
		c0.03-0.41,0.14-0.81,0.32-1.23c0.03-0.06,0.09-0.09,0.17-0.11c0.6-0.17,1.2,0.09,1.45,0.62c0.3,0.64,0.41,1.32,0.33,2.02
		c-0.03,0.27-0.17,0.5-0.4,0.64c-0.27,0.16-0.61,0.19-0.93,0.06c-0.3-0.12-0.53-0.33-0.74-0.72C13.26,9.09,13.5,9.1,13.74,9.07z"/>
	<path d="M9.6,8.91l0.1,0c0.06,0,0.12-0.01,0.18-0.01c0.23-0.01,0.48,0.01,0.79,0.11c-0.02,0.01-0.03,0.03-0.05,0.04
		c-0.09,0.07-0.16,0.13-0.23,0.2c-0.85,0.87-1.64,1.86-2.33,2.95C8,12.31,7.91,12.46,8.02,12.63c0.08,0.13,0.21,0.15,0.33,0.15
		c0.02,0,0.03,0,0.05,0c1.46-0.05,2.91-0.11,4.37-0.16c0.17-0.01,0.28-0.04,0.35-0.12c0.05-0.05,0.07-0.12,0.07-0.21
		c-0.01-0.26-0.24-0.3-0.41-0.3c-0.02,0-0.04,0-0.06,0l-0.72,0.03c-0.83,0.03-1.66,0.06-2.48,0.09c-0.16,0.01-0.32,0-0.49,0
		c-0.04,0-0.09,0-0.14,0c0.35-0.4,0.67-0.8,0.99-1.2c0.5-0.62,0.97-1.2,1.5-1.75c0.14-0.14,0.19-0.27,0.17-0.38
		c-0.02-0.11-0.12-0.2-0.3-0.27c-0.28-0.11-0.57-0.19-0.87-0.22c-0.3-0.04-0.57-0.04-0.82,0c-0.2,0.03-0.31,0.15-0.29,0.34
		C9.29,8.82,9.4,8.92,9.6,8.91z"/>
	<path d="M15.77,13.79c-0.11,0-0.22,0.01-0.33,0.02c-0.26,0.02-0.52,0.05-0.78,0.08c-0.5,0.05-1.02,0.1-1.54,0.15
		c-0.77,0.07-1.47,0.11-2.16,0.14c-1.44,0.06-2.75,0.05-4.02-0.04c-0.47-0.03-0.94-0.05-1.36-0.07c-0.1,0-0.19,0.02-0.26,0.08
		c-0.05,0.05-0.09,0.12-0.09,0.21c-0.01,0.19,0.12,0.32,0.33,0.33c1.2,0.08,2.44,0.17,3.77,0.16c0.13,0,0.26,0,0.39,0
		c0.63,0,1.35-0.03,2.28-0.1c0.72-0.05,1.45-0.12,2.16-0.18l0.58-0.05c0.38-0.03,0.76-0.08,1.09-0.12c0.18-0.02,0.28-0.15,0.27-0.34
		C16.09,13.88,15.96,13.78,15.77,13.79z"/>
</g>
</svg>
