<?xml version="1.0" encoding="utf-8"?>
<!-- Generator: Adobe Illustrator 24.1.2, SVG Export Plug-In . SVG Version: 6.00 Build 0)  -->
<svg version="1.1" id="레이어_1" xmlns="http://www.w3.org/2000/svg" xmlns:xlink="http://www.w3.org/1999/xlink" x="0px"
	 y="0px" viewBox="0 0 87.18 62.37" style="enable-background:new 0 0 87.18 62.37;" xml:space="preserve">
<style type="text/css">
	.st0{fill:#FFFFFF;}
	.st1{fill:#EC7432;}
	.st2{fill:#D5261F;}
	.st3{fill:#364995;}
	.st4{fill:#BD2975;}
</style>
<g>
	<path class="st0" d="M27.5,22c0.43,5.39,5.11,9.72,10.44,9c4.26-0.57,7.22-4.44,6.44-8.67c-0.33-1.82-1.35-3.29-2.43-4.69
		c-2.21-2.87-4.11-6.1-7.92-7.3c0.39-0.43,0.89-0.52,1.33-0.7c1.83-0.72,3.67-1.4,5.5-2.11c0.81-0.32,1.25-0.91,0.93-1.79
		c-0.31-0.86-1.02-1.05-1.85-0.82c-0.4,0.11-0.79,0.26-1.18,0.4C26.76,9.73,15.59,15.69,5.32,23.31c-0.39,0.29-0.83,0.56-1.05,1.02
		c-0.39,0.79-0.53,1.72,0.08,2.34c0.62,0.63,1.24-0.09,1.76-0.48c3.88-2.9,7.9-5.59,12.08-8.05c3.19-1.87,6.43-3.65,9.89-5.25
		C27.78,16.05,27.26,19,27.5,22z M30.74,14.55c0.21-1.11,2.64-1.71,3.74-1.02c0.74,0.46,1.37,1.07,1.97,1.7
		c1.64,1.74,3.05,3.65,4.36,5.65c1.15,1.76,1.31,3.54,0.1,5.3c-1.25,1.83-3.09,2.38-5.18,2.01c-1.6-0.28-2.92-1.15-4.09-2.69
		c1.51,0.29,2.79,0.41,4.08,0.26c2.03-0.23,2.92-1.4,2.6-3.43c-0.32-1.95-1.46-3.21-3.27-3.85c-1.62-0.58-3.06-0.07-4.8,1.6
		C30.16,18.18,30.4,16.34,30.74,14.55z"/>
	<path class="st0" d="M67.19,31.45c3.6,2.98,11.19,2.72,13.37-2.92c0.65-1.69,0.82-3.44,0.67-5.41c-0.09-2.37-0.53-4.86-1.25-7.3
		c-1.73-5.91-6.53-8.7-12.53-7.33c-1.64,0.38-2.76,1.35-3.32,2.94c-0.49,1.39-0.92,2.8-1.06,4.28c-0.24,2.4-0.98,4.74-0.58,7.2
		C63.05,26.33,64.48,29.2,67.19,31.45z M67.01,11.95c0.2-0.47,0.68-0.67,1.18-0.81c3.37-0.93,6.87,0.46,8.34,3.61
		c1.66,3.56,2.3,7.38,1.86,11.28c-0.41,3.6-4.17,5.51-7.8,4.13c-2.19-0.83-3.47-2.55-4.56-4.76c1.63,0.47,3.08,0.54,4.55,0.33
		c1.56-0.22,2.17-0.88,2.25-2.47c0.1-1.97-0.73-3.43-2.47-4.37c-1.67-0.9-3.25-0.8-4.76,0.37c-0.08,0.06-0.19,0.1-0.4,0.2
		C65.34,16.77,66.01,14.32,67.01,11.95z"/>
	<path class="st0" d="M47.84,24.85c0.53-0.02,1.06-0.06,1.59-0.06c1.58-0.01,3.15,0.12,5,0.81c-0.76,0.66-1.4,1.14-1.94,1.69
		c-4.84,4.94-9.07,10.36-12.79,16.19c-0.39,0.61-0.78,1.26-0.31,2c0.42,0.66,1.09,0.71,1.8,0.69c8.02-0.29,16.03-0.58,24.05-0.86
		c1.4-0.05,2.03-0.5,1.99-1.46c-0.04-0.94-0.62-1.33-1.99-1.32c-0.15,0-0.3,0.01-0.45,0.02c-5.82,0.22-11.64,0.44-17.47,0.65
		c-1.29,0.04-2.58,0.01-4.16,0.01c4.98-5.67,9.21-11.55,14.21-16.79c1.32-1.39,1.15-2.35-0.62-3.05c-1.52-0.6-3.09-1.01-4.71-1.21
		c-1.47-0.18-2.95-0.22-4.42-0.01c-0.86,0.12-1.39,0.6-1.3,1.54C46.41,24.58,47.01,24.88,47.84,24.85z"/>
	<path class="st0" d="M81.77,52.35c-0.6,0.02-1.21,0.07-1.81,0.12c-4.25,0.41-8.5,0.86-12.75,1.22c-3.95,0.34-7.91,0.61-11.88,0.77
		c-7.38,0.3-14.75,0.28-22.12-0.2c-2.49-0.16-4.98-0.28-7.48-0.4c-0.88-0.04-1.52,0.36-1.54,1.28c-0.03,0.94,0.57,1.42,1.5,1.49
		c6.75,0.47,13.51,0.94,20.69,0.87c4.63,0.1,9.65-0.15,14.67-0.5c5.01-0.35,10.02-0.84,15.02-1.29c1.99-0.18,3.98-0.41,5.97-0.65
		c0.86-0.1,1.26-0.66,1.2-1.5C83.18,52.67,82.61,52.32,81.77,52.35z"/>
</g>
</svg>
