<?xml version="1.0" encoding="utf-8"?>
<!-- Generator: Adobe Illustrator 24.1.2, SVG Export Plug-In . SVG Version: 6.00 Build 0)  -->
<svg version="1.1" id="레이어_1" xmlns="http://www.w3.org/2000/svg" xmlns:xlink="http://www.w3.org/1999/xlink" x="0px"
	 y="0px" viewBox="0 0 45.44 78.75" style="enable-background:new 0 0 45.44 78.75;" xml:space="preserve">
<style type="text/css">
	.st0{fill:#FFFFFF;}
</style>
<g>
	<path class="st0" d="M5.49,23.29c-3.15-1.02-4.55-4.33-3.91-7.39c1.9-8.16,9.25-13.66,17.39-14.46
		c8.52-0.98,17.18,3.27,22.03,10.32c4.67,6.76,3.76,16.26-2.92,21.3c-2,1.44-5.41,3.03-7.76,3.9c-0.19-0.01-0.28,0.09-0.38,0.18
		l-0.2,0.37c0.27,3.93-0.32,8.3-0.43,12.31c-0.1,3.73-3.14,5.61-6.13,5.53c-2.99-0.08-5.82-2.12-5.72-5.85
		c0.2-3.82,0.21-7.74,0.5-11.56c0.19-3.64,1.22-7.16,4.09-9.6c2.58-2.08,5.86-2.45,8.52-4.25c1.52-1.08,1.74-2.19,1.59-3.41
		c-0.37-3.65-5.59-7.16-9.78-7.64c-4.56-0.41-8.45,1.82-9.51,6.37C12.14,22.45,8.36,24.12,5.49,23.29z M22.72,65.59
		c7.56,0.21,7.23,12.06-0.33,11.85C14.75,77.23,15.07,65.38,22.72,65.59z"/>
</g>
</svg>
